<?xml version="1.0" encoding="utf-8"?>
<!-- Generator: Adobe Illustrator 23.0.0, SVG Export Plug-In . SVG Version: 6.00 Build 0)  -->
<svg version="1.1" id="Layer_1" xmlns="http://www.w3.org/2000/svg" xmlns:xlink="http://www.w3.org/1999/xlink" x="0px" y="0px"
	 viewBox="0 0 120 85" style="enable-background:new 0 0 120 85;" xml:space="preserve">
<style type="text/css">
	.st0{display:none;opacity:0.54;fill:url(#SVGID_1_);enable-background:new    ;}
	.st1{opacity:0.54;}
	.st2{fill:#BF3000;}
	.st3{fill:#74B3BF;}
	.st4{display:none;fill:url(#SVGID_2_);}
	.st5{display:none;fill:url(#SVGID_3_);}
	.st6{display:none;fill:url(#SVGID_4_);}
	.st7{display:none;fill:url(#SVGID_5_);}
</style>
<radialGradient id="SVGID_1_" cx="2.8453" cy="85.5678" r="112.1471" gradientTransform="matrix(1.0042 0 0 -1.8389 3.1964 161.2858)" gradientUnits="userSpaceOnUse">
	<stop  offset="2.024560e-07" style="stop-color:#3B3849"/>
	<stop  offset="1" style="stop-color:#000000"/>
	<stop  offset="1" style="stop-color:#16131B"/>
</radialGradient>
<rect class="st0" width="120" height="155.6"/>
<g class="st1">
	<polygon class="st2" points="110,155.6 109.9,144.7 111.3,155.6 111.4,155.6 109.9,144.1 109.8,144.1 109.9,155.6 	"/>
	<polygon class="st2" points="108.2,155.6 109.8,144.5 109.9,155.6 110,155.6 109.9,144.1 109.8,144.1 	"/>
	<polygon class="st2" points="88.7,155.6 92.5,152.9 92.1,155.6 92.2,155.6 92.5,152.9 92.5,152.7 88.5,155.6 	"/>
	<polygon class="st2" points="93.4,155.6 92.6,152.9 95.6,155.6 95.7,155.6 92.4,152.7 	"/>
	<polygon class="st2" points="46.3,155.6 46.6,154.5 46.5,155.6 46.6,155.6 46.7,154.1 46.6,154.1 46.2,155.6 	"/>
	<polygon class="st2" points="46.6,155.6 46.7,154.3 47.8,155.6 47.9,155.6 46.7,154.1 46.6,154.1 46.5,155.6 	"/>
	<path class="st2" d="M92.5,152.9l-21.2-15.8l0,0l14.3-20.1l0,0L92.5,152.9z M71.5,137.1l21,15.6l-6.8-35.6L71.5,137.1z"/>
	<path class="st2" d="M92.5,152.9l-6.9-36l0,0l16.9-1l0,0L92.5,152.9z M85.7,117.1l6.8,35.6l9.9-36.8L85.7,117.1z"/>
	<polygon class="st2" points="42.6,155.6 46.6,154.3 46.2,155.6 46.3,155.6 46.7,154.1 46.7,154.1 42.3,155.6 	"/>
	<polygon class="st2" points="75.1,155.6 71.5,137.1 92.4,152.9 88.5,155.6 88.7,155.6 92.6,152.9 71.4,136.9 71.4,136.9 75,155.6 	
		"/>
	<polygon class="st2" points="47.9,155.6 46.8,154.3 49.3,155.6 49.5,155.6 46.6,154.1 46.6,154.1 47.8,155.6 	"/>
	<polygon class="st2" points="62.9,155.6 64.8,129.6 71.4,137.1 64.8,155.6 64.9,155.6 71.4,137.1 64.8,129.4 	"/>
	<path class="st2" d="M85.6,117.1L99.4,96l0,0l3.1,19.9l0,0L85.6,117.1z M99.3,96l-13.6,20.9l16.7-1L99.3,96z"/>
	<polygon class="st2" points="25.9,155.6 28.8,129 37,155.6 37.1,155.6 28.8,128.6 25.8,155.6 	"/>
	<path class="st2" d="M46.7,154.1L46.7,154.1l1.9-38.3l0,0l7.2,10.2l0,0L46.7,154.1z M48.6,115.9l-1.9,37.9l9-28L48.6,115.9z"/>
	<path class="st2" d="M46.7,154.3L46.7,154.3l-18.1-25.4l19.9-13.1l0,0L46.7,154.3z M28.8,128.8l17.9,25.2l1.9-38.1L28.8,128.8z"/>
	<path class="st2" d="M71.5,137.1l-6.7-7.6l0,0l1-22.3H66L71.5,137.1z M64.8,129.4l6.5,7.4l-5.5-29.3L64.8,129.4z"/>
	<path class="st2" d="M28.7,129l4.4-18.6l15.5,5.5L28.7,129z M33.2,110.5l-4.4,18.2l19.7-12.9L33.2,110.5z"/>
	<path class="st2" d="M81.2,110.1L65.9,80.9l10.4-8l0,0L81.2,110.1z M66,80.9L81,109.7l-4.8-36.6L66,80.9z"/>
	<path class="st2" d="M81,110.1L81,110.1l-4.9-37.2l19.3-4.1V69L81,110.1z M76.3,72.9l4.8,36.8l14.4-40.9L76.3,72.9z"/>
	<path class="st2" d="M18,149.4l-6.2-40.5l17,19.8l0,0L18,149.4z M11.8,109.3l6.2,39.9l10.6-20.3L11.8,109.3z"/>
	<path class="st2" d="M48.6,116.1l-4.2-18.6l6-4.1l0,0L48.6,116.1z M44.4,97.5l4.1,18l1.7-22.1L44.4,97.5z"/>
	<path class="st2" d="M11.8,109.3L10,94l0,0l9.9-16.8l0,0L11.8,109.3z M10.1,94.2l1.8,14.9l8.1-31.5L10.1,94.2z"/>
	<path class="st2" d="M76.2,73.1l9.5-32.9l0,0l9.8,28.6L76.2,73.1z M85.7,40.4l-9.4,32.3l19.1-4.1L85.7,40.4z"/>
	<path class="st2" d="M33.2,110.5L33.2,110.5l-21.5-1.4l0,0l8.2-31.9L33.2,110.5z M11.8,109.1l21.3,1.2L20,77.4L11.8,109.1z"/>
	<path class="st2" d="M76.3,73.1L62.2,58.2l0,0l16.4-16.4V42L76.3,73.1z M62.5,58.2l13.8,14.7L78.6,42L62.5,58.2z"/>
	<g>
		<polygon class="st2" points="120,155.2 109.9,121.2 120,126.3 120,126.1 109.8,121 120,155.4 		"/>
	</g>
	<g>
		<polygon class="st2" points="120,115 109.9,121 120,90.7 120,90.5 109.8,121.2 109.8,121.2 		"/>
	</g>
	<g>
		<path class="st2" d="M78.2,144.7L78.2,144.7L83,95l27,26.2L78.2,144.7z M83,95.2l-4.8,49.3l31.5-23.3L83,95.2z"/>
	</g>
	<g>
		<path class="st2" d="M109.9,121.2L109.9,121.2l-27-26l0,0l18-33.8l0,0L109.9,121.2z M83,95.2l26.8,26l-8.9-59.7L83,95.2z"/>
	</g>
	<g>
		<polygon class="st2" points="89.8,155.6 78.4,144.5 109.8,121.2 100.8,155.6 100.8,155.6 109.9,121.2 109.9,121 78.3,144.5 
			78.2,144.5 89.6,155.6 		"/>
	</g>
	<g>
		<polygon class="st2" points="69.4,155.6 67,149.2 78.3,144.5 79.2,155.6 79.2,155.6 78.3,144.5 78.3,144.5 67,149 66.9,149 		"/>
	</g>
	<g>
		<path class="st2" d="M78.3,144.5L78.3,144.5l-4.1-48.3l8.9-1l0,0L78.3,144.5z M74.2,96.2l4,47.9L83,95.2L74.2,96.2z"/>
	</g>
	<g>
		<path class="st2" d="M56,122.8L56,122.8L41.9,93.6H42L74.3,96L56,122.8z M42,93.8L56,122.6l18.1-26.4L42,93.8z"/>
	</g>
	<g>
		<path class="st2" d="M74.3,96.2l-32.4-2.3l0,0L49,65.1l0,0L74.3,96.2z M42,93.6L74.1,96L49,65.1L42,93.6z"/>
	</g>
	<g>
		<path class="st2" d="M74.2,96.4L74.2,96.4L49,65.1l0,0l18.9-41.7L74.2,96.4z M49,65.1l25.1,31.1l-6.3-72.6L49,65.1z"/>
	</g>
	<g>
		<path class="st2" d="M31.6,137.8L31.6,137.8L42,93.6l14.2,28.9l0,0L31.6,137.8z M42,93.8l-10.3,43.6l24.3-14.9L42,93.8z"/>
	</g>
	<g>
		<polygon class="st2" points="29.9,155.6 27.3,153.5 31.6,137.8 38.2,155.6 38.3,155.6 31.6,137.6 27.3,153.5 27.2,153.7 
			29.8,155.6 		"/>
	</g>
	<g>
		<path class="st2" d="M31.7,137.8l-19.2-18h0.1l29.5-26V94L31.7,137.8z M12.5,119.8l19.1,17.8L42,94L12.5,119.8z"/>
	</g>
	<g>
		<path class="st2" d="M49,65.1L34.8,26.6l0,0l7-15.5v0.2L49,65.1L49,65.1z M34.9,26.6l14.1,38.1l-7.1-53.4L34.9,26.6z"/>
	</g>
	<g>
		<path class="st2" d="M25.8,75.8L25.8,75.8l9-49.5l0,0L49,64.9L25.8,75.8z M34.9,26.7l-9,49.1L49,65.1L34.9,26.7z"/>
	</g>
	<path class="st2" d="M110.2,144.9c-0.2,0.4-0.5,0.4-0.7,0c-0.2-0.4-0.2-1,0-1.4c0.2-0.4,0.5-0.4,0.7,0
		C110.4,143.9,110.4,144.5,110.2,144.9z"/>
	<path class="st2" d="M110.1,144.7c-0.1,0.2-0.4,0.2-0.5,0c-0.1-0.2-0.1-0.8,0-1c0.1-0.2,0.4-0.2,0.5,0S110.2,144.3,110.1,144.7z"/>
	<path class="st2" d="M93.1,154.1c-0.4,0.6-0.9,0.6-1.3-0.2c-0.3-0.8-0.3-1.8,0.1-2.5c0.4-0.6,0.9-0.6,1.3,0.2
		C93.5,152.3,93.5,153.5,93.1,154.1z"/>
	<path class="st2" d="M92.8,153.5c-0.2,0.4-0.5,0.4-0.7,0c-0.2-0.4-0.2-1,0-1.4c0.2-0.4,0.5-0.4,0.7,0
		C93.1,152.5,93.1,153.3,92.8,153.5z"/>
	<path class="st2" d="M92.8,153.5c-0.2,0.4-0.4,0.2-0.6,0c-0.2-0.4-0.1-0.8,0-1.2c0.2-0.4,0.4-0.2,0.6,0
		C93,152.7,93,153.1,92.8,153.5z"/>
	<path class="st2" d="M47,154.7c-0.1,0.2-0.3,0.2-0.5,0c-0.1-0.2-0.1-0.6,0-1c0.1-0.2,0.3-0.2,0.5,0C47.1,153.9,47.1,154.3,47,154.7
		z"/>
	<path class="st2" d="M92.7,153.3c-0.1,0.2-0.4,0.2-0.5,0c-0.1-0.2-0.1-0.8,0-1s0.4-0.2,0.5,0C92.9,152.7,92.9,153.1,92.7,153.3z"/>
	<path class="st2" d="M71.7,137.6c-0.2,0.4-0.4,0.2-0.6,0c-0.1-0.4-0.1-0.8,0-1.2c0.2-0.4,0.4-0.2,0.6,0
		C72,136.9,71.9,137.3,71.7,137.6z"/>
	<path class="st2" d="M92.7,153.3c-0.1,0.2-0.3,0.2-0.4,0c-0.1-0.2-0.1-0.6,0-0.8c0.1-0.2,0.3-0.2,0.4,0
		C92.8,152.7,92.8,153.1,92.7,153.3z"/>
	<path class="st2" d="M85.9,117.5c-0.1,0.2-0.4,0.2-0.5,0c-0.1-0.2-0.1-0.8,0-1c0.1-0.2,0.4-0.2,0.5,0C86,116.7,86,117.3,85.9,117.5
		z"/>
	<path class="st2" d="M47.1,154.9c-0.2,0.4-0.5,0.4-0.7,0c-0.2-0.4-0.2-1,0-1.4c0.2-0.4,0.5-0.4,0.7,0
		C47.3,153.9,47.3,154.5,47.1,154.9z"/>
	<path class="st2" d="M92.7,153.3c-0.1,0.2-0.3,0.2-0.4,0c-0.1-0.2-0.1-0.6,0-0.8c0.1-0.2,0.3-0.2,0.4,0
		C92.8,152.7,92.8,153.1,92.7,153.3z"/>
	<path class="st2" d="M46.7,154.3c-0.1,0.2-0.2,0-0.2,0c-0.1-0.2,0-0.4,0-0.4c0.1-0.2,0.2,0,0.2,0C46.8,154.1,46.8,154.3,46.7,154.3
		z"/>
	<path class="st2" d="M56,126.3c-0.1,0.2-0.3,0.2-0.4,0c-0.1-0.2-0.1-0.6,0-0.8c0.1-0.2,0.3-0.2,0.4,0
		C56.1,125.7,56.1,126.1,56,126.3z"/>
	<path class="st2" d="M64.9,129.8c-0.1,0.2-0.2,0.2-0.3,0c-0.1-0.2-0.1-0.4,0-0.6c0.1-0.2,0.2-0.2,0.3,0
		C65,129.4,65,129.6,64.9,129.8z"/>
	<path class="st2" d="M85.8,117.3c-0.1,0.2-0.2,0.2-0.3,0c-0.1-0.2-0.1-0.4,0-0.6c0.1-0.2,0.2-0.2,0.3,0
		C85.9,116.9,85.9,117.1,85.8,117.3z"/>
	<path class="st2" d="M18.4,150.2c-0.2,0.4-0.6,0.4-0.8,0c-0.2-0.4-0.2-1.2,0-1.6c0.2-0.4,0.6-0.4,0.8,0
		C18.6,149,18.6,149.8,18.4,150.2z"/>
	<path class="st2" d="M66,107.5c-0.1,0.2-0.2,0.2-0.2,0c-0.1-0.2-0.1-0.4,0-0.4c0.1-0.2,0.2-0.2,0.2,0
		C66.1,107.1,66.1,107.3,66,107.5z"/>
	<path class="st2" d="M86,117.7c-0.2,0.4-0.5,0.4-0.7,0c-0.2-0.4-0.2-1,0-1.4c0.2-0.4,0.5-0.4,0.7,0S86.2,117.3,86,117.7z"/>
	<path class="st2" d="M46.3,155.6h0.7c0.1,0,0.1-0.2,0.2-0.2c0.4-0.6,0.4-1.8,0.1-2.3c-0.3-0.8-0.9-0.8-1.2-0.2
		c-0.4,0.6-0.4,1.8-0.1,2.3C46.1,155.4,46.2,155.6,46.3,155.6z"/>
	<path class="st2" d="M49.3,117.3c-0.4,0.8-1,0.6-1.4-0.2c-0.4-0.8-0.3-2,0.1-2.7s1-0.6,1.4,0.2C49.7,115.3,49.7,116.5,49.3,117.3z"
		/>
	<path class="st2" d="M56,126.5c-0.1,0.2-0.4,0.2-0.5,0c-0.1-0.2-0.1-0.8,0-1c0.1-0.2,0.4-0.2,0.5,0C56.1,125.7,56.1,126.1,56,126.5
		z"/>
	<path class="st2" d="M29.1,129.6c-0.2,0.4-0.6,0.4-0.8,0c-0.2-0.4-0.2-1.2,0-1.6c0.2-0.4,0.6-0.4,0.8,0
		C29.4,128.6,29.3,129.2,29.1,129.6z"/>
	<path class="st2" d="M29.4,130.2c-0.4,0.6-0.9,0.6-1.2-0.2s-0.3-1.8,0.1-2.3c0.4-0.6,0.9-0.6,1.2,0.2
		C29.7,128.5,29.7,129.4,29.4,130.2z"/>
	<path class="st2" d="M65.2,130.4c-0.2,0.4-0.6,0.4-0.8,0c-0.2-0.4-0.2-1.2,0-1.6c0.2-0.4,0.6-0.4,0.8,0
		C65.6,129.2,65.4,130,65.2,130.4z"/>
	<path class="st2" d="M33.4,110.8c-0.1,0.2-0.4,0.2-0.5,0c-0.1-0.2-0.1-0.8,0-1c0.1-0.2,0.4-0.2,0.5,0
		C33.6,110.3,33.6,110.7,33.4,110.8z"/>
	<path class="st2" d="M49,116.7c-0.2,0.4-0.6,0.4-0.8,0s-0.2-1.2,0-1.6c0.2-0.4,0.6-0.4,0.8,0C49.2,115.5,49.2,116.3,49,116.7z"/>
	<path class="st2" d="M10.5,150.2c-0.1,0.2-0.3,0.2-0.3,0c-0.1-0.2-0.1-0.6,0-0.6c0.1-0.2,0.3-0.2,0.3,0
		C10.6,149.8,10.6,150,10.5,150.2z"/>
	<path class="st2" d="M66,107.5c-0.1,0.2-0.2,0.2-0.3,0c-0.1-0.2-0.1-0.4,0-0.6c0.1-0.2,0.2-0.2,0.3,0
		C66.1,107.1,66.1,107.3,66,107.5z"/>
	<path class="st2" d="M81.4,110.5c-0.2,0.4-0.4,0.2-0.6,0c-0.2-0.4-0.1-0.8,0-1.2c0.2-0.4,0.4-0.2,0.6,0
		C81.6,109.7,81.6,110.3,81.4,110.5z"/>
	<path class="st2" d="M48.8,116.3c-0.1,0.2-0.3,0.2-0.4,0c-0.1-0.2-0.1-0.6,0-0.8c0.1-0.2,0.3-0.2,0.4,0
		C48.9,115.7,48.9,116.1,48.8,116.3z"/>
	<path class="st2" d="M66.2,107.9c-0.2,0.4-0.5,0.4-0.7,0c-0.2-0.4-0.2-1,0-1.4c0.2-0.4,0.5-0.4,0.7,0
		C66.5,106.9,66.5,107.5,66.2,107.9z"/>
	<path class="st2" d="M18.3,150.2c-0.2,0.4-0.5,0.4-0.7,0c-0.2-0.4-0.2-1,0-1.4c0.2-0.4,0.5-0.4,0.7,0
		C18.6,149.2,18.6,149.8,18.3,150.2z"/>
	<path class="st2" d="M12.3,110.1c-0.3,0.6-0.7,0.4-1,0c-0.3-0.6-0.2-1.4,0-2c0.3-0.6,0.7-0.4,1,0C12.7,108.7,12.5,109.7,12.3,110.1
		z"/>
	<path class="st2" d="M10.7,150.6c-0.2,0.4-0.6,0.4-0.8,0c-0.2-0.4-0.2-1.2,0-1.6c0.2-0.4,0.6-0.4,0.8,0
		C11,149.6,10.9,150.2,10.7,150.6z"/>
	<path class="st2" d="M33.4,110.8c-0.1,0.2-0.3,0.2-0.5,0c-0.1-0.2-0.1-0.6,0-1c0.1-0.2,0.3-0.2,0.5,0
		C33.5,110.3,33.5,110.7,33.4,110.8z"/>
	<path class="st2" d="M12.1,109.7c-0.2,0.4-0.4,0.2-0.6,0c-0.2-0.4-0.1-0.8,0-1.2c0.2-0.4,0.4-0.2,0.6,0
		C12.3,108.9,12.3,109.5,12.1,109.7z"/>
	<path class="st2" d="M33.7,111.6c-0.3,0.6-0.8,0.6-1.1-0.2c-0.3-0.6-0.3-1.6,0.1-2.2c0.3-0.6,0.8-0.6,1.1,0.2S34,111,33.7,111.6z"
		/>
	<path class="st2" d="M66.2,107.9c-0.2,0.4-0.5,0.4-0.7,0c-0.2-0.4-0.2-1,0-1.4c0.2-0.4,0.5-0.4,0.7,0
		C66.5,106.9,66.4,107.5,66.2,107.9z"/>
	<path class="st2" d="M48.9,116.5c-0.2,0.4-0.4,0.2-0.6,0c-0.2-0.4-0.1-0.8,0-1.2c0.2-0.4,0.4-0.2,0.6,0
		C49.1,115.5,49.1,116.1,48.9,116.5z"/>
	<path class="st2" d="M50.6,94c-0.2,0.4-0.5,0.2-0.6,0c-0.2-0.4-0.1-1,0-1.2c0.2-0.4,0.5-0.2,0.6,0C50.8,93.2,50.8,93.8,50.6,94z"/>
	<path class="st2" d="M20.3,78c-0.2,0.4-0.5,0.4-0.7,0c-0.2-0.4-0.2-1,0-1.4c0.2-0.4,0.5-0.4,0.7,0C20.5,77,20.5,77.6,20.3,78z"/>
	<path class="st2" d="M95.8,69.6c-0.2,0.4-0.5,0.4-0.7,0c-0.2-0.4-0.2-1,0-1.4c0.2-0.4,0.5-0.4,0.7,0S96,69.2,95.8,69.6z"/>
	<path class="st2" d="M76.5,73.5c-0.2,0.2-0.4,0.2-0.6,0c-0.1-0.4-0.1-0.8,0-1.2c0.2-0.2,0.4-0.2,0.6,0
		C76.7,72.7,76.7,73.3,76.5,73.5z"/>
	<path class="st2" d="M20.2,77.8c-0.2,0.2-0.4,0.2-0.6,0c-0.1-0.4-0.1-0.8,0-1.2c0.2-0.2,0.4-0.2,0.6,0C20.4,77,20.4,77.6,20.2,77.8
		z"/>
	<path class="st2" d="M79,42.6c-0.2,0.4-0.5,0.4-0.7,0c-0.2-0.4-0.2-1,0-1.4c0.2-0.4,0.5-0.4,0.7,0C79.2,41.6,79.2,42.2,79,42.6z"/>
	<path class="st2" d="M86,41c-0.1,0.2-0.4,0.2-0.5,0c-0.1-0.2-0.1-0.8,0-1c0.1-0.2,0.4-0.2,0.5,0C86.1,40.2,86.1,40.6,86,41z"/>
	<path class="st2" d="M45.4,68.4c-0.1,0.2-0.2,0.2-0.3,0c-0.1-0.2-0.1-0.4,0-0.6c0.1-0.2,0.2-0.2,0.3,0C45.5,68,45.5,68.4,45.4,68.4
		z"/>
	<path class="st2" d="M66.3,81.7c-0.2,0.4-0.6,0.4-0.8,0s-0.2-1.2,0-1.6c0.2-0.4,0.6-0.4,0.8,0C66.6,80.5,66.6,81.3,66.3,81.7z"/>
	<path class="st2" d="M50.6,94c-0.1,0.2-0.4,0.2-0.5,0c-0.1-0.2-0.1-0.8,0-1c0.1-0.2,0.4-0.2,0.5,0C50.7,93.2,50.7,93.6,50.6,94z"/>
	<path class="st2" d="M12.1,109.9c-0.2,0.4-0.5,0.4-0.7,0c-0.2-0.4-0.2-1,0-1.4c0.2-0.4,0.5-0.4,0.7,0
		C12.4,108.9,12.4,109.5,12.1,109.9z"/>
	<path class="st2" d="M1,114c-0.2,0.4-0.5,0.4-0.6,0c-0.2-0.6-0.2-1,0-1.4s0.5-0.4,0.6,0C1.2,113,1.2,113.6,1,114z"/>
	<path class="st2" d="M10.4,94.8c-0.2,0.4-0.5,0.4-0.7,0c-0.2-0.4-0.2-1,0-1.4c0.2-0.4,0.5-0.4,0.7,0S10.6,94.4,10.4,94.8z"/>
	<path class="st2" d="M62.9,59.2c-0.3,0.6-0.8,0.4-1-0.2c-0.3-0.6-0.2-1.6,0.1-2c0.3-0.6,0.8-0.4,1,0.2
		C63.2,57.8,63.2,58.8,62.9,59.2z"/>
	<path class="st2" d="M110.4,122.2c-0.3,0.6-0.8,0.6-1.1-0.2c-0.3-0.6-0.3-1.6,0.1-2.2c0.3-0.6,0.8-0.6,1.1,0.2
		C110.7,120.8,110.7,121.6,110.4,122.2z"/>
	<path class="st2" d="M110.1,121.8c-0.2,0.2-0.4,0.2-0.6,0c-0.1-0.4-0.1-0.8,0-1.2c0.2-0.2,0.4-0.2,0.6,0
		C110.3,121,110.3,121.4,110.1,121.8z"/>
	<path class="st2" d="M110.3,122c-0.3,0.4-0.7,0.4-0.9,0c-0.2-0.6-0.2-1.4,0-1.8c0.3-0.4,0.7-0.4,0.9,0
		C110.6,120.8,110.6,121.6,110.3,122z"/>
	<path class="st2" d="M78.6,145.3c-0.2,0.4-0.5,0.4-0.7,0c-0.2-0.4-0.2-1,0-1.4c0.2-0.4,0.5-0.4,0.7,0
		C78.8,144.3,78.8,144.9,78.6,145.3z"/>
	<path class="st2" d="M110.3,122.2c-0.3,0.4-0.7,0.4-0.9,0c-0.2-0.6-0.2-1.4,0-1.8c0.3-0.4,0.7-0.4,0.9,0
		C110.6,120.8,110.6,121.6,110.3,122.2z"/>
	<path class="st2" d="M83.1,95.4c-0.1,0.2-0.2,0.2-0.3,0c-0.1-0.2-0.1-0.4,0-0.6c0.1-0.2,0.2-0.2,0.3,0C83.2,95,83.2,95.2,83.1,95.4
		z"/>
	<path class="st2" d="M78.7,145.5c-0.3,0.4-0.7,0.4-0.9,0c-0.2-0.6-0.2-1.4,0-1.8c0.3-0.4,0.7-0.4,0.9,0
		C79,144.1,79,145.1,78.7,145.5z"/>
	<path class="st2" d="M67.1,149.4c-0.1,0.2-0.3,0.2-0.4,0c-0.1-0.2-0.1-0.6,0-0.8c0.1-0.2,0.3-0.2,0.4,0
		C67.3,149,67.2,149.4,67.1,149.4z"/>
	<path class="st2" d="M67.2,149.8c-0.2,0.4-0.4,0.2-0.6,0c-0.2-0.4-0.1-0.8,0-1.2c0.2-0.4,0.4-0.2,0.6,0
		C67.4,149,67.4,149.4,67.2,149.8z"/>
	<path class="st2" d="M78.5,144.9c-0.1,0.2-0.3,0.2-0.4,0c-0.1-0.2-0.1-0.6,0-0.8c0.1-0.2,0.3-0.2,0.4,0
		C78.6,144.3,78.6,144.7,78.5,144.9z"/>
	<path class="st2" d="M83.1,95.4c-0.1,0.2-0.2,0.2-0.3,0c-0.1-0.2-0.1-0.4,0-0.6c0.1-0.2,0.2-0.2,0.3,0C83.2,95,83.2,95.2,83.1,95.4
		z"/>
	<path class="st2" d="M86.9,46.1c-0.1,0.2-0.3,0.2-0.4,0c-0.1-0.2-0.1-0.6,0-0.8c0.1-0.2,0.3-0.2,0.4,0C87,45.5,87,45.7,86.9,46.1z"
		/>
	<path class="st2" d="M78.7,145.3c-0.2,0.4-0.6,0.4-0.8,0c-0.2-0.4-0.2-1.2,0-1.6c0.2-0.4,0.6-0.4,0.8,0
		C78.9,144.3,78.9,144.9,78.7,145.3z"/>
	<path class="st2" d="M83.5,96.2c-0.3,0.6-0.8,0.6-1.1-0.2c-0.3-0.6-0.3-1.6,0.1-2.2c0.3-0.6,0.8-0.6,1.1,0.2
		C83.8,94.8,83.8,95.6,83.5,96.2z"/>
	<path class="st2" d="M78.7,145.5c-0.3,0.6-0.7,0.4-1,0c-0.3-0.6-0.2-1.4,0-2c0.3-0.6,0.7-0.4,1,0C79.1,144.1,79,145.1,78.7,145.5z"
		/>
	<path class="st2" d="M67.1,149.4c-0.1,0.2-0.2,0.2-0.3,0c-0.1-0.2-0.1-0.4,0-0.6c0.1-0.2,0.2-0.2,0.3,0
		C67.2,149,67.2,149.2,67.1,149.4z"/>
	<path class="st2" d="M87.1,46.3c-0.2,0.4-0.5,0.4-0.7,0c-0.2-0.4-0.2-1,0-1.4c0.2-0.4,0.5-0.4,0.7,0S87.4,45.9,87.1,46.3z"/>
	<path class="st2" d="M67.2,149.6c-0.1,0.2-0.4,0.2-0.5,0c-0.1-0.2-0.1-0.8,0-1c0.1-0.2,0.4-0.2,0.5,0
		C67.4,149,67.4,149.4,67.2,149.6z"/>
	<path class="st2" d="M74.4,96.6c-0.1,0.2-0.3,0.2-0.4,0c-0.1-0.2-0.1-0.6,0-0.8s0.3-0.2,0.4,0S74.5,96.4,74.4,96.6z"/>
	<path class="st2" d="M56.3,123.2c-0.1,0.2-0.3,0.2-0.4,0c-0.1-0.2-0.1-0.6,0-0.8c0.1-0.2,0.3-0.2,0.4,0
		C56.4,122.6,56.4,122.8,56.3,123.2z"/>
	<path class="st2" d="M42.3,94.4c-0.2,0.4-0.5,0.4-0.7,0c-0.2-0.4-0.2-1,0-1.4c0.2-0.4,0.5-0.4,0.7,0C42.5,93.4,42.5,94,42.3,94.4z"
		/>
	<path class="st2" d="M74.4,96.6c-0.1,0.2-0.3,0.2-0.4,0c-0.1-0.2-0.1-0.6,0-0.8s0.3-0.2,0.4,0S74.5,96.4,74.4,96.6z"/>
	<path class="st2" d="M49.2,65.5c-0.2,0.2-0.4,0.2-0.5,0c-0.1-0.4-0.1-0.8,0-1c0.2-0.2,0.4-0.2,0.5,0C49.4,64.9,49.4,65.3,49.2,65.5
		z"/>
	<path class="st2" d="M49.2,65.5c-0.1,0.2-0.3,0.2-0.5,0c-0.1-0.2-0.1-0.6,0-1c0.1-0.2,0.3-0.2,0.5,0C49.4,64.9,49.4,65.3,49.2,65.5
		z"/>
	<path class="st2" d="M68.1,24c-0.2,0.2-0.4,0.2-0.5,0c-0.1-0.4-0.1-0.8,0-1c0.2-0.2,0.4-0.2,0.5,0C68.3,23.2,68.3,23.6,68.1,24z"/>
	<path class="st2" d="M31.8,138c-0.1,0.2-0.2,0.2-0.3,0c-0.1-0.2-0.1-0.4,0-0.6c0.1-0.2,0.2-0.2,0.3,0
		C31.9,137.6,31.9,137.8,31.8,138z"/>
	<path class="st2" d="M27.7,154.5c-0.2,0.4-0.6,0.4-0.8,0c-0.2-0.4-0.2-1.2,0-1.6c0.2-0.4,0.6-0.4,0.8,0
		C27.9,153.3,27.9,153.9,27.7,154.5z"/>
	<path class="st2" d="M32.1,138.6c-0.3,0.4-0.7,0.4-0.9,0c-0.2-0.6-0.2-1.4,0-1.8c0.3-0.4,0.7-0.4,0.9,0
		C32.3,137.3,32.3,138,32.1,138.6z"/>
	<path class="st2" d="M27.5,154.1c-0.1,0.2-0.4,0.2-0.5,0c-0.1-0.2-0.1-0.8,0-1s0.4-0.2,0.5,0C27.7,153.3,27.7,153.9,27.5,154.1z"/>
	<path class="st2" d="M31.8,138c-0.1,0.2-0.3,0.2-0.4,0c-0.1-0.2-0.1-0.6,0-0.8c0.1-0.2,0.3-0.2,0.4,0C32,137.4,32,137.8,31.8,138z"
		/>
	<path class="st2" d="M68.3,24.2c-0.3,0.4-0.6,0.4-0.9,0c-0.2-0.6-0.2-1.2,0-1.8c0.3-0.4,0.6-0.4,0.9,0C68.6,23,68.5,23.8,68.3,24.2
		z"/>
	<path class="st2" d="M49.2,65.5c-0.1,0.2-0.4,0.2-0.5,0c-0.1-0.2-0.1-0.8,0-1c0.1-0.2,0.4-0.2,0.5,0C49.4,64.9,49.4,65.3,49.2,65.5
		z"/>
	<path class="st2" d="M35.2,27.1c-0.2,0.4-0.5,0.4-0.6,0c-0.2-0.4-0.2-1,0-1.2c0.2-0.4,0.5-0.4,0.6,0C35.3,26.4,35.3,26.9,35.2,27.1
		z"/>
	<path class="st2" d="M26.3,76.8c-0.3,0.6-0.7,0.4-1-0.2c-0.3-0.6-0.2-1.4,0.1-2c0.3-0.6,0.7-0.4,1,0.2
		C26.6,75.4,26.6,76.2,26.3,76.8z"/>
	<path class="st2" d="M42.2,94.2c-0.2,0.2-0.4,0.2-0.5,0c-0.1-0.4-0.1-0.8,0-1c0.2-0.2,0.4-0.2,0.5,0C42.4,93.6,42.4,94,42.2,94.2z"
		/>
	<path class="st2" d="M27.6,154.3c-0.2,0.4-0.5,0.2-0.6,0c-0.2-0.4-0.1-1,0-1.2c0.2-0.4,0.5-0.2,0.6,0
		C27.8,153.3,27.7,153.9,27.6,154.3z"/>
	<path class="st2" d="M49.1,65.3c-0.1,0.2-0.2,0.2-0.3,0c-0.1-0.2-0.1-0.4,0-0.6c0.1-0.2,0.2-0.2,0.3,0
		C49.2,64.9,49.2,65.1,49.1,65.3z"/>
</g>
<g class="st1">
	<g>
		<polygon class="st3" points="120,148.5 107.3,145.5 86.6,111.6 120,144.5 120,144.5 86.4,111.3 86.3,111.4 107.3,145.5 
			107.3,145.5 		"/>
	</g>
	<g>
		<polygon class="st3" points="120,148.5 120,148.5 107.3,145.5 107.2,145.3 107.3,155.6 107.4,155.6 107.3,145.5 		"/>
	</g>
	<g>
		<path class="st3" d="M107.3,145.5l-13-11.5l0,0l-7.9-22.8h0.1L107.3,145.5L107.3,145.5z M94.3,133.8l12.7,11.3l-20.5-33.5
			L94.3,133.8z"/>
	</g>
	<g>
		<polygon class="st3" points="92.4,155.6 90.9,153 107.3,145.5 107.3,155.6 107.4,155.6 107.3,145.5 107.3,145.3 90.7,153 
			92.2,155.6 		"/>
	</g>
	<g>
		<polygon class="st3" points="90.5,155.6 90.8,153.2 92.2,155.6 92.4,155.6 90.8,152.8 90.4,155.6 		"/>
	</g>
	<g>
		<path class="st3" d="M90.7,153l3.5-19.2l0,0l13.1,11.7h-0.1L90.7,153z M94.3,134l-3.5,18.8l16.3-7.3L94.3,134z"/>
	</g>
	<g>
		<polygon class="st3" points="79,155.6 76.3,148.3 90.8,153 90.4,155.6 90.5,155.6 90.8,153 90.8,152.8 76.2,148.3 76.2,148.1 
			78.9,155.6 		"/>
	</g>
	<g>
		<polygon class="st3" points="74.7,155.6 76.2,148.5 78.9,155.6 78.9,155.6 76.3,148.3 76.2,148.1 		"/>
	</g>
	<g>
		<path class="st3" d="M90.8,153L90.8,153l-14.7-4.7l18.3-14.5L90.8,153z M76.4,148.3l14.4,4.7l3.5-18.8L76.4,148.3z"/>
	</g>
	<g>
		<path class="st3" d="M76.2,148.5L76.2,148.5l10.2-37.2v0.2l8,22.8l0,0L76.2,148.5z M86.4,111.4l-10.1,36.7l17.9-14.3L86.4,111.4z"
			/>
	</g>
	<g>
		<polygon class="st3" points="52,155.6 53.2,130.6 76.1,148.3 68.2,155.6 68.4,155.6 76.3,148.3 76.3,148.3 53.2,130.6 53.1,130.4 
			51.9,155.6 		"/>
	</g>
	<g>
		<path class="st3" d="M76.3,148.5L76.3,148.5l-23.2-17.9l0,0l13.5-30.1L76.3,148.5z M53.2,130.6l23,17.5l-9.5-47.4L53.2,130.6z"/>
	</g>
	<g>
		<polygon class="st3" points="68.4,155.6 76.2,148.5 74.7,155.6 74.7,155.6 76.3,148.3 76.3,148.1 68.2,155.6 		"/>
	</g>
	<g>
		<path class="st3" d="M53.1,130.8v-0.2l1.2-41h0.1l12.3,11.1L53.1,130.8z M54.4,89.8l-1.2,40.6l13.4-29.7L54.4,89.8z"/>
	</g>
	<g>
		<polygon class="st3" points="32.7,155.6 45.9,132.7 49,155.6 49,155.6 46,132.5 32.6,155.6 		"/>
	</g>
	<g>
		<polygon class="st3" points="49,155.6 46,132.7 53.1,130.6 51.9,155.6 52,155.6 53.2,130.4 46,132.5 45.9,132.5 		"/>
	</g>
	<g>
		<path class="st3" d="M45.9,132.7l8.5-43.1h0.1l-1.2,41l0,0L45.9,132.7z M54.3,90L46,132.5l7.1-2.1L54.3,90z"/>
	</g>
	<g>
		<polygon class="st3" points="31.5,155.6 19.5,134.9 45.9,132.7 32.6,155.6 32.7,155.6 46,132.7 46.1,132.5 19.4,134.9 19.3,134.9 
			31.4,155.6 		"/>
	</g>
	<g>
		<path class="st3" d="M19.3,134.9l4.8-24.5l0,0l22,22.2H46L19.3,134.9z M24.1,110.7l-4.7,24.3l26.4-2.3L24.1,110.7z"/>
	</g>
	<g>
		<path class="st3" d="M46,132.7L46,132.7l-22-22.2l0,0l14-36.7L46,132.7z M24.1,110.5l21.8,22L38,74.2L24.1,110.5z"/>
	</g>
	<g>
		<polygon class="st3" points="15.6,155.6 19.4,135.1 31.4,155.6 31.5,155.6 19.4,134.9 19.3,134.8 15.5,155.6 		"/>
	</g>
	<g>
		<polygon class="st3" points="0.3,155.6 19.3,135.1 15.5,155.6 15.6,155.6 19.4,134.8 0.2,155.6 		"/>
	</g>
	<g>
		<path class="st3" d="M24.1,110.7L24.1,110.7l-8-43.3l22,6.6L24.1,110.7z M16.2,67.6l7.9,42.9L38,74L16.2,67.6z"/>
	</g>
	<g>
		<path class="st3" d="M24.1,110.5L10.9,81l5.3-13.7v0.2L24.1,110.5L24.1,110.5z M11,81l13,29.2l-7.8-42.5L11,81z"/>
	</g>
	<g>
		<polygon class="st3" points="5.4,122.3 5.4,122.3 0,144.2 0,144.4 5.4,122.5 19.3,134.9 0.2,155.6 0.3,155.6 19.4,134.9 
			19.4,134.9 		"/>
	</g>
	<g>
		<path class="st3" d="M19.4,135.1L19.4,135.1L5.3,122.3l18.9-11.8v0.2L19.4,135.1z M5.5,122.3l13.8,12.6l4.7-24.3L5.5,122.3z"/>
	</g>
	<g>
		<path class="st3" d="M5.4,122.5L5.4,122.5L11,80.8V81l13.2,29.5h-0.1L5.4,122.5z M11,81.2l-5.5,41.2L24,110.5L11,81.2z"/>
	</g>
	<g>
		<g>
			<polygon class="st3" points="120,12.9 107.7,29.6 66.6,32.3 120,4.8 120,4.8 66.3,32.3 66.3,32.4 107.7,29.6 107.8,29.6 
				120,13.1 			"/>
		</g>
		<g>
			<polygon class="st3" points="120,53.3 107.8,29.6 120,13.1 120,12.9 107.7,29.6 107.7,29.6 120,53.5 			"/>
		</g>
		<g>
			<path class="st3" d="M87.3,42L87.3,42l-21-9.6v-0.2l41.5-2.8v0.2L87.3,42z M66.6,32.4l20.7,9.4l20.2-12.2L66.6,32.4z"/>
		</g>
		<g>
			<polygon class="st3" points="120,122.5 103.7,104.3 120,81.7 120,81.7 103.6,104.3 103.6,104.3 120,122.7 			"/>
		</g>
		<g>
			<polygon class="st3" points="120,69.9 93.8,69.5 107.7,29.8 120,53.5 120,53.3 107.8,29.6 107.7,29.4 93.7,69.5 93.7,69.5 			"/>
		</g>
		<g>
			<polygon class="st3" points="120,81.7 103.6,104.3 93.8,69.5 120,69.9 120,69.9 93.8,69.5 93.7,69.5 103.6,104.3 103.6,104.5 			
				"/>
		</g>
		<g>
			<polygon class="st3" points="120,130.4 109.5,155.6 109.6,155.6 120,130.8 			"/>
		</g>
		<g>
			<path class="st3" d="M93.7,69.7L93.7,69.7L87.2,42l20.6-12.4l-0.1,0.2L93.7,69.7z M87.3,42l6.4,27.3l13.9-39.5L87.3,42z"/>
		</g>
		<g>
			<polygon class="st3" points="120,122.7 120,122.5 103.7,104.3 103.6,104.3 109.1,155.6 109.2,155.6 103.7,104.5 			"/>
			<polygon class="st3" points="120,130.4 109.5,155.6 109.6,155.6 120,130.8 			"/>
		</g>
		<g>
			<polygon class="st3" points="107.5,155.6 86.8,147.2 103.6,104.5 109.1,155.6 109.2,155.6 103.7,104.3 103.7,104.1 86.7,147.2 
				86.7,147.4 107.1,155.6 			"/>
		</g>
		<g>
			<path class="st3" d="M103.7,104.5L103.7,104.5l-28.6-12h0.1l18.5-22.9l0,0L103.7,104.5z M75.3,92.3l28.2,12l-9.8-34.6L75.3,92.3z
				"/>
		</g>
		<g>
			<path class="st3" d="M86.7,147.4L86.7,147.4L75.2,92.3h0.1l28.4,12l0,0L86.7,147.4z M75.3,92.4l11.5,54.7l16.8-42.7L75.3,92.4z"
				/>
		</g>
		<g>
			<polygon class="st3" points="86.7,155.6 86.8,147.4 107.1,155.6 107.5,155.6 86.8,147.2 86.7,147.2 86.6,155.6 			"/>
		</g>
		<g>
			<path class="st3" d="M75.2,92.4l0.1-0.2l12.1-50.4l6.5,27.6l0,0L75.2,92.4z M87.3,42.2l-12,49.8l18.4-22.6L87.3,42.2z"/>
		</g>
		<g>
			<path class="st3" d="M75.2,92.4v-0.2l-9-60l21.1,9.6l0,0L75.2,92.4z M66.3,32.4l8.9,59.6l12-50L66.3,32.4z"/>
		</g>
		<g>
			<polygon class="st3" points="56.2,155.6 40.5,117.3 75.2,92.4 62.4,155.6 62.5,155.6 75.3,92.3 75.3,92.3 40.4,117.1 40.3,117.1 
				56.1,155.6 			"/>
		</g>
		<g>
			<path class="st3" d="M40.4,117.3L40.4,117.3l-1.5-58.9H39l36.5,33.9L40.4,117.3z M38.9,58.6l1.5,58.5l34.7-24.8L38.9,58.6z"/>
		</g>
		<g>
			<polygon class="st3" points="62.5,155.6 75.3,92.4 86.7,147.2 74.9,155.6 75.1,155.6 86.8,147.4 86.8,147.4 75.2,92.1 
				62.4,155.6 			"/>
		</g>
		<g>
			<polygon class="st3" points="75.1,155.6 86.7,147.4 86.6,155.6 86.7,155.6 86.8,147.2 86.8,147.2 74.9,155.6 			"/>
		</g>
		<g>
			<path class="st3" d="M40.4,117.5L40.4,117.5l-21-47.6h0.1l19.4-11.5l0,0L40.4,117.5z M19.6,70.1l20.8,47l-1.5-58.5L19.6,70.1z"/>
		</g>
		<g>
			<polygon class="st3" points="32.7,155.6 33.6,133.4 51.8,155.6 52,155.6 33.6,133.3 33.6,133.1 32.6,155.6 			"/>
		</g>
		<g>
			<polygon class="st3" points="52,155.6 33.7,133.3 40.4,117.3 56.1,155.6 56.2,155.6 40.4,117.1 33.6,133.3 33.6,133.3 
				51.8,155.6 			"/>
		</g>
		<g>
			<path class="st3" d="M33.6,133.4L33.6,133.4L19.5,70.1h0.1l20.9,47.4l0,0L33.6,133.4z M19.6,70.4l14,62.8l6.7-16L19.6,70.4z"/>
		</g>
		<g>
			<polygon class="st3" points="22,155.6 33.6,133.4 32.6,155.6 32.7,155.6 33.6,133.3 33.7,133.1 21.9,155.6 			"/>
		</g>
		<g>
			<polygon class="st3" points="0,149.8 0,150 33.5,133.4 21.9,155.6 22,155.6 33.6,133.3 33.7,133.1 			"/>
		</g>
		<g>
			<polygon class="st3" points="0,92.4 0,92.6 33.5,133.3 0,149.8 0,150 33.6,133.3 33.7,133.3 			"/>
		</g>
	</g>
	<g>
		<path class="st3" d="M107.6,145.5c0,0.4-0.2,0.8-0.4,0.8c-0.2,0-0.4-0.4-0.4-0.8c0-0.4,0.2-0.8,0.4-0.8
			C107.5,144.7,107.6,145.1,107.6,145.5z"/>
		<ellipse class="st3" cx="86.4" cy="111.3" rx="0.6" ry="1.1"/>
		<path class="st3" d="M108.1,145.5c0,0.8-0.3,1.5-0.8,1.5c-0.4,0-0.8-0.6-0.8-1.5c0-0.8,0.3-1.5,0.8-1.5
			C107.7,144,108.1,144.7,108.1,145.5z"/>
		<path class="st3" d="M108.1,145.5c0,0.8-0.4,1.5-0.8,1.5s-0.8-0.8-0.8-1.5s0.4-1.5,0.8-1.5C107.7,144,108.1,144.5,108.1,145.5z"/>
		<path class="st3" d="M94.9,134c0,0.6-0.3,1.1-0.6,1.1c-0.3,0-0.6-0.6-0.6-1.1c0-0.6,0.3-1.1,0.6-1.1S94.9,133.4,94.9,134z"/>
		<path class="st3" d="M86.8,111.3c0,0.4-0.2,0.8-0.4,0.8c-0.2,0-0.4-0.4-0.4-0.8s0.2-0.8,0.4-0.8C86.6,110.5,86.8,110.9,86.8,111.3
			z"/>
		<path class="st3" d="M91.1,153c0,0.4-0.1,0.6-0.3,0.6c-0.2,0-0.3-0.2-0.3-0.6c0-0.4,0.1-0.6,0.3-0.6C91,152.4,91.1,152.6,91.1,153
			z"/>
		<path class="st3" d="M107.9,145.5c0,0.6-0.3,1.1-0.6,1.1c-0.3,0-0.6-0.6-0.6-1.1c0-0.6,0.3-1.1,0.6-1.1S107.9,144.9,107.9,145.5z"
			/>
		<path class="st3" d="M91.9,153c0,1.1-0.5,2.1-1.1,2.1s-1.1-0.9-1.1-2.1s0.5-2.1,1.1-2.1S91.9,151.9,91.9,153z"/>
		<path class="st3" d="M108,145.5c0,0.8-0.3,1.5-0.8,1.5c-0.4,0-0.8-0.6-0.8-1.5c0-0.8,0.3-1.5,0.8-1.5
			C107.7,144,108,144.7,108,145.5z"/>
		<path class="st3" d="M91.4,153c0,0.6-0.3,1.1-0.6,1.1c-0.3,0-0.6-0.6-0.6-1.1c0-0.6,0.3-1.1,0.6-1.1S91.4,152.3,91.4,153z"/>
		<path class="st3" d="M95,134c0,0.8-0.3,1.3-0.7,1.3c-0.4,0-0.7-0.6-0.7-1.3c0-0.8,0.3-1.3,0.7-1.3S95,133.3,95,134z"/>
		<path class="st3" d="M77.4,148.3c0,1.1-0.5,2.1-1.1,2.1s-1.1-0.9-1.1-2.1s0.5-2.1,1.1-2.1S77.4,147.2,77.4,148.3z"/>
		<path class="st3" d="M91.5,153c0,0.8-0.3,1.3-0.7,1.3c-0.4,0-0.7-0.6-0.7-1.3c0-0.8,0.3-1.3,0.7-1.3S91.5,152.3,91.5,153z"/>
		<path class="st3" d="M76.9,148.3c0,0.6-0.3,1.1-0.6,1.1c-0.3,0-0.6-0.6-0.6-1.1c0-0.6,0.3-1.1,0.6-1.1S76.9,147.6,76.9,148.3z"/>
		<path class="st3" d="M91.7,153c0,0.9-0.4,1.7-0.9,1.7s-0.9-0.8-0.9-1.7c0-0.9,0.4-1.7,0.9-1.7C91.3,151.3,91.7,152.1,91.7,153z"/>
		<path class="st3" d="M76.9,148.3c0,0.8-0.3,1.3-0.7,1.3c-0.4,0-0.7-0.6-0.7-1.3c0-0.8,0.3-1.3,0.7-1.3S76.9,147.6,76.9,148.3z"/>
		<path class="st3" d="M94.5,134c0,0.2-0.1,0.4-0.2,0.4s-0.2-0.2-0.2-0.4c0-0.2,0.1-0.4,0.2-0.4C94.4,133.4,94.5,133.6,94.5,134z"/>
		<path class="st3" d="M94.6,134c0,0.4-0.1,0.6-0.3,0.6c-0.2,0-0.3-0.2-0.3-0.6c0-0.4,0.1-0.6,0.3-0.6S94.6,133.6,94.6,134z"/>
		<ellipse class="st3" cx="76.2" cy="148.3" rx="0.5" ry="0.9"/>
		<path class="st3" d="M86.8,111.3c0,0.6-0.2,0.9-0.5,0.9s-0.5-0.4-0.5-0.9s0.2-0.9,0.5-0.9S86.8,110.9,86.8,111.3z"/>
		<path class="st3" d="M76.7,148.3c0,0.6-0.2,0.9-0.5,0.9s-0.5-0.4-0.5-0.9s0.2-0.9,0.5-0.9S76.7,147.7,76.7,148.3z"/>
		<path class="st3" d="M53.5,130.6c0,0.4-0.2,0.6-0.3,0.6c-0.2,0-0.3-0.4-0.3-0.6s0.2-0.6,0.3-0.6C53.4,129.9,53.5,130.2,53.5,130.6
			z"/>
		<path class="st3" d="M76.6,148.3c0,0.4-0.2,0.8-0.4,0.8c-0.2,0-0.4-0.4-0.4-0.8s0.2-0.8,0.4-0.8S76.6,147.9,76.6,148.3z"/>
		<ellipse class="st3" cx="53.2" cy="130.6" rx="0.5" ry="0.9"/>
		<path class="st3" d="M67.1,100.5c0,0.4-0.2,0.8-0.4,0.8c-0.2,0-0.4-0.4-0.4-0.8s0.2-0.8,0.4-0.8S67.1,100.2,67.1,100.5z"/>
		<path class="st3" d="M76.6,148.3c0,0.4-0.2,0.6-0.3,0.6c-0.2,0-0.3-0.4-0.3-0.6c0-0.4,0.2-0.6,0.3-0.6
			C76.4,147.6,76.6,147.9,76.6,148.3z"/>
		<path class="st3" d="M67.5,100.5c0,0.9-0.4,1.7-0.9,1.7s-0.9-0.8-0.9-1.7s0.4-1.7,0.9-1.7S67.5,99.6,67.5,100.5z"/>
		<path class="st3" d="M53.5,130.6c0,0.4-0.1,0.6-0.3,0.6s-0.3-0.2-0.3-0.6s0.1-0.6,0.3-0.6C53.3,130.1,53.5,130.2,53.5,130.6z"/>
		<path class="st3" d="M54.7,89.6c0,0.4-0.1,0.6-0.3,0.6s-0.3-0.2-0.3-0.6c0-0.4,0.1-0.6,0.3-0.6C54.6,89.1,54.7,89.2,54.7,89.6z"/>
		<path class="st3" d="M46.8,132.7c0,0.9-0.4,1.5-0.8,1.5c-0.5,0-0.8-0.8-0.8-1.5c0-0.9,0.4-1.5,0.8-1.5
			C46.4,131,46.8,131.8,46.8,132.7z"/>
		<path class="st3" d="M47,132.7c0,1.1-0.4,1.9-1,1.9s-1-0.8-1-1.9s0.4-1.9,1-1.9C46.5,130.8,47,131.6,47,132.7z"/>
		<path class="st3" d="M53.8,130.6c0,0.6-0.3,1.1-0.6,1.1s-0.6-0.6-0.6-1.1s0.3-1.1,0.6-1.1S53.8,129.9,53.8,130.6z"/>
		<path class="st3" d="M53.6,130.6c0,0.4-0.2,0.8-0.4,0.8s-0.4-0.4-0.4-0.8s0.2-0.8,0.4-0.8S53.6,130.2,53.6,130.6z"/>
		<path class="st3" d="M46.7,132.7c0,0.8-0.3,1.3-0.7,1.3s-0.7-0.6-0.7-1.3c0-0.8,0.3-1.3,0.7-1.3C46.3,131.4,46.7,131.9,46.7,132.7
			z"/>
		<path class="st3" d="M55,89.6c0,0.6-0.3,1.1-0.6,1.1s-0.6-0.6-0.6-1.1c0-0.6,0.3-1.1,0.6-1.1C54.7,88.5,55,88.9,55,89.6z"/>
		<path class="st3" d="M46.9,132.7c0,0.9-0.4,1.7-0.9,1.7s-0.9-0.8-0.9-1.7s0.4-1.7,0.9-1.7S46.9,131.8,46.9,132.7z"/>
		<path class="st3" d="M20.1,134.9c0,0.8-0.3,1.5-0.8,1.5c-0.4,0-0.8-0.6-0.8-1.5c0-0.8,0.3-1.5,0.8-1.5
			C19.8,133.4,20.1,134.2,20.1,134.9z"/>
		<path class="st3" d="M46.5,132.7c0,0.6-0.2,0.9-0.5,0.9s-0.5-0.4-0.5-0.9s0.2-0.9,0.5-0.9C46.3,131.6,46.5,132.1,46.5,132.7z"/>
		<path class="st3" d="M19.7,134.9c0,0.4-0.2,0.8-0.4,0.8c-0.2,0-0.4-0.4-0.4-0.8c0-0.4,0.2-0.8,0.4-0.8
			C19.6,134.2,19.7,134.6,19.7,134.9z"/>
		<path class="st3" d="M24.4,110.5c0,0.4-0.1,0.6-0.3,0.6c-0.2,0-0.3-0.4-0.3-0.6c0-0.4,0.2-0.6,0.3-0.6
			C24.3,109.9,24.4,110.1,24.4,110.5z"/>
		<path class="st3" d="M47,132.7c0,1.1-0.5,1.9-1,1.9c-0.6,0-1-0.9-1-1.9c0-1.1,0.5-1.9,1-1.9C46.5,130.6,47,131.6,47,132.7z"/>
		<path class="st3" d="M24.3,110.5c0,0.2-0.1,0.4-0.2,0.4s-0.2-0.2-0.2-0.4s0.1-0.4,0.2-0.4C24.2,110.1,24.3,110.3,24.3,110.5z"/>
		<path class="st3" d="M38.5,74c0,0.4-0.2,0.8-0.4,0.8s-0.4-0.4-0.4-0.8c0-0.4,0.2-0.8,0.4-0.8C38.3,73.1,38.5,73.4,38.5,74z"/>
		<path class="st3" d="M32.4,155.6c-0.1-0.2-0.2-0.2-0.3-0.2s-0.2,0-0.4,0.2H32.4z"/>
		<path class="st3" d="M32.4,155.6c-0.1-0.2-0.2-0.2-0.3-0.2s-0.2,0-0.3,0.2H32.4z"/>
		<path class="st3" d="M20,134.9c0,0.8-0.3,1.1-0.6,1.1c-0.4,0-0.6-0.6-0.6-1.1c0-0.8,0.3-1.1,0.6-1.1S20,134.4,20,134.9z"/>
		<path class="st3" d="M19.7,134.9c0,0.4-0.1,0.6-0.3,0.6c-0.2,0-0.3-0.2-0.3-0.6c0-0.4,0.1-0.6,0.3-0.6
			C19.5,134.4,19.7,134.6,19.7,134.9z"/>
		<path class="st3" d="M38.7,74c0,0.6-0.3,1.1-0.6,1.1s-0.6-0.6-0.6-1.1s0.3-1.1,0.6-1.1S38.7,73.4,38.7,74z"/>
		<path class="st3" d="M24.6,110.5c0,0.6-0.2,0.9-0.5,0.9s-0.5-0.4-0.5-0.9s0.2-0.9,0.5-0.9S24.6,109.9,24.6,110.5z"/>
		<path class="st3" d="M16.6,67.4c0,0.4-0.2,0.8-0.4,0.8c-0.2,0-0.4-0.4-0.4-0.8s0.2-0.8,0.4-0.8C16.4,66.7,16.6,67.1,16.6,67.4z"/>
		<path class="st3" d="M24.4,110.5c0,0.4-0.2,0.6-0.3,0.6c-0.2,0-0.3-0.4-0.3-0.6c0-0.4,0.2-0.6,0.3-0.6
			C24.3,109.9,24.4,110.1,24.4,110.5z"/>
		<path class="st3" d="M11.6,81c0,0.6-0.3,1.1-0.6,1.1s-0.6-0.6-0.6-1.1s0.3-1.1,0.6-1.1S11.6,80.4,11.6,81z"/>
		<path class="st3" d="M16.6,67.4c0,0.6-0.2,0.9-0.5,0.9c-0.3,0-0.5-0.4-0.5-0.9s0.2-0.9,0.5-0.9C16.4,66.5,16.6,67.1,16.6,67.4z"/>
		<path class="st3" d="M19.8,134.9c0,0.4-0.2,0.8-0.4,0.8c-0.2,0-0.4-0.4-0.4-0.8c0-0.4,0.2-0.8,0.4-0.8
			C19.6,134.2,19.8,134.6,19.8,134.9z"/>
		<path class="st3" d="M6.2,122.3c0,0.8-0.4,1.5-0.8,1.5s-0.8-0.8-0.8-1.5c0-0.8,0.4-1.5,0.8-1.5S6.2,121.6,6.2,122.3z"/>
		<path class="st3" d="M20.1,134.9c0,0.8-0.3,1.3-0.7,1.3c-0.4,0-0.7-0.6-0.7-1.3c0-0.8,0.3-1.3,0.7-1.3
			C19.8,133.6,20.1,134.2,20.1,134.9z"/>
		<path class="st3" d="M6,122.3c0,0.6-0.2,0.9-0.5,0.9S5,122.9,5,122.3s0.2-0.9,0.5-0.9C5.7,121.4,6,121.8,6,122.3z"/>
		<path class="st3" d="M24.5,110.5c0,0.4-0.2,0.8-0.4,0.8s-0.4-0.4-0.4-0.8c0-0.4,0.2-0.8,0.4-0.8S24.5,110.1,24.5,110.5z"/>
		<ellipse class="st3" cx="24.1" cy="110.5" rx="0.6" ry="1.1"/>
		<path class="st3" d="M6.3,122.3c0,0.9-0.4,1.7-0.9,1.7s-0.9-0.8-0.9-1.7c0-0.9,0.4-1.7,0.9-1.7S6.3,121.4,6.3,122.3z"/>
		<path class="st3" d="M11.4,81c0,0.4-0.2,0.8-0.4,0.8s-0.4-0.4-0.4-0.8s0.2-0.8,0.4-0.8C11.2,80.2,11.4,80.6,11.4,81z"/>
		<path class="st3" d="M108.3,29.6c0,0.6-0.3,1.1-0.6,1.1c-0.3,0-0.6-0.6-0.6-1.1s0.3-1.1,0.6-1.1C108.1,28.5,108.3,29.1,108.3,29.6
			z"/>
		<ellipse class="st3" cx="66.3" cy="32.4" rx="0.6" ry="1.1"/>
		<path class="st3" d="M108.4,29.6c0,0.8-0.3,1.1-0.6,1.1c-0.4,0-0.6-0.6-0.6-1.1s0.3-1.1,0.6-1.1S108.4,28.9,108.4,29.6z"/>
		<path class="st3" d="M108.2,29.6c0,0.6-0.2,0.9-0.5,0.9s-0.5-0.4-0.5-0.9s0.2-0.9,0.5-0.9S108.2,29.1,108.2,29.6z"/>
		<path class="st3" d="M87.9,42c0,0.8-0.3,1.3-0.7,1.3c-0.4,0-0.7-0.6-0.7-1.3c0-0.8,0.3-1.3,0.7-1.3S87.9,41.3,87.9,42z"/>
		<path class="st3" d="M66.9,32.4c0,0.8-0.3,1.1-0.6,1.1c-0.4,0-0.6-0.6-0.6-1.1c0-0.8,0.3-1.1,0.6-1.1
			C66.6,31.1,66.9,31.7,66.9,32.4z"/>
		<path class="st3" d="M104.2,104.3c0,0.6-0.3,1.1-0.6,1.1c-0.3,0-0.6-0.6-0.6-1.1s0.3-1.1,0.6-1.1
			C104,103.4,104.2,103.7,104.2,104.3z"/>
		<path class="st3" d="M94,69.5c0,0.2-0.1,0.6-0.3,0.6c-0.1,0-0.3-0.2-0.3-0.6c0-0.2,0.1-0.6,0.3-0.6S94,69.1,94,69.5z"/>
		<ellipse class="st3" cx="107.7" cy="29.6" rx="0.6" ry="1.1"/>
		<path class="st3" d="M104.2,104.3c0,0.6-0.3,1.1-0.6,1.1c-0.3,0-0.6-0.6-0.6-1.1s0.3-1.1,0.6-1.1
			C104,103.2,104.2,103.7,104.2,104.3z"/>
		<path class="st3" d="M94.1,69.5c0,0.4-0.2,0.6-0.3,0.6c-0.2,0-0.3-0.4-0.3-0.6c0-0.4,0.2-0.6,0.3-0.6
			C93.9,68.7,94.1,69.1,94.1,69.5z"/>
		<path class="st3" d="M109.4,155.6c-0.1,0-0.1,0-0.2,0s-0.1,0-0.2,0H109.4z"/>
		<path class="st3" d="M108.5,29.6c0,0.8-0.3,1.5-0.8,1.5c-0.4,0-0.8-0.6-0.8-1.5c0-0.8,0.3-1.5,0.8-1.5S108.5,28.9,108.5,29.6z"/>
		<path class="st3" d="M94.7,69.5c0,0.9-0.4,1.9-1,1.9c-0.5,0-1-0.8-1-1.9c0-0.9,0.4-1.9,1-1.9C94.3,67.6,94.7,68.6,94.7,69.5z"/>
		<path class="st3" d="M87.5,42c0,0.2-0.1,0.4-0.2,0.4s-0.2-0.2-0.2-0.4c0-0.2,0.1-0.4,0.2-0.4C87.4,41.5,87.5,41.7,87.5,42z"/>
		<path class="st3" d="M104.2,104.3c0,0.6-0.3,1.1-0.6,1.1c-0.3,0-0.6-0.6-0.6-1.1s0.3-1.1,0.6-1.1
			C104,103.2,104.2,103.7,104.2,104.3z"/>
		<ellipse class="st3" cx="103.6" cy="104.3" rx="0.7" ry="1.3"/>
		<path class="st3" d="M109.7,155.6c-0.1-0.2-0.3-0.4-0.5-0.4s-0.3,0.2-0.5,0.4H109.7z"/>
		<path class="st3" d="M87,147.2c0,0.2-0.1,0.6-0.3,0.6c-0.2,0-0.3-0.2-0.3-0.6c0-0.2,0.1-0.6,0.3-0.6C86.9,146.8,87,147,87,147.2z"
			/>
		<path class="st3" d="M104.6,104.3c0,0.9-0.4,1.9-1,1.9c-0.5,0-1-0.8-1-1.9c0-0.9,0.4-1.9,1-1.9
			C104.2,102.6,104.6,103.4,104.6,104.3z"/>
		<path class="st3" d="M76.2,92.3c0,0.9-0.4,1.9-1,1.9c-0.5,0-1-0.8-1-1.9c0-0.9,0.4-1.9,1-1.9C75.8,90.6,76.2,91.3,76.2,92.3z"/>
		<path class="st3" d="M94.4,69.5c0,0.8-0.3,1.1-0.6,1.1c-0.4,0-0.6-0.6-0.6-1.1c0-0.8,0.3-1.1,0.6-1.1
			C94.1,68.4,94.4,68.7,94.4,69.5z"/>
		<path class="st3" d="M104.2,104.3c0,0.6-0.3,1.1-0.6,1.1c-0.3,0-0.6-0.6-0.6-1.1s0.3-1.1,0.6-1.1
			C104,103.2,104.2,103.7,104.2,104.3z"/>
		<path class="st3" d="M87.6,147.2c0,0.8-0.4,1.5-0.8,1.5s-0.8-0.8-0.8-1.5c0-0.8,0.4-1.5,0.8-1.5S87.6,146.4,87.6,147.2z"/>
		<path class="st3" d="M75.6,92.3c0,0.4-0.2,0.8-0.4,0.8c-0.2,0-0.4-0.4-0.4-0.8s0.2-0.8,0.4-0.8C75.4,91.7,75.6,91.9,75.6,92.3z"/>
		<path class="st3" d="M110.2,155.6c-0.2-0.8-0.6-1.3-1-1.3c-0.5,0-0.8,0.6-1,1.3H110.2z"/>
		<path class="st3" d="M87.5,147.2c0,0.8-0.3,1.3-0.7,1.3c-0.4,0-0.7-0.6-0.7-1.3c0-0.8,0.3-1.3,0.7-1.3S87.5,146.4,87.5,147.2z"/>
		<path class="st3" d="M94.4,69.5c0,0.6-0.3,1.1-0.6,1.1c-0.3,0-0.6-0.6-0.6-1.1s0.3-1.1,0.6-1.1C94.1,68.4,94.4,68.7,94.4,69.5z"/>
		<ellipse class="st3" cx="75.3" cy="92.3" rx="0.5" ry="0.9"/>
		<path class="st3" d="M87.7,42c0,0.4-0.2,0.8-0.4,0.8c-0.2,0-0.4-0.4-0.4-0.8s0.2-0.8,0.4-0.8S87.7,41.5,87.7,42z"/>
		<path class="st3" d="M87.5,42c0,0.2-0.1,0.4-0.2,0.4s-0.2-0.2-0.2-0.4c0-0.2,0.1-0.4,0.2-0.4S87.5,41.9,87.5,42z"/>
		<path class="st3" d="M76.1,92.3c0,0.9-0.4,1.5-0.8,1.5c-0.5,0-0.8-0.8-0.8-1.5c0-0.9,0.4-1.5,0.8-1.5S76.1,91.5,76.1,92.3z"/>
		<path class="st3" d="M67.1,32.4c0,0.9-0.4,1.5-0.8,1.5c-0.5,0-0.8-0.8-0.8-1.5c0-0.9,0.4-1.5,0.8-1.5
			C66.7,30.8,67.1,31.5,67.1,32.4z"/>
		<path class="st3" d="M75.6,92.3c0,0.4-0.2,0.8-0.4,0.8c-0.2,0-0.4-0.4-0.4-0.8s0.2-0.8,0.4-0.8C75.5,91.7,75.6,91.9,75.6,92.3z"/>
		<path class="st3" d="M40.9,117.3c0,0.6-0.2,0.9-0.5,0.9s-0.5-0.4-0.5-0.9s0.2-0.9,0.5-0.9C40.7,116.1,40.9,116.7,40.9,117.3z"/>
		<path class="st3" d="M76.1,92.3c0,0.9-0.4,1.7-0.9,1.7s-0.9-0.8-0.9-1.7s0.4-1.7,0.9-1.7C75.7,90.8,76.1,91.5,76.1,92.3z"/>
		<path class="st3" d="M40.7,117.3c0,0.2-0.1,0.6-0.3,0.6c-0.1,0-0.3-0.2-0.3-0.6c0-0.2,0.1-0.6,0.3-0.6
			C40.5,116.7,40.7,116.9,40.7,117.3z"/>
		<path class="st3" d="M39.5,58.4c0,0.8-0.3,1.3-0.7,1.3s-0.7-0.6-0.7-1.3c0-0.8,0.3-1.3,0.7-1.3C39.2,57.3,39.5,57.8,39.5,58.4z"/>
		<path class="st3" d="M87.9,147.2c0,1.1-0.5,2.3-1.2,2.3c-0.6,0-1.2-0.9-1.2-2.3c0-1.1,0.5-2.3,1.2-2.3
			C87.4,145.1,87.9,146,87.9,147.2z"/>
		<path class="st3" d="M75.9,92.3c0,0.6-0.3,1.1-0.6,1.1c-0.3,0-0.6-0.6-0.6-1.1s0.3-1.1,0.6-1.1S75.9,91.7,75.9,92.3z"/>
		<path class="st3" d="M87.2,147.2c0,0.6-0.2,0.9-0.5,0.9s-0.5-0.4-0.5-0.9s0.2-0.9,0.5-0.9C87,146.4,87.2,146.8,87.2,147.2z"/>
		<path class="st3" d="M39.5,58.4c0,0.6-0.3,1.1-0.6,1.1s-0.6-0.6-0.6-1.1s0.3-1.1,0.6-1.1S39.5,57.8,39.5,58.4z"/>
		<path class="st3" d="M40.6,117.3c0,0.2-0.1,0.4-0.2,0.4c-0.1,0-0.2-0.2-0.2-0.4c0-0.2,0.1-0.4,0.2-0.4
			C40.5,116.7,40.6,116.9,40.6,117.3z"/>
		<ellipse class="st3" cx="19.5" cy="69.9" rx="0.4" ry="0.8"/>
		<path class="st3" d="M34.2,133.3c0,0.6-0.2,1.1-0.6,1.1c-0.3,0-0.6-0.4-0.6-1.1c0-0.6,0.2-1.1,0.6-1.1
			C33.9,132.1,34.2,132.7,34.2,133.3z"/>
		<path class="st3" d="M34.1,133.3c0,0.4-0.2,0.9-0.5,0.9c-0.2,0-0.5-0.4-0.5-0.9s0.2-0.9,0.5-0.9C33.9,132.3,34.1,132.9,34.1,133.3
			z"/>
		<path class="st3" d="M41.4,117.3c0,0.9-0.4,1.9-1,1.9c-0.5,0-1-0.8-1-1.9c0-0.9,0.4-1.9,1-1.9C40.9,115.4,41.4,116.1,41.4,117.3z"
			/>
		<path class="st3" d="M41.3,117.3c0,0.9-0.4,1.7-0.9,1.7s-0.9-0.8-0.9-1.7c0-0.9,0.4-1.7,0.9-1.7C40.9,115.6,41.3,116.3,41.3,117.3
			z"/>
		<path class="st3" d="M33.9,133.3c0,0.4-0.1,0.6-0.3,0.6s-0.3-0.2-0.3-0.6c0-0.4,0.1-0.6,0.3-0.6C33.8,132.7,33.9,132.9,33.9,133.3
			z"/>
		<path class="st3" d="M20.2,69.9c0,0.8-0.3,1.3-0.7,1.3c-0.4,0-0.7-0.6-0.7-1.3s0.3-1.3,0.7-1.3C19.9,68.7,20.2,69.3,20.2,69.9z"/>
		<path class="st3" d="M34,133.3c0,0.4-0.2,0.8-0.4,0.8s-0.4-0.4-0.4-0.8c0-0.4,0.2-0.8,0.4-0.8S34,132.9,34,133.3z"/>
		<path class="st3" d="M34,133.3c0,0.4-0.2,0.8-0.4,0.8s-0.4-0.4-0.4-0.8c0-0.4,0.2-0.8,0.4-0.8S34,132.9,34,133.3z"/>
		<path class="st3" d="M34.2,133.3c0,0.6-0.3,1.1-0.6,1.1s-0.6-0.6-0.6-1.1c0-0.6,0.3-1.1,0.6-1.1S34.2,132.7,34.2,133.3z"/>
	</g>
</g>
<radialGradient id="SVGID_2_" cx="50.8899" cy="38.0831" r="7.6148" gradientTransform="matrix(1.0042 0 0 -1.0043 3.1964 88.0843)" gradientUnits="userSpaceOnUse">
	<stop  offset="0" style="stop-color:#737175"/>
	<stop  offset="2.057898e-02" style="stop-color:#6D6B6E"/>
	<stop  offset="0.1414" style="stop-color:#4B4A4D"/>
	<stop  offset="0.2709" style="stop-color:#302F31"/>
	<stop  offset="0.4097" style="stop-color:#1B1A1B"/>
	<stop  offset="0.5626" style="stop-color:#0C0B0C"/>
	<stop  offset="0.7401" style="stop-color:#030303"/>
	<stop  offset="1" style="stop-color:#000000"/>
</radialGradient>
<path class="st4" d="M61.9,49.8c0,4.2-3.4,7.6-7.6,7.6s-7.6-3.4-7.6-7.6s3.4-7.6,7.6-7.6S61.9,45.6,61.9,49.8z"/>
<radialGradient id="SVGID_3_" cx="71.5033" cy="36.5535" r="7.6119" gradientTransform="matrix(1.0042 0 0 -1.0043 3.1964 88.0843)" gradientUnits="userSpaceOnUse">
	<stop  offset="0" style="stop-color:#27AAE1"/>
	<stop  offset="5.624801e-02" style="stop-color:#2398C9"/>
	<stop  offset="0.1917" style="stop-color:#1A7094"/>
	<stop  offset="0.3291" style="stop-color:#124E67"/>
	<stop  offset="0.4658" style="stop-color:#0B3242"/>
	<stop  offset="0.6016" style="stop-color:#061C25"/>
	<stop  offset="0.7365" style="stop-color:#030C10"/>
	<stop  offset="0.8698" style="stop-color:#010304"/>
	<stop  offset="1" style="stop-color:#000000"/>
</radialGradient>
<path class="st5" d="M82.6,51.4c0,4.2-3.4,7.6-7.6,7.6s-7.6-3.4-7.6-7.6s3.4-7.6,7.6-7.6C79.2,43.7,82.6,47.2,82.6,51.4z"/>
<radialGradient id="SVGID_4_" cx="20.7506" cy="26.9284" r="7.6146" gradientTransform="matrix(1.0042 0 0 -1.0043 3.1964 88.0843)" gradientUnits="userSpaceOnUse">
	<stop  offset="0" style="stop-color:#27AAE1"/>
	<stop  offset="5.624801e-02" style="stop-color:#2398C9"/>
	<stop  offset="0.1917" style="stop-color:#1A7094"/>
	<stop  offset="0.3291" style="stop-color:#124E67"/>
	<stop  offset="0.4658" style="stop-color:#0B3242"/>
	<stop  offset="0.6016" style="stop-color:#061C25"/>
	<stop  offset="0.7365" style="stop-color:#030C10"/>
	<stop  offset="0.8698" style="stop-color:#010304"/>
	<stop  offset="1" style="stop-color:#000000"/>
</radialGradient>
<circle class="st6" cx="24" cy="61" r="7.6"/>
<radialGradient id="SVGID_5_" cx="12.8789" cy="49.7206" r="7.6144" gradientTransform="matrix(1.0042 0 0 -1.0043 3.1964 88.0843)" gradientUnits="userSpaceOnUse">
	<stop  offset="0" style="stop-color:#27AAE1"/>
	<stop  offset="1.035118e-02" style="stop-color:#25A3D8"/>
	<stop  offset="6.934983e-02" style="stop-color:#1E81AB"/>
	<stop  offset="0.1341" style="stop-color:#176382"/>
	<stop  offset="0.2033" style="stop-color:#10485F"/>
	<stop  offset="0.2782" style="stop-color:#0B3141"/>
	<stop  offset="0.3606" style="stop-color:#071F29"/>
	<stop  offset="0.4536" style="stop-color:#041117"/>
	<stop  offset="0.5632" style="stop-color:#02070A"/>
	<stop  offset="0.7054" style="stop-color:#000202"/>
	<stop  offset="1" style="stop-color:#000000"/>
</radialGradient>
<circle class="st7" cx="16.1" cy="38.1" r="7.6"/>
</svg>
