
<?xml version="1.0" encoding="utf-8"?>

<svg enable-background="new 0 0 1080 1080" version="1.1" viewBox="0 0 1080 1080" xml:space="preserve">
<style type="text/css">
	.st0{display:none;fill:#2F1456;}
	.st1{display:none;}
	.st2{display:inline;fill:#F7931E;}
	.st3{display:inline;fill:#FFFFFF;}
	.st4{font-family:'MyriadPro-Regular';}
	.st5{font-size:57px;}
	.st6{letter-spacing:11.2;}
	.st7{clip-path:url(#af);}
	.st8{fill:#1D0C2B;}
	.st9{fill:#BC982F;}
	.st10{fill:#FFCC03;}
	.st11{fill:#7C3618;}
	.st12{fill:#1E3E49;}
	.st13{fill:#305768;}
	.st14{fill:#F7B794;}
	.st15{fill:#BC8264;}
	.st16{fill:#1D676D;}
	.st17{fill:#F15A29;}
	.st18{fill:#FFF200;}
	.st19{fill:#104849;}
	.st20{fill:url(#e);}
	.st21{fill:url(#d);}
	.st22{fill:#F9ED32;}
	.st23{fill:#FCCA65;}
	.st24{fill:#B22676;}
	.st25{fill:#CE7751;}
	.st26{fill:#F7941E;}
	.st27{fill:url(#c);}
	.st28{fill:url(#b);}
	.st29{fill:#301309;}
	.st30{fill:url(#a);}
	.st31{fill:#FFFFFF;}
	.st32{font-family:'TimesNewRomanPSMT';}
	.st33{font-size:179px;}
	.st34{letter-spacing:35;}
	.st35{clip-path:url(#k);}
	.st36{fill:#FFC200;stroke:#FCEE21;stroke-width:0.25;stroke-miterlimit:10;}
	.st37{display:none;fill:none;stroke:#333333;stroke-width:0.5;stroke-miterlimit:10;}
	.st38{fill:#42FFFF;}
	.st39{fill:#909090;}
	.st40{fill:#787878;}
	.st41{fill:#B8B8B8;}
	.st42{fill:url(#j);}
	.st43{fill:url(#i);}
	.st44{fill:url(#h);}
	.st45{fill:url(#g);}
	.st46{fill:url(#f);}
	.st47{fill:url(#ba);}
	.st48{fill:url(#az);}
	.st49{fill:url(#ay);}
	.st50{fill:url(#ax);}
	.st51{fill:url(#aw);}
	.st52{fill:url(#av);}
	.st53{fill:url(#au);}
	.st54{fill:url(#at);}
	.st55{fill:url(#as);}
	.st56{fill:url(#ar);}
	.st57{fill:url(#ap);}
	.st58{fill:url(#ao);}
	.st59{fill:url(#an);}
	.st60{fill:url(#am);}
	.st61{fill:url(#al);}
	.st62{fill:url(#ak);}
	.st63{fill:url(#aj);}
	.st64{fill:#5E5E5E;}
	.st65{fill:url(#ai);}
	.st66{fill:url(#ah);}
	.st67{fill:url(#ag);}
	.st68{fill:url(#ae);}
	.st69{fill:url(#ad);}
	.st70{fill:url(#ac);}
	.st71{fill:url(#ab);}
	.st72{fill:url(#aa);}
	.st73{fill:url(#z);}
	.st74{fill:url(#y);}
	.st75{fill:url(#x);}
	.st76{fill:url(#w);}
	.st77{fill:url(#v);}
	.st78{fill:url(#t);}
	.st79{fill:url(#s);}
	.st80{fill:url(#r);}
	.st81{fill:url(#q);}
	.st82{fill:url(#p);}
	.st83{fill:url(#o);}
	.st84{fill:url(#n);}
	.st85{fill:url(#m);}
	.st86{fill:url(#l);}
	.st87{fill:#3061B4;stroke:#231F20;stroke-width:0.1885;}
	.st88{fill:#B3B3B3;}
	.st89{fill:#FFF100;}
	.st90{fill:#2B388F;}
</style>
<rect class="st0" x="100" y="174" width="940" height="674"/>
<g class="st1">
	<path class="st2" d="m900.3 585h-210.6c-2.6 0-4.7-2.1-4.7-4.7v-64.6c0-2.6 2.1-4.7 4.7-4.7h210.6c2.6 0 4.7 2.1 4.7 4.7v64.6c0 2.6-2.1 4.7-4.7 4.7z"/>
	<text class="st3 st4 st5 st6" transform="matrix(1.2544 0 0 1 707.38 567.08)">IEEE</text>
</g>
	<defs>
		<rect id="aq" x="215" y="226" width="815" height="496"/>
	</defs>
	<clipPath id="af">
		<use xlink:href="#aq"/>
	</clipPath>
	<g class="st7">
				<polyline class="st8" points="354 626 318 632 351 648 401 642 357 629"/>
				<polyline class="st8" points="273.6 623 215 629 268.7 645 350 639 278.4 626"/>
			<path class="st9" d="m319.8 474.6c-1.5 0-2.7-1.4-2.7-3.2 0-1.7 1.2-3.2 2.7-3.2h28.9c1.5 0 2.7 1.4 2.7 3.2 0 1.7-1.2 3.2-2.7 3.2h-28.9z"/>
			<path class="st9" d="m327.1 501.3c-1.5 0-2.7-1.4-2.7-3.2 0-1.7 1.2-3.2 2.7-3.2h30.2c1.5 0 2.7 1.4 2.7 3.2 0 1.7-1.2 3.2-2.7 3.2h-30.2z"/>
			<path class="st9" d="m331.9 528c-1.5 0-2.7-1.4-2.7-3.2s1.2-3.2 2.7-3.2h31.5c1.5 0 2.7 1.4 2.7 3.2s-1.2 3.2-2.7 3.2h-31.5z"/>
			<path class="st9" d="m337.7 554.7c-1.5 0-2.7-1.4-2.7-3.2 0-1.7 1.2-3.2 2.7-3.2h31.9c1.5 0 2.7 1.4 2.7 3.2 0 1.7-1.2 3.2-2.7 3.2h-31.9z"/>
			<path class="st9" d="m343.8 581.4c-1.5 0-2.7-1.4-2.7-3.2 0-1.7 1.2-3.2 2.7-3.2h34.1c1.5 0 2.7 1.4 2.7 3.2 0 1.7-1.2 3.2-2.7 3.2h-34.1z"/>
			<path class="st9" d="m349.4 608.1c-1.5 0-2.7-1.4-2.7-3.2 0-1.7 1.2-3.2 2.7-3.2h35.8c1.5 0 2.7 1.4 2.7 3.2 0 1.7-1.2 3.2-2.7 3.2h-35.8z"/>
			<path class="st9" d="m310.2 443.1c0.8-2.4 3.1-3.7 5.2-2.8s3.1 3.7 2.3 6.1l-57.7 178.9c-0.8 2.5-3.1 3.7-5.2 2.8s-3.1-3.7-2.3-6.1l57.7-178.9z"/>
			<path class="st9" d="m310.1 445.9c-0.6-2.5 0.7-5.1 2.9-5.8 2.1-0.7 4.3 0.9 4.9 3.4l39.9 179.7c0.6 2.5-0.7 5.1-2.9 5.8-2.1 0.7-4.3-0.9-4.9-3.4l-39.9-179.7z"/>
			<path class="st10" d="m337.7 446.2c-0.7-2.5 0.5-5.2 2.6-6s4.4 0.6 5.1 3.1l52.4 192.5c0.7 2.5-0.5 5.2-2.6 6s-4.4-0.6-5.1-3.1l-52.4-192.5z"/>
			<path class="st9" d="m341.5 441.6c1.5 0 2.7 1.4 2.7 3.2 0 1.7-1.2 3.2-2.7 3.2h-27.5c-1.5 0-2.7-1.4-2.7-3.2 0-1.7 1.2-3.2 2.7-3.2h27.5z"/>
			<path class="st9" d="m334.3 468.3c1.5 0 2.7 1.4 2.7 3.2 0 1.7-1.2 3.2-2.7 3.2h-28.9c-1.5 0-2.7-1.4-2.7-3.2 0-1.7 1.2-3.2 2.7-3.2h28.9z"/>
			<path class="st9" d="m327 495c1.5 0 2.7 1.4 2.7 3.2 0 1.7-1.2 3.2-2.7 3.2h-30.2c-1.5 0-2.7-1.4-2.7-3.2 0-1.7 1.2-3.2 2.7-3.2h30.2z"/>
			<path class="st9" d="m319.7 521.7c1.5 0 2.7 1.4 2.7 3.2s-1.2 3.2-2.7 3.2h-31.5c-1.5 0-2.7-1.4-2.7-3.2s1.2-3.2 2.7-3.2h31.5z"/>
			<path class="st9" d="m312.4 548.4c1.5 0 2.7 1.4 2.7 3.2 0 1.7-1.2 3.2-2.7 3.2h-33.1c-1.5 0-2.7-1.4-2.7-3.2 0-1.7 1.2-3.2 2.7-3.2h33.1z"/>
			<path class="st9" d="m305.2 575.1c1.5 0 2.7 1.4 2.7 3.2 0 1.7-1.2 3.2-2.7 3.2h-34.1c-1.5 0-2.7-1.4-2.7-3.2 0-1.7 1.2-3.2 2.7-3.2h34.1z"/>
			<path class="st9" d="m297.9 601.8c1.5 0 2.7 1.4 2.7 3.2 0 1.7-1.2 3.2-2.7 3.2h-35.1c-1.5 0-2.7-1.4-2.7-3.2 0-1.7 1.2-3.2 2.7-3.2h35.1z"/>
			<path class="st10" d="m337.7 443.3c0.7-2.5 2.9-3.9 5.1-3.1 2.1 0.8 3.3 3.5 2.6 6l-52.4 192.5c-0.7 2.5-2.9 3.9-5.1 3.1-2.1-0.8-3.3-3.5-2.6-6l52.4-192.5z"/>
		<ellipse class="st8" cx="789.5" cy="697" rx="54.5" ry="10"/>
		<ellipse class="st8" cx="930" cy="691.5" rx="62" ry="12.5"/>
			<path class="st11" d="m774.1 682.2-1.2 4.2c2.4 1.2 5.9-0.2 8.4 0.9 1.3 0.6 2.3 1.8 3.6 2.3 0.8 0.3 1.8 0.4 2.2 1.1 0.2 0.2 0.2 0.6 0 0.8s-0.4 0.2-0.7 0.2c-1.4 0.1-2.9 0.1-4.3 0.1s-2.8 0-4.2-0.5c-0.9-0.3-1.7-0.9-2.6-1.3-1.4-0.6-2.9-0.9-4.5-1-0.7 0-1.3 0-1.9-0.3s-1-1-0.7-1.5c0.1-0.3 0.4-0.4 0.7-0.6 1.4-1.2 1.4-3.3 2.4-4.8 0.3-0.5 0.8-0.9 1.4-0.9 0.6-0.1 1.3 0.4 1.2 1 0.1 0 0 0.2 0.2 0.3 0.1 0 0.1-0.1 0 0z"/>
			<path class="st11" d="m818.9 689.9c0.6 1.5 1.2 2.9 2 4.2 4.6 1.9 10.7 0.5 15.1 2.8 0.6 0.3 1.1 0.7 1.1 1.3-3.4 1.7-7.4 2.2-11.1 1.4-1.7-0.4-3.4-1-5.2-0.8-0.7 0.1-1.4 0.3-2.1 0.3s-1.5-0.3-1.7-1c-0.2-0.5 0.1-1.1 0.2-1.7 0.8-2.8-1.4-5.5-1.8-8.3 0-0.3 0-0.6 0.1-0.8 0.4-0.7 1.6-0.5 2.1 0.1 0.6 0.7 1 1.7 1.3 2.5z"/>
			<path class="st12" d="m806.6 653.1c-5 7.8-11.4 14.7-18.9 20.5-4.3 3.3-8.9 6.2-12.1 10.4-1.8-0.1-3.8-0.1-5.5-0.5 4.2-9.7 10.2-18.7 17.8-26.4 3.1-7.8 4.4-13 6.9-19.2 1.3-3 2.7-6.1 5.4-8.3 2.7 1.8 3.7 5.6 4.8 8.5 1.7 4.5 4.3 10.9 1.6 15z"/>
			<path class="st13" d="m813.8 622.7c1.1 14.2 1.5 28.5 1.2 42.7-0.2 9 4.3 17.1 6 25.9-1.7 0-3.5 0.1-5.2 0.3-2.5-4.3-4.7-8.8-7.1-13-1.5-2.6-3-5.3-4-8.1-1.3-4-1.4-8.3-1.5-12.5-7.6-10.2-12.6-21.8-15.6-33.9 5.2-2.7 11.3-2.9 17.3-3 2.6 0 8.7-0.8 8.9 1.6z"/>
				<path class="st12" d="m811.1 655.1c-2 0.5-4 0.7-6 0.8 1.9 1.8 3.6 3 5.9 4.3-1.1 0.5-2.4 0.3-3.4-0.3 2.2 2.9 4.2 6 5.9 9.2 0.3 4 1.2 6.9 2.4 10.1 1.6 4.1 3.2 8.2 4.9 12.2h0.1c-1.7-8.8-6.2-17-6-25.9 0.3-14.2 0-28.5-1.2-42.7-0.2-2.4-6.3-1.7-9-1.6-5.4 0.1-10.9 0.3-15.8 2.3 6.3 5.7 14.9 12.9 21.3 16.4 0.6 5 0.5 10.2 0.9 15.2z"/>
			<path class="st14" d="m808 567.5c6.9-2.5 12.4-7.6 16.4-13.3 4-5.8 6.5-12.2 8.8-18.7 1.6-4.6 3-9.5 4.4-14.2-0.6-1-1.5-1.5-2.4-2.3-2.3 6-7.2 10.9-12.3 15.3-5.6 4.8-11.5 9.2-17.8 13.3-2.6 1.7-3.3 5-3.2 7.9s1.2 5.8 2.7 8.3c0.9 1.2 2.1 2.8 3.4 3.7z"/>
			<path class="st11" d="m791 626.3c7.9 5.8 16.3 11.1 25 15.8 0-2 0-4-0.1-6-5.9-4.1-12-9.1-17.8-13.2-0.2-0.1-0.4-0.3-0.7-0.3-0.2 0-0.5 0.1-0.7 0.2-2.1 0.7-3.7 2.6-5.7 3.5z"/>
			<path class="st15" d="m791 626.3s0.4 0.2 1.1 0.7c0.7 0.4 1.6 1.1 2.8 1.8 1.2 0.8 2.5 1.6 4 2.6 1.5 0.9 3 1.9 4.6 2.9s3.1 2 4.6 2.9 2.9 1.7 4 2.5c1.2 0.7 2.2 1.3 2.9 1.7s1.1 0.7 1.1 0.7-0.4-0.2-1.2-0.5c-0.4-0.2-0.8-0.4-1.3-0.6s-1.1-0.5-1.7-0.9c-1.2-0.6-2.7-1.4-4.2-2.3-0.8-0.4-1.5-0.9-2.3-1.4s-1.6-1-2.4-1.4c-0.8-0.5-1.6-1-2.3-1.5-0.8-0.5-1.5-1-2.2-1.5-1.4-1-2.7-1.9-3.8-2.8-0.6-0.4-1.1-0.8-1.5-1.1s-0.8-0.7-1.1-0.9c-0.8-0.6-1.1-0.9-1.1-0.9z"/>
				<path class="st16" d="m811.3 543.3c-2 1.4-4.1 2.8-6.2 4.2-2.6 1.7-3.3 5-3.2 7.9s1.2 5.8 2.7 8.3c0.8 1.3 1.9 3 3.3 3.9 5.3-2 9.9-5.5 13.5-9.6-2.8-3-5-6.4-7.2-9.8-0.9-1.7-1.9-3.3-2.9-4.9z"/>
			<path class="st17" d="m822.1 626.1c-1.3-2.9-1.2-6.1-1.1-9.3 0.2-10.4 0-20.9-2.2-31.1s-6.6-20.2-14-28c-1.1-1.2-2.3-2.3-3.4-3.4-2.8-0.7-6.3-1.4-9.2-1.4-7.1 5.5-13.2 13.3-13.5 21.9-0.2 5.5 1.7 10.9 3.1 16.3 3 11.4 3.6 23.2 4.2 34.9 11.8 1.6 24.3 1.8 36.1 0.1z"/>
				<path class="st18" d="m809.9 607.1c-6.9 2-13.8 4-20.7 5.9-1.3 0.4-2.6 0.7-3.9 1.1 0.2 2 0.3 4 0.4 6.1 9.1-0.8 18.1-2.9 26.5-6.2-0.7-2.2-1.9-4.6-2.3-6.9z"/>
			<path class="st19" d="m782.4 571.4c1-0.7 2.5-0.7 3.8-0.4 5.7 1 10.9 4.4 13.9 9.1s3.6 10.5 1.8 15.6c-0.7 2-1.8 3.9-3.5 5.3s-4.1 2.1-6.3 1.7c-1-0.2-2-0.7-2.8-1.3-2.3-1.6-4-3.9-5.1-6.4-1.9-4.3-2.3-9-3.2-13.5-0.6-2.8-1.3-8.2 1.4-10.1z"/>
				<path class="st18" d="m785.4 568.8c1.4 0.1 2.8 0.7 4.1 1.2 4.3 1.8 8.3 4.2 11.8 7.1 0.8-1 1.9-2.5 2.7-3.5-3.7-3.2-7.6-6.3-12.3-8-3.1-1.1-6.6-1.6-9.9-1.2-1.1 1.8-1.9 3.7-2.4 5.7 1.9-0.9 3.9-1.5 6-1.3z"/>
				<path class="st18" d="m811.1 566.2c-1.8-3-3.9-5.8-6.4-8.4-1.1-1.2-2.3-2.3-3.4-3.4-0.5-0.1-0.9-0.2-1.4-0.3 3.7 4.2 6.2 9.3 8.6 14.2 0.9-0.7 1.7-1.4 2.6-2.1z"/>
				<path class="st18" d="m817.3 580.1c-10.7 7-22.1 13.2-33.9 18.6 0.6 3.2 1 6.4 1.3 9.7 12.6-4.2 24.5-10.4 34.9-18.2-0.2-1.5-0.5-2.9-0.8-4.3-0.5-2-0.9-3.9-1.5-5.8z"/>
			<path class="st14" d="m795.6 553.7c1.8 0.9 2.9 2.6 3.9 4.2 2.7 4.6 4.8 9.4 6.4 14.4-6.7-3-11.8-8.2-16.8-13.3-0.4-2.6-1.1-5.1-2-7.5 2.5 0 6.1 1.1 8.5 2.2z"/>
			<linearGradient id="e" x1="786.97" x2="801.54" y1="556.68" y2="556.68" gradientUnits="userSpaceOnUse">
				<stop stop-color="#F7B794" offset="0"/>
				<stop stop-color="#E97695" offset="1"/>
			</linearGradient>
			<path class="st20" d="m799.4 557.9c-1-1.6-2.1-3.3-3.9-4.2-2.3-1.1-5.9-2.2-8.6-2.1 0.6 1.5 1.1 3.1 1.5 4.7 3.8 2.6 8.4 4.7 13.1 5.5-0.6-1.3-1.3-2.6-2.1-3.9z"/>
			<path class="st14" d="m808.6 546.7c1.9 1.1 4.1 2.4 4 4.4 0 0.7-0.3 1.4-0.7 2-1.2 1.7-3.2 2.9-5.3 3.6s-4.4 0.9-6.6 0.9c-2.6 0.1-5.2 0-7.6-0.9-1.7-0.7-3.2-1.8-4.6-2.9-5.2-3.9-10.5-8-13.2-13.7-0.2-0.4-0.4-0.9-0.2-1.3 0.1-0.4 0.5-0.6 0.9-0.8 3.6-2.2 7.4-4.4 11.6-5.2 4.4-0.9 9.9-0.1 11.9 4 2.1 4.3 5.6 7.4 9.8 9.9z"/>
			<path class="st11" d="m787.1 545.8c-0.1 0.4-0.3 0.9-0.4 1.3-0.2 1.7 1.5 3.1 1.6 4.8-2-1.8-4.9-2.4-7.3-3.7-2.6-1.3-4.9-3.2-6.3-5.6s-1.9-5.3-1.1-7.9c0.2-0.7 4.8 0.4 5.3 0.6 1.8 0.6 3.4 1.7 4.7 3 1.8 1.6 4 5.2 3.5 7.5z"/>
			<linearGradient id="d" x1="815.15" x2="796.42" y1="548.26" y2="540.23" gradientUnits="userSpaceOnUse">
				<stop stop-color="#E97695" offset="0"/>
				<stop stop-color="#F7B794" offset="1"/>
			</linearGradient>
			<path class="st21" d="m806.3 540.8c1.3 0.2 2.7 0.3 4 0.8 0.2 0.1 0.5 0.2 0.7 0.4s0.3 0.6 0.3 0.9c0.1 0.9-0.5 1.7-1.3 2.3-0.8 0.5-1.8 0.7-2.7 0.8-1.2 0.1-2.4 0.1-3.6 0-2.8-0.1-5.9-0.3-8.1-2-0.5-0.4-0.9-0.9-1.2-1.5-0.9-2.3 1.9-4.6 4.3-4.5 2.5 0.3 5 2.4 7.6 2.8z"/>
			<path class="st22" d="m800.5 532.1 6.5 1s-7.8 13.4-28.4 8.6l13.5-9.6h8.4z"/>
			<path class="st22" d="m774.7 541.5c9.4 1.4 19.1-3.2 25.8-9.4-1.6-4.8-5.7-8.9-10.8-10.4s-11.2-0.5-15.2 2.9c-1.2 1.1-2.3 2.4-2.9 3.9-1.7 4.2 0.2 8.8 2.2 12.8l0.9 0.2z"/>
				<path class="st23" d="m792.3 526.7c-3.6-2.8-9.3-2.8-12.9 0 0.9 0.8 1.1 2.1 0.7 3.2s-1.2 2-2.1 2.8c-1.1 1-2.9 1.8-4.1 0.9-1.1-0.7-1-2.2-0.8-3.4-1.3 2.2-1.2 4.9-0.3 7.2 0.5 1.5 1.4 2.8 2.3 4.1 7.9 1 15.9-2.1 22.2-6.8-0.2-0.5-0.3-0.9-0.5-1.4-1-2.4-2.3-4.9-4.5-6.6z"/>
			<path class="st14" d="m776.3 544.6c-0.1 0-0.3 0-0.4 0.1l-0.2 0.2c-0.4 0.9-0.1 1.9 0.6 2.7 0.6 0.8 1.5 1.3 2.3 1.9 2.6 1.6 5.5 3 8.5 2.7-1.3-1.6-3.4-3.6-4-4.5-1.5-2.5-3.7-3-6.8-3.1z"/>
			<path class="st24" d="m800.5 552.3c0.5-0.4 0.9-0.9 1.3-1.4 1-1.2 2.2-2.3 3.6-3.2 0.3-0.2 1.4-0.8 1-1.2-0.3-0.3-1.2 0.2-1.5 0.3-1.5 0.6-2.7 1.7-3.5 3-0.5 0.7-0.8 1.6-0.9 2.5z"/>
				<path class="st14" d="m832.5 587.7c-6.8 3.4-14 7-21.7 6.5-1-0.1-2-0.2-2.9-0.5-1.1-0.4-1.9-1.1-2.7-1.9-1.3-1.2-2.4-2.6-3.5-4-5.2 2.4-10 5.3-14.5 8.6 1.2 2.8 2.7 5.5 4.8 7.8 2.4 2.6 5.7 4.7 9.4 5.1 3.3 0.4 6.5-0.5 9.6-1.6 9.3-3.5 17.5-9.6 23.1-17.3-0.4-0.9-1.2-1.9-1.6-2.7z"/>
				<path class="st16" d="m796.4 580.3c-3-3.8-7.8-9.5-12.6-8-1.9 0.6-2.1 3-1.9 4.9 0.8 6.1 2.4 12.2 4.8 18 0.2 0.4 0.3 0.8 0.5 1.2 4.5-3.3 9.3-6.2 14.5-8.6-1.8-2.5-3.4-5.1-5.3-7.5z"/>
			<path class="st17" d="m833.3 593.8c-1-2-2.1-3.9-3.4-5.8 0.6-0.7 1.9-1.2 2.8-0.8 0.1-0.3 0-0.6 0.1-0.9 0.1-0.4 0.7-0.6 1.1-0.4 0-0.7 0.2-1.3 0.7-1.8 0.1-0.1 0.2-0.2 0.3-0.4s0-0.4-0.1-0.7c-0.6-1.8 1-3.6 2.8-4.6 0.2 1.2-0.3 2-0.1 3.2 1.5-1.2 3.5-2.2 5.5-1.7 0.3 0.1 0.7 0.2 0.9 0.4s0.3 0.6 0.1 0.9c-0.1 0.2-0.4 0.2-0.6 0.3-1 0.3-1.9 0.8-2.6 1.4 0.3 0.2 0.8 0.3 1.2 0.4s0.8 0.4 0.8 0.8-0.6 0.7-0.6 1.1 0.5 0.7 0.6 1.1c0.1 0.3-0.1 0.6-0.2 0.9-0.3 0.9 0.1 2.1-0.6 2.8-0.4 0.4-1 0.5-1.6 0.5-1 0.1-2 0.1-3 0.1-0.5 0-1.3 0.1-1.3 0.6 0 0.3 0.3 0.7 0 0.8-0.1 0.1-0.3 0-0.4 0.1-0.4 0-0.8 0.8-0.9 0.8 0.1 0.3 0.1 0.7-0.1 1-0.4 0.3-1.3 0.2-1.4-0.1z"/>
				<path class="st16" d="m805.8 572.3c-1.4-4.6-3.4-9.2-5.8-13.4 0.2 1.7 0.2 3.5 0.1 5.2 0 0.2 0 0.4-0.2 0.6-0.3 0.2-0.7 0.1-1.1-0.1-2.6-1.2-5.3-2.4-7.9-3.7 4.4 4.5 9.1 8.8 14.9 11.4z"/>
			<path class="st17" d="m837.3 524.5c-1-1.9-2.6-3.4-4.6-4.4 0.1-1.1 1.3-1.9 2.5-1.7-0.7-0.9 0.4-2 0.6-3.1 0.1-0.5 0.1-0.9 0-1.4-0.1-1.7-0.2-3.4-0.4-5.1 0-0.4-0.1-0.8 0.1-1.2 0.2-0.5 0.6-1 1-1.4 0.8-1 1.3-2.2 1.3-3.4 1.6 0.5 2.7 2.3 2.2 3.8-0.2 0.4-0.4 0.9-0.4 1.3 0 0.5 0.2 0.9 0.4 1.4 0.5 1.4 0.5 2.9-0.1 4.2 0.9 0.9 1.9 2 1.8 3.3-0.1 2-3.5 5.7-3.7 6.3s-0.2 0.9-0.7 1.4z"/>
			<path class="st25" d="m778.5 546.2c-0.2 0-0.4 0-0.6 0.1s-0.3 0.4-0.2 0.6c0 0.2 0.2 0.4 0.3 0.6 0-0.4 0.4-0.7 0.7-0.7 0.4 0 0.8 0.1 1.1 0.3 0.4 0.2 0.8 0.4 1.1 0.6l0.1 0.1c0 0.1-0.1 0.2-0.1 0.2-0.2 0.2-0.4 0.3-0.6 0.5-0.1 0.2-0.2 0.5 0 0.7s0.5 0.3 0.8 0.4c1 0.2 2 0.4 3 0.5-0.4-0.1-0.9-0.3-1.3-0.4-0.3-0.1-0.5-0.2-0.7-0.4s-0.1-0.6 0-0.9c0.2-0.2 0.5-0.4 0.8-0.5-0.1 0-1.4-1.1-1.7-1.3-0.8-0.1-1.7-0.3-2.7-0.4z"/>
			<path class="st26" d="m834.6 592.1c-0.2-1.6-0.7-3.2-1.6-4.5 0.4 1.5 1 3.1 1.6 4.5z"/>
			<path class="st26" d="m836.1 590.8c-0.4-1.6-1.1-3.1-2-4.4 0.5 1.4 1.2 3.1 2 4.4z"/>
			<path class="st26" d="m838.2 522.4c-0.4-1-1-2-1.8-2.9-0.3-0.3-0.6-0.6-1-0.6 1.1 1 2.2 2.2 2.8 3.5z"/>
			<path class="st11" d="m978 683.5c0.7 1.7 1.4 3.4 1.9 5.1-2.8 1.8-5.9 3.2-9.1 4-2.5 0.7-5.2 1.2-7 3-0.1 0.1-0.3 0.3-0.3 0.5 0 0.4 0.4 0.5 0.7 0.6 3.5 1 7.2 1.9 10.6 0.6 1.2-0.5 2.3-1.2 3.5-1.8 1.1-0.5 2.3-0.9 3.6-1.1 1.2-0.2 2.8-0.4 3-1.7 0.2-0.9-0.6-1.7-1.1-2.5-0.8-1.3-1-2.8-1.5-4.3-0.4-1.5-1.1-2.8-1.9-4.1-0.1-0.2-0.3-0.4-0.5-0.4s-0.4 0.1-0.5 0.2c-0.4 0.3-0.7 0.6-1.1 0.9-0.1 0.1-0.2 0.2-0.1 0.3 0.1 0.3-0.1 0.6-0.2 0.7z"/>
			<path class="st11" d="m925 678.2c0.6 1.8 1.2 3.5 1.7 5.3-4.4 1.3-9.1 1.9-13.8 2-0.8 0-1.9 0.3-1.8 1.1 0.1 0.4 0.5 0.7 0.9 0.9 1.4 0.7 2.8 1.4 4.4 1.6 1.5 0.1 3-0.3 4.5-0.6 2.7-0.6 5.4-0.8 8.2-0.6 0.3 0 0.7 0 1-0.1 0.6-0.3 0.8-1.3 0.5-1.9-0.3-0.7-0.8-1.2-1.2-1.8-1.2-1.9-0.9-4.3-0.9-6.6 0-0.7 0-1.4-0.2-2s-0.8-1.2-1.4-1.2c-0.4 0-0.9 0.1-1.2 0.4-0.9 0.6-1 2.5-0.7 3.5z"/>
			<path class="st13" d="m983.3 684.5h-6.7c-5.9-7.4-15.1-15.3-20.4-23.1-5.6-8.5-8.9-18.3-12.9-27.7 2.2-2.3 5-4.3 7.5-6.2 1.6-1.2 3.2-2.3 5.1-3s3.9-0.9 5.8-0.2c3.8 10.5 6.2 21.6 7.8 32.7 4.4 9.4 8.8 18.9 13.8 27.5z"/>
				<path class="st12" d="m964 666.1c0.6-0.6 1.3-1.3 1.9-1.8-1.9-0.3-4-0.8-5.9-1.1 0.7-0.9 2-0.9 3.1-1.3 1.5-0.5 3-1.9 3.6-3.4-2.3 0.3-5.5 0.1-7.8-0.3-5.2-8.4-9.8-17.1-13.7-26.2-0.6 0.5-1.2 1.1-1.8 1.7 4 9.4 7.3 19.3 12.9 27.7 4.9 7.3 13.1 14.5 19 21.5-3.9-5.6-7.6-11.2-11.3-16.8z"/>
			<path class="st13" d="m940.1 634.1c-3.1 4-6.1 8.2-8.8 12.5 1.9 11.3 0.1 23-1.7 34.3h-4.6c-4.6-12.4-8.2-25-11.1-37.9 3.7-11.7 6.8-20 13.6-27.6 8-1.1 16.3 0.2 23.6 3.8 0.4 0.2 0.8 0.4 0.9 0.8 0.1 0.3-0.1 0.6-0.2 0.9-2 4.4-4.3 8.7-6.7 12.9-0.2 0.4-0.4 0.7-0.8 0.9-0.3 0.2-0.7 0.1-1.1 0.1-1.2 0-2-0.6-3.1-0.7z"/>
				<path class="st12" d="m951.1 619.2c-0.5-0.3-1.1-0.5-1.6-0.7-3.7 4.8-7.8 9.5-11.9 13.7-2.9 3-5.9 5.9-9 8.6-0.8 0.7-1.6 1.4-2.7 1.8-0.7 0.3-1.4 0.3-2.1 0.4-2.1 0.2-4.2 0.5-6.3 0.7 2.7 1.3 5.7 2.3 8.7 2.8-1.9 0.5-4.2 1.4-6.1 1.9 2.5 0.1 5 0.1 7.5 0.2 1.3 8.6 2.3 17.4 3 26.1 1.4-9.4 2.3-18.9 0.7-28.2 2.7-4.3 5.7-8.5 8.8-12.5 1.1 0.1 1.9 0.6 3.1 0.7 0.4 0 0.7 0.1 1.1-0.1s0.6-0.6 0.8-0.9c2.4-4.2 4.7-8.5 6.7-12.9 0.1-0.3 0.3-0.6 0.2-0.9s-0.5-0.5-0.9-0.7z"/>
			<path class="st12" d="m953.2 630.2c2.8-1.6 5.7-3.3 8.5-4.9-8.6-1.6-17.2-3.3-25.8-4.9-3.8-0.7-7.4-1.3-11.1-2.8 2.4 3.9 6 7.1 10.1 8.9-2.6 0-5.2 0-7.8-0.6 2.2 1.7 4.7 2.9 7.4 3.6 0.7 1.2 1.7 2.3 2.7 3.4 0.7 0.8 1.4 1.5 2.3 1.9s2 0.5 2.9 0.1c-1.3-2.8-2.4-5.6-3.3-8.6 1.4 0.3 2.8 0.4 4.3 0.4l-0.9 8.1 2.3 0.7c2.8 0.2 5.7 0.4 8.5 0.7-2-0.6-4-1.3-5.9-1.9 4-1.7 8.1-3.2 12.2-4.6-2.2 0.3-4.3 0.5-6.4 0.5z"/>
			<path class="st11" d="m929.8 619.6c2.9 5.7 6.2 11.2 9.8 16.4l2.4-1.2c-3.7-5.3-6.3-11.4-8-17.7-1.8 0-3.2 1-4.2 2.5z"/>
			<path class="st15" d="m929.8 619.6s0.2 0.3 0.4 0.7c0.3 0.4 0.7 1.1 1.1 1.9 0.9 1.5 2.1 3.6 3.4 5.6 1.2 2.1 2.5 4.1 3.4 5.6 0.5 0.8 0.8 1.4 1.1 1.9s0.4 0.7 0.4 0.7-0.8-0.9-1.8-2.4c-0.5-0.7-1.1-1.6-1.8-2.5-0.3-0.5-0.6-1-0.9-1.5s-0.6-1-0.9-1.5-0.6-1-0.9-1.6c-0.3-0.5-0.6-1-0.8-1.5-0.5-1-1-1.9-1.4-2.7-0.8-1.6-1.3-2.7-1.3-2.7z"/>
			<path class="st11" d="m947.5 623.3c-2.1 3.9-4.2 7.8-6.1 11.7 1.1 0.4 2.1 1 3 1.7 4.5-4.6 9.2-9.1 13.8-13.7-1.5-1.2-3.3-2.2-5.2-2.4-2-0.1-4.5 1-5.5 2.7z"/>
			<path class="st15" d="m947.5 623.3s-0.3 0.8-0.8 1.9c-0.2 0.6-0.6 1.2-0.9 1.9-0.2 0.3-0.3 0.7-0.5 1.1s-0.4 0.7-0.6 1.1-0.4 0.7-0.6 1.1-0.4 0.7-0.6 1c-0.4 0.7-0.8 1.3-1.1 1.8-0.6 1.1-1.1 1.7-1.1 1.7s0.3-0.8 0.8-1.9c0.2-0.6 0.5-1.2 0.9-1.9 0.2-0.3 0.3-0.7 0.5-1.1s0.4-0.7 0.6-1.1 0.4-0.7 0.6-1.1 0.4-0.7 0.6-1c0.4-0.7 0.8-1.3 1.1-1.8 0.6-1 1.1-1.7 1.1-1.7z"/>
			<path class="st14" d="m935.8 570.6c-3.2-0.8-6.3-2.3-8.9-4.4-7.3-5.8-10.7-15.4-13.3-24.5-2.1-7.2-3.2-14.3-4.9-21.6 0.6-0.9 1.8-1.7 2.8-1.9 0.3 1.3 0.7 2 1.2 3.2 5.2 12.3 13.1 23.3 23 32.2 0.3 5.5-0.3 11.6 0.1 17z"/>
				<path class="st16" d="m935.7 553.6c-2.1-1.9-4.1-3.9-6.1-6-2.2 5.1-4.2 10.2-6.2 15.3 1 1.2 2.1 2.2 3.4 3.2 2.6 2.1 5.7 3.6 8.9 4.4-0.3-5.3 0.3-11.4 0-16.9z"/>
			<path class="st17" d="m963.8 626c-7.8 0.4-15.7 0.4-23.4-1s-15.1-4.1-21.2-9.2c8.2-11.7 11-26.3 13.5-40.4 1.6-8.6 3.1-17.2 2.6-25.9 7.6-2.6 16.5-1.5 22.8 3.6 4.3 10 7.9 19.1 7.6 29.5-0.1 4.4-3.1 33.1-1.9 43.4z"/>
				<path class="st18" d="m937.7 559.1c0 1.6 0.2 3.2 0.7 4.7 4.8-5.4 10.4-9.7 16.8-12.9-1.9-1.1-4-1.8-6.2-2.3-4.2 3.1-8 6.6-11.3 10.5z"/>
				<path class="st18" d="m946.8 574.3c3.9-5.1 9.9-8.4 16.1-9.4-0.5-1.5-1-3-1.6-4.5-6.1 2.7-11.7 6.4-16.6 10.9 0.7 1.1 1.2 2.2 2.1 3z"/>
				<path class="st18" d="m965.5 586.4c-11.4-0.8-22.9-2.9-33.3-8.1-0.4 2.3-0.9 4.6-1.3 6.9 10.6 4.9 22.4 6.6 34.1 6.9 0.3-2.2 0.4-4.2 0.5-5.7z"/>
				<path class="st18" d="m942.1 603.3c-0.3 2.2-0.7 4.2-0.7 6.4 7.3 1.7 15.1 1.5 22.4-0.3 0.1-2.1 0.2-4.3 0.4-6.4-7.3 1-14.7 1.1-22.1 0.3z"/>
			<path class="st14" d="m941.3 554.2c2.3 1.9 4.1 4.4 5.2 7.2-3.4 2.2-7.3 12.7-7.8 14.6 4.9-8.2 14.4-15.1 19.1-17.5 1.2-0.6 2.6-1.4 3-2.8 0.2-0.7 0-1.5-0.3-2.2-1.2-2.2-3.9-3-6.3-3.3-2.8-0.3-5.8-0.3-8.5 0.6-1.9 0.7-2.9 2.1-4.4 3.4z"/>
			<linearGradient id="c" x1="941.33" x2="959.41" y1="554.77" y2="554.77" gradientUnits="userSpaceOnUse">
				<stop stop-color="#E97695" offset="0"/>
				<stop stop-color="#F7B794" offset="1"/>
			</linearGradient>
			<path class="st27" d="m954.1 550.3c-2.8-0.3-5.8-0.3-8.5 0.6-1.8 0.6-2.9 1.9-4.3 3.3 1.7 1.5 3.2 3.3 4.2 5.3 4.7-2.1 9.3-4.5 13.8-7.2-1.3-1.2-3.3-1.8-5.2-2z"/>
			<linearGradient id="b" x1="941.13" x2="944.8" y1="535.18" y2="540.36" gradientUnits="userSpaceOnUse">
				<stop stop-color="#E97695" offset="0"/>
				<stop stop-color="#F7B794" offset="1"/>
			</linearGradient>
			<path class="st28" d="m942.9 534.9c-0.2-0.2-0.5-0.4-0.8-0.4-0.5-0.1-1 0.2-1.3 0.7-0.3 0.4-0.3 1-0.3 1.5 0 1.4 0.5 2.8 1.5 3.8s2.6 1.3 3.8 0.6c2.7-1.5-1.6-5.1-2.9-6.2z"/>
			<path class="st14" d="m943.3 539.8c-2.9 1.3-6 1.9-9 3-1.4 0.5-3 1.3-3.4 2.7-0.1 0.5-0.2 1-0.1 1.5 0.2 3.1 2.3 5.9 5 7.4s5.9 1.9 8.9 1.9c7.3-0.1 14.5-2.6 20.3-7 0.4-0.3 0.8-0.7 1-1.2 0.1-0.4 0.2-0.7 0.2-1.1 0.1-2.7 0.2-5.4-0.3-8.1-0.5-2.6-1.7-5.2-3.7-7-2.9-2.4-7.8-2.7-10.7-0.1-1.4 1.2-1.4 3-2.6 4.4-1.7 1.7-3.7 2.8-5.6 3.6z"/>
			<path class="st11" d="m957.3 540.6c-1.3 1.1-2.7 2.2-3.6 3.7s-1.1 3.5-0.1 5c-0.8 0.7-1.7 1.6-2.6 2.1 1.7 0.2 3.6 0.9 5.2 1.5l-4.6 2.6c0.3 1.8 1.3 3.7 1.6 5.5 3.5-1 5.6-2.3 8.5-3.5 1.8-0.7 3.3-2.3 4.4-3.8s1.4-3.4 1.5-5.3c0.2-2.3 0.2-4.8-1.2-6.6-1-1.3-2.7-2-4.3-2.1s-3.5-0.1-4.8 0.9z"/>
				<path class="st22" d="m966.8 556.4c-1 0.3-1.1 1.8-1.6 2.6-2.5-6.1-5.8-11.9-9.7-17.2-2.2-3-3.1-6.8-4.3-10.4l0.7-1.4s11-9 19.2 0 7.6 22.5-4.3 26.4z"/>
					<path class="st23" d="m971 546c1.6-4 1-8.9-1.9-12-0.1 0.9-0.6 1.8-1.4 2.4-0.5 0.3-1.1 0.5-1.7 0.6-2 0.3-4.2-0.9-4.7-2.9-0.6-2 0.9-4.3 2.9-4.4-2.6-1.6-6-1.4-8.8-0.2-1.5 0.6-2.8 1.4-4.2 2.4 1.1 3.4 2 7 4.1 9.9 2.9 3.9 5.4 8.1 7.5 12.4 3.7-1.7 6.8-4.5 8.2-8.2z"/>
				<path class="st22" d="m957.8 545.2c-6.2-4-10.3-11.1-11-18.6 1.6 1.1 3.4 2.2 5 3.4 1.7 5.2 4 10.1 6 15.2z"/>
			<path class="st29" d="m948.9 539.5c-0.5 0.5-1.2 0.6-1.4 0.3s0-0.9 0.5-1.4 1.2-0.6 1.4-0.3c0.2 0.4 0 1-0.5 1.4z"/>
			<path class="st24" d="m945.6 549.4c0.1-1.3-0.5-2.6-1.3-3.7s-1.8-1.9-2.9-2.7c-0.6-0.4-1.2-0.9-1.9-1.1 1.7 1.8 3.4 3.6 4.9 5.5 0.4 0.6 1.2 1.3 1.2 2z"/>
			<path class="st14" d="m958.9 551.7c0.5 0.2 0.9 0.5 1.2 1 0.3 0.4 0.4 1 0.3 1.5-0.3 0.8-1.1 1.1-1.9 1.3-1.4 0.4-9.7 1.1-8.7-1.8s7-3 9.1-2z"/>
			<path class="st25" d="m958.5 552.4c0.5 0.2 1 0.7 0.8 1.2-0.1 0.4-0.5 0.6-0.8 0.7-0.4 0.2-0.8 0.3-1.1 0.5 0.4-0.3 0.7-0.6 1-0.9 0.1-0.1 0.2-0.2 0.2-0.3 0-0.3-0.4-0.5-0.7-0.5-0.6-0.1-1.2-0.2-1.8-0.2-0.2 0.6-0.4 1.2-0.9 1.4-0.3 0.2-0.7 0.1-1.1 0.1-0.8-0.1-1.7-0.2-2.3-0.7 0.5 0.1 1.7 0.4 2.2 0 0.4-0.3 0.1-0.8 0.4-1.2 0.4-0.4 1.6-0.4 2.1-0.4 0.6-0.1 1.3 0 2 0.3z"/>
				<path class="st16" d="m944.4 566.2c-0.1 0-0.2 0-0.3-0.1s-0.1-0.2-0.1-0.3c0.1-0.7 0.2-1.5 0.3-2.2-2.8 3.9-5.3 10.9-5.7 12.5 2.7-4.5 6.9-8.7 10.8-11.9-0.5 0.2-1 0.5-1.4 0.8-1 0.6-2.3 1.4-3.6 1.2z"/>
			<path class="st17" d="m908.9 524.7c1-1.4 2.5-2.5 4.2-3 0.2-0.5 0.4-1.2 0.5-1.8 0-0.5-0.1-0.9-0.3-1.3-0.3-0.3-0.6-0.5-1-0.6-0.1 0-0.1 0-0.2-0.1s0-0.3 0.1-0.4c0-0.2-0.2-0.4-0.4-0.4s-0.4 0-0.6 0h-0.1v-0.1c0-0.5-0.1-1.1-0.1-1.6-0.1-0.9 0.3-1.9 0.5-2.8 0.2-1.3 0.4-2.7-0.3-3.8-0.3-0.5-0.8-1-1.4-1.3-2-1.1-4.7-0.9-6.2 0.8-0.3 0.3-0.5 0.6-0.6 1s0 0.8 0.2 1.1c0.4 0.5 1.2 0.4 1.8 0.2s1.2-0.6 1.8-0.6c-0.2 0.5-0.4 1.2-0.6 1.7-0.3 0.7-0.6 1.4-0.5 2.2 0 0.7 0.4 1.3 0.7 1.9-0.6 0.5-0.9 1.5-0.8 2.3s0.6 1.5 1.3 1.8c0.1 0.1 0.3 0.1 0.4 0.3 0.2 0.3-0.3 0.7-0.2 1.1 0.1 0.2 0.4 0.3 0.5 0.5 0.1 0.3-0.1 0.6-0.1 1 0 0.2 0.1 0.5 0.3 0.7 0.1 0.4 0.6 1 1.1 1.2z"/>
			<path class="st26" d="m911.2 517.3c-1.5 0.8-2.7 2-3.6 3.4 0.2-1.4 1.1-2.6 2.4-3.2 0.4-0.2 0.8-0.3 1.2-0.2z"/>
			<path class="st26" d="m912.1 518.2c-1.7 0.8-3.3 1.8-4.7 3.2 1.5-1 3.2-2.2 4.7-3.2z"/>
			<path class="st19" d="m951.8 572.7c1.2-1.5 2.5-3.1 4.3-4 1.7-0.9 4-1 5.5 0.3 0.8 0.6 1.3 1.5 1.6 2.5 1.1 2.8 1.1 5.8 1 8.8-0.1 3.6-0.5 7.3-1.7 10.7s-3.2 6.6-6.2 8.5c-0.7 0.4-1.4 0.8-2.2 0.8-1.3 0-2.3-0.9-3.2-1.9-2.9-3.2-5.9-8.3-6.4-12.7-0.3-2.2 1.2-4.1 2.3-5.9 1.6-2.4 3.3-4.8 5-7.1z"/>
			<path class="st16" d="m958.2 592.9c3.4-6.1 5.4-13.1 4.3-19.9 0-0.1 0-0.2-0.1-0.3-0.7-3.1-4.6-4.2-6.9-2-4.1 3.9-7.8 8.1-11.7 12.3 4.2 4.3 9.1 7.5 14.4 9.9z"/>
			<path class="st14" d="m943.9 583c-1.3 1.4-2.7 2.9-4 4.3-1.3 1.3-2.7 2.7-4.3 3.6-2.2 1.2-4.8 1.7-7.3 1.8-6 0.4-12-0.4-17.9-1.2-0.4 1.3-0.6 2.7-0.2 4.1 6.7 4 13.5 8.3 21 9.9s16.2 0.3 21.8-5.1c1.5-1.5 2.7-3.2 3.9-4.9 0.5-0.8 1-1.6 1.4-2.4-5.4-2.6-10.3-5.8-14.4-10.1z"/>
			<linearGradient id="a" x1="942.63" x2="958.23" y1="589.85" y2="589.85" gradientUnits="userSpaceOnUse">
				<stop stop-color="#E97695" offset="0"/>
				<stop stop-color="#F7B794" offset="1"/>
			</linearGradient>
			<path class="st30" d="m955.9 596.7c0.3-0.5 0.6-0.9 0.9-1.4 0.5-0.8 1-1.6 1.4-2.4-5.3-2.5-10.3-5.7-14.3-10-0.4 0.5-0.8 0.9-1.3 1.3 3.8 4.8 8.2 9.2 13.3 12.5z"/>
			<path class="st17" d="m912 597.7c0.5-1.9 0.8-3.8 0.7-5.8 0-0.7-0.1-1.3 0-2-0.5-0.1-1.2 0.1-1.6 0.5-0.2-0.5-0.9-0.4-1.3-0.5-0.6-0.2-1-0.9-1.2-1.5-0.1-0.7 0-1.4-0.1-2.1-0.1-1.4-0.9-3.4-1.9-4.4 0 0.5-0.3 1.7-0.8 1.9s-1.1 0.2-1.6 0.1-0.9-0.4-1.4-0.4c-0.5-0.1-1 0-1.3 0.4-0.4 0.5-0.1 1.3 0.2 1.9s0.8 1.2 0.7 1.9c-0.1 0.4-0.3 0.7-0.2 1.1 0.1 0.3 0.5 0.5 0.6 0.8 0.2 0.4 0.1 1 0.2 1.4 0.1 1.5 1.5 2.6 2.9 3.4 0.6 0.3 1.1 0.7 1.7 1 1.2 0.9 2.9 1.8 4.4 2.3z"/>
			<path class="st26" d="m910.7 596.5c0.1-1.8 0.1-3.7 0.2-5.5-0.7 1.7-0.7 3.7-0.2 5.5z"/>
			<path class="st26" d="m910.1 590.9c-0.8 1.2-1.3 2.7-1.4 4.2 0 0.1 0.1 0.3 0.2 0.3l1.2-4.5z"/>
		<text class="st31 st32 st33 st34" transform="translate(819.72 582.66)">E</text>
			<text class="st31 st32 st33 st34" transform="matrix(.959 -.2835 .2835 .959 583.64 424.6)">E</text>
				<defs>
					<circle id="u" cx="579.5" cy="310.5" r="2"/>
				</defs>
				<clipPath id="k">
					<use xlink:href="#u"/>
				</clipPath>
				<g class="st35">
					<circle class="st36" cx="579.5" cy="310.5" r="2"/>
					<line class="st37" x1="577.7" x2="581.3" y1="311.3" y2="309.7"/>
				</g>
			<text class="st31 st32 st33 st34" transform="matrix(.9998 .022221 -.022221 .9998 340.84 417.76)">IE</text>
					<circle class="st36" cx="494.1" cy="309.1" r="2"/>
					<line class="st37" x1="525.1" x2="529.1" y1="309" y2="309.1"/>
					<circle class="st36" cx="430.2" cy="309.1" r="2"/>
					<line class="st37" x1="463.2" x2="467.2" y1="309" y2="309.2"/>
					<circle class="st36" cx="372.2" cy="309.1" r="2"/>
					<line class="st37" x1="370.2" x2="374.2" y1="309" y2="309.2"/>
					<circle class="st36" cx="370.1" cy="409.1" r="2"/>
					<line class="st37" x1="368.1" x2="372.1" y1="409.1" y2="409.1"/>
			<path class="st38" d="m490.8 677.9c-1.1-0.1-1.9-0.8-1.9-1.5s0.9-1.1 1.9-1c1.1 0.1 1.9 0.8 1.9 1.5s-0.9 1.1-1.9 1z"/>
			<path class="st39" d="m498 679.5-0.2-0.1-2.3-0.8c0.1-0.2 0.2-0.4 0.3-0.5 0-0.1 0.1-0.2 0.1-0.3 0.5-1.7-1.2-3.6-3.8-4.4l-0.5-0.2-0.2-0.1v0.2 0.2 0.1c-0.1 0.2-0.3 0.3-0.5 0.3-0.1 0-0.2-0.1-0.3-0.2s-0.1-0.2-0.1-0.3v-0.4-0.1h-0.1l-8.8-2.6-6.5-0.1h-0.1l-0.6 0.3-0.4 1v0.1h0.2l2.2 0.7 0.3 0.1-0.1-0.2h0.1l0.1 0.1c0.2 0.1 0.4 0.1 0.6 0.1 0.1 0 0.2-0.1 0.2-0.2v-0.1-0.1s0.1 0 0.1 0.1l0.1 0.1c0.2 0.1 0.4 0.2 0.6 0.2s0.3-0.1 0.4-0.2v-0.1l0.2 0.2c0.1 0.1 0.3 0.3 0.5 0.3s0.4 0 0.5-0.1h0.1 0.1v0.1 0.1c0 0.1 0.1 0.3 0.3 0.3 0.2 0.1 0.4 0.1 0.6 0h0.1 0.1v0.1c0 0.1 0 0.2 0.1 0.3s0.3 0.2 0.6 0.2h0.1 0.1-0.1c-0.1 0-0.1 0.1-0.1 0.2s0 0.2 0.1 0.2c0.1 0.1 0.3 0.2 0.5 0.2h0.1 0.1l-0.2 0.1 0.3 0.1 3.3 1c0 0.1-0.1 0.1-0.1 0.2-0.5 1.7 1.2 3.6 3.8 4.4 0.2 0.1 0.4 0.1 0.6 0.2h0.2v-0.1-0.1-0.1c0.1-0.2 0.3-0.3 0.5-0.3 0.1 0 0.2 0.1 0.3 0.2s0.1 0.2 0.1 0.3v0.1l-0.1 0.2v0.1l0.2 0.1 5.6 1.6 0.2 0.1v-0.1l0.5-2.7z"/>
			<path class="st40" d="m491.3 675.3c-1.2-0.3-2.4 0-2.7 0.7s0.4 1.6 1.5 1.9c1.2 0.3 2.4 0 2.7-0.7 0.4-0.7-0.3-1.6-1.5-1.9z"/>
			<path class="st41" d="m491.2 675.4c-1-0.3-2.1 0-2.3 0.6-0.3 0.6 0.3 1.4 1.3 1.7s2.1 0 2.3-0.6c0.4-0.6-0.2-1.4-1.3-1.7z"/>
					<linearGradient id="j" x1="514.9" x2="529.02" y1="608.8" y2="608.6" gradientTransform="matrix(.1157 -.5785 .9599 .192 -159.38 863.32)" gradientUnits="userSpaceOnUse">
					<stop stop-color="#BFBFBF" offset=".3791"/>
					<stop stop-color="#ACACAC" offset=".3913"/>
					<stop stop-color="#9C9C9C" offset=".4073"/>
					<stop stop-color="#909090" offset=".4273"/>
					<stop stop-color="#898989" offset=".4553"/>
					<stop stop-color="#878787" offset=".533"/>
					<stop stop-color="#939393" offset=".5638"/>
					<stop stop-color="#B2B2B2" offset=".6192"/>
					<stop stop-color="#D9D9D9" offset=".6758"/>
					<stop stop-color="#D6D6D6" offset=".799"/>
					<stop stop-color="#CECECE" offset=".8731"/>
					<stop stop-color="#C0C0C0" offset=".9342"/>
					<stop stop-color="#ABABAB" offset=".9879"/>
					<stop stop-color="#A6A6A6" offset="1"/>
				</linearGradient>
				<path class="st42" d="m496.8 681.8-5.6-1.6 0.1-0.2v-0.1c0-0.3-0.3-0.6-0.6-0.7-0.4 0-0.7 0.2-0.7 0.5v0.1c-0.2 0-0.4-0.1-0.6-0.1-2.7-0.8-4.3-2.8-3.6-4.5v-0.1l-3.4-1c0.1-0.1 0-0.2-0.3-0.2h-0.1c-0.4-0.1-0.5-0.2-0.3-0.4h0.1c0.2-0.1 0.1-0.3-0.3-0.3h-0.1c-0.3 0-0.6-0.1-0.5-0.3v-0.1c0.1-0.2-0.1-0.3-0.4-0.2h-0.1c-0.3 0.1-0.6 0-0.6-0.2v-0.1c0-0.2-0.2-0.3-0.4-0.1h-0.1c-0.2 0.1-0.5 0.1-0.7-0.1l-0.1-0.1c-0.2-0.2-0.4-0.2-0.4 0v0.1c-0.1 0.2-0.4 0.2-0.6 0l-0.1-0.1c-0.3-0.2-0.4-0.2-0.4 0.1v0.1c0 0.2-0.2 0.3-0.5 0.1l-0.1-0.1c-0.3-0.1-0.4-0.1-0.4 0l-2.2-0.7 0.4-1 0.6-0.3 6.5 0.1 8.8 2.6v0.4c0 0.3 0.3 0.6 0.6 0.7 0.4 0 0.7-0.2 0.7-0.5v-0.2l0.5 0.2c2.7 0.8 4.3 2.8 3.6 4.5-0.1 0.2-0.2 0.4-0.4 0.6l2.4 0.9-0.7 2.3z"/>
							<radialGradient id="i" cx="5817" cy="734.93" r="3.1469" gradientTransform="matrix(-2.034 6.6829 10.672 2.5766 4496.7 -40089)" gradientUnits="userSpaceOnUse">
							<stop stop-color="#F0CD3C" offset="0"/>
							<stop stop-color="#DEAB38" offset=".989"/>
						</radialGradient>
						<path class="st43" d="m527.5 689.4c0.3-0.7 0-1.4-0.6-1.8-1.6-1.1-5.6-1-5.6-1-2.3 0.1-5.9 0-10.2-1.1-3.8-1-7-2.5-9-4-2.1-1.5-3.8-2.3-4.9-2.3-0.9 0-2 0.6-3.3 1.6-0.1 0.1-0.1 0.1-0.1 0.2-0.1 0.2 0 0.3 0 0.5 0.4 0.7 1.6 1 2.8 1.2 0.6 0.1 1.1 0.2 1.4 0.4 0 0 0.1 0 0.1 0.1 2.6 2.1 6.9 4.1 11.9 5.4 4.8 1.3 9.6 1.8 13.1 1.3h0.1c0.2 0 0.4 0.1 0.9 0.2 0.7 0.2 1.8 0.6 2.7 0.2 0.4-0.3 0.6-0.7 0.7-0.9z"/>
							<radialGradient id="h" cx="5817.1" cy="734.95" r="2.8996" gradientTransform="matrix(-2.034 6.6829 10.672 2.5766 4496.7 -40089)" gradientUnits="userSpaceOnUse">
							<stop stop-color="#F0CD3C" offset="0"/>
							<stop stop-color="#DDA938" offset=".989"/>
							<stop stop-color="#DDA938" offset="1"/>
						</radialGradient>
						<path class="st44" d="m493.9 680.8c0.1-0.1 0.2-0.1 0.3-0.2 1.1-0.8 2.2-1.3 3-1.3 0.4 0 0.9 0.1 1.5 0.3h0.1c0.9 0.4 2 1 3.2 2 0.6 0.5 1.4 0.9 2.3 1.4 1.9 1 4.2 1.9 6.7 2.5 0.2 0.1 0.5 0.1 0.7 0.2 4 1 7.3 0.8 9.4 1 0.1 0 3-0.1 4.8 0.6h0.1c0.3 0.1 0.5 0.2 0.7 0.4 0.1 0 0.1 0.1 0.2 0.1 0.5 0.4 0.6 1 0.5 1.5v0.1c-0.1 0.2-0.3 0.6-0.7 0.7-0.2 0.1-0.4 0.1-0.7 0.2h-0.1c-0.3 0-0.7 0-1-0.1s-0.6-0.2-0.8-0.2c-0.4-0.1-0.7-0.2-0.9-0.2h-0.1-0.6-0.8-0.1c-3.3 0.2-7.5-0.3-11.7-1.4-4.8-1.3-9-3.2-11.6-5.3 0 0-0.1 0-0.1-0.1-0.3-0.1-0.8-0.2-1.5-0.4-0.5-0.1-1-0.3-1.4-0.4h-0.1c-0.2-0.1-0.5-0.2-0.7-0.3-0.3-0.2-0.6-0.4-0.8-0.6-0.1-0.2-0.1-0.3-0.1-0.5 0.2 0.1 0.2 0 0.3 0z"/>
							<radialGradient id="g" cx="5817.3" cy="734.96" r="2.6732" gradientTransform="matrix(-2.034 6.6829 10.672 2.5766 4496.7 -40089)" gradientUnits="userSpaceOnUse">
							<stop stop-color="#F1CE3C" offset="0"/>
							<stop stop-color="#DCA838" offset=".989"/>
							<stop stop-color="#DCA838" offset="1"/>
						</radialGradient>
						<path class="st45" d="m493.9 680.8c0.1-0.1 0.2-0.1 0.2-0.2 1.1-0.7 2.2-1.1 3-1.1 0.4 0 0.9 0.1 1.5 0.3h0.1c0.9 0.4 2 1.1 3.2 2 0.6 0.5 1.4 0.9 2.3 1.4 1.9 1 4.2 1.8 6.7 2.5 0.2 0.1 0.5 0.1 0.7 0.2 3.9 1 7.2 0.8 9.4 1 0.2 0 3-0.1 4.8 0.6h0.1c0.3 0.1 0.5 0.2 0.7 0.3 0.1 0 0.1 0.1 0.2 0.1 0.5 0.4 0.7 0.9 0.6 1.5v0.1c0 0.2-0.2 0.5-0.6 0.7-0.2 0.1-0.4 0.1-0.6 0.1h-0.1-1c-0.3 0-0.6-0.1-0.8-0.2-0.4-0.1-0.7-0.2-0.9-0.2h-0.1-0.6-0.8-0.1c-3.4 0.2-7.6-0.3-11.8-1.4-4.7-1.2-8.8-3.1-11.3-5.1 0 0-0.1 0-0.1-0.1-0.3-0.1-0.9-0.3-1.5-0.5-0.5-0.1-1-0.3-1.5-0.5h-0.1c-0.2-0.1-0.5-0.2-0.7-0.3-0.4-0.2-0.7-0.4-0.9-0.6-0.1-0.2-0.2-0.3-0.1-0.5l0.1-0.1z"/>
							<radialGradient id="f" cx="5817.4" cy="734.98" r="2.4665" gradientTransform="matrix(-2.034 6.6829 10.672 2.5766 4496.7 -40089)" gradientUnits="userSpaceOnUse">
							<stop stop-color="#F1CE3C" offset="0"/>
							<stop stop-color="#DBA638" offset=".989"/>
							<stop stop-color="#DBA638" offset="1"/>
						</radialGradient>
						<path class="st46" d="m493.9 680.8c0.1-0.1 0.2-0.1 0.2-0.1 1.1-0.6 2.1-1 3-1 0.5 0 1 0.1 1.5 0.3h0.1c0.9 0.4 2 1.1 3.2 1.9 0.6 0.5 1.4 0.9 2.2 1.4 1.9 1 4.2 1.8 6.7 2.5 0.2 0.1 0.5 0.1 0.7 0.2 3.9 0.9 7.1 0.8 9.4 1 0.3 0 3 0 4.8 0.5h0.1c0.2 0.1 0.5 0.2 0.7 0.3 0.1 0 0.1 0.1 0.2 0.1 0.5 0.4 0.7 0.9 0.6 1.4v0.1c0 0.2-0.2 0.5-0.5 0.6-0.2 0.1-0.3 0.1-0.5 0.1h-0.1c-0.3 0.1-0.6 0.1-1 0-0.3 0-0.6-0.1-0.9-0.2-0.4-0.1-0.7-0.2-0.9-0.2h-0.1-0.6-0.8-0.1c-3.4 0.2-7.6-0.3-11.9-1.4-4.5-1.2-8.6-3-11.1-5 0 0-0.1 0-0.1-0.1-0.4-0.1-0.9-0.3-1.6-0.5-0.5-0.2-1-0.4-1.5-0.5h-0.1c-0.2-0.1-0.5-0.2-0.8-0.3-0.4-0.2-0.7-0.3-0.9-0.6-0.1-0.2-0.2-0.3-0.2-0.5 0.2 0.1 0.2 0.1 0.3 0z"/>
							<radialGradient id="ba" cx="5817.5" cy="734.99" r="2.2776" gradientTransform="matrix(-2.034 6.6829 10.672 2.5766 4496.7 -40089)" gradientUnits="userSpaceOnUse">
							<stop stop-color="#F1CF3C" offset="0"/>
							<stop stop-color="#DBA537" offset=".989"/>
							<stop stop-color="#DAA437" offset="1"/>
						</radialGradient>
						<path class="st47" d="m493.9 680.8c0.1-0.1 0.2-0.1 0.2-0.1 1-0.5 2.1-0.9 3-0.9 0.5 0 1 0.1 1.5 0.3h0.1c0.9 0.4 2 1.1 3.2 1.9 0.6 0.5 1.4 0.9 2.2 1.3 1.9 1 4.2 1.8 6.7 2.5 0.2 0.1 0.4 0.1 0.7 0.2 3.8 0.9 7 0.8 9.3 1 0.4 0 3 0 4.7 0.5h0.1c0.2 0.1 0.5 0.2 0.7 0.3 0.1 0 0.1 0.1 0.2 0.1 0.5 0.4 0.7 0.9 0.7 1.3v0.1c0 0.2-0.1 0.5-0.4 0.6-0.1 0.1-0.3 0.1-0.5 0h-0.1c-0.3 0.1-0.6 0.1-0.9 0.1s-0.6-0.1-0.9-0.2c-0.4-0.1-0.7-0.2-0.9-0.2h-0.1-0.6-0.8-0.1c-3.4 0.2-7.7-0.3-12-1.4-4.4-1.2-8.3-2.9-10.8-4.8 0 0-0.1 0-0.1-0.1-0.4-0.2-1-0.4-1.7-0.6-0.6-0.2-1.1-0.4-1.6-0.6h-0.1c-0.2-0.1-0.5-0.2-0.8-0.3-0.4-0.2-0.8-0.3-1-0.6-0.1-0.2-0.2-0.3-0.2-0.5 0.2 0.3 0.2 0.2 0.3 0.1z"/>
							<radialGradient id="az" cx="5817.7" cy="735.01" r="2.105" gradientTransform="matrix(-2.034 6.6829 10.672 2.5766 4496.7 -40089)" gradientUnits="userSpaceOnUse">
							<stop stop-color="#F1CF3C" offset="0"/>
							<stop stop-color="#DAA337" offset=".989"/>
							<stop stop-color="#DAA337" offset="1"/>
						</radialGradient>
						<path class="st48" d="m493.9 680.8c0.1-0.1 0.1-0.1 0.2-0.1 1-0.4 2.1-0.8 3-0.8 0.5 0 1 0.1 1.5 0.3h0.1c0.9 0.5 2 1.1 3.2 1.9 0.6 0.5 1.4 0.9 2.2 1.3 1.9 0.9 4.1 1.8 6.6 2.5 0.2 0.1 0.4 0.1 0.7 0.2 3.7 0.9 7 0.9 9.3 1.1 0.4 0 3 0 4.7 0.4h0.1c0.2 0.1 0.5 0.2 0.7 0.3 0.1 0 0.1 0.1 0.2 0.1 0.5 0.4 0.7 0.8 0.8 1.3v0.1c0 0.2 0 0.4-0.3 0.5h-0.4-0.1c-0.3 0.1-0.6 0.1-0.9 0.1s-0.6-0.1-0.9-0.1c-0.4-0.1-0.7-0.2-0.9-0.2h-0.1-0.6-0.8-0.1c-3.4 0.2-7.7-0.3-12-1.4s-8.1-2.8-10.5-4.6c0 0-0.1 0-0.1-0.1-0.4-0.2-1-0.4-1.7-0.6-0.6-0.2-1.1-0.5-1.6-0.7h-0.1c-0.2-0.1-0.5-0.2-0.8-0.3-0.4-0.2-0.8-0.3-1.1-0.6-0.2-0.2-0.2-0.3-0.2-0.5-0.2 0.1-0.2 0-0.1-0.1z"/>
							<radialGradient id="ay" cx="5817.8" cy="735.02" r="1.9468" gradientTransform="matrix(-2.034 6.6829 10.672 2.5766 4496.7 -40089)" gradientUnits="userSpaceOnUse">
							<stop stop-color="#F2D03C" offset="0"/>
							<stop stop-color="#DCA838" offset=".8762"/>
							<stop stop-color="#D9A237" offset=".989"/>
							<stop stop-color="#D9A137" offset="1"/>
						</radialGradient>
						<path class="st49" d="m493.9 680.8c0.1-0.1 0.1 0 0.2-0.1 0.9-0.3 2.1-0.7 3-0.6 0.5 0 1 0.1 1.5 0.3h0.1c0.9 0.5 1.9 1.1 3.1 1.9 0.6 0.4 1.4 0.9 2.2 1.3 1.9 0.9 4.1 1.8 6.6 2.5 0.2 0.1 0.4 0.1 0.7 0.2 3.7 0.9 6.9 0.9 9.2 1.1 0.5 0 3 0 4.7 0.4h0.1c0.2 0.1 0.5 0.2 0.7 0.3 0.1 0 0.1 0.1 0.2 0.1 0.5 0.3 0.7 0.8 0.8 1.2v0.1c0 0.1 0 0.4-0.2 0.5h-0.3-0.1c-0.3 0.1-0.6 0.2-0.9 0.2s-0.6-0.1-0.9-0.1c-0.4-0.1-0.7-0.2-0.9-0.2h-0.1-0.6-0.8-0.1c-3.4 0.2-7.7-0.2-12.1-1.4-4.2-1.1-7.9-2.7-10.3-4.5 0 0-0.1 0-0.1-0.1-0.5-0.2-1.1-0.4-1.8-0.7-0.6-0.2-1.2-0.5-1.7-0.7h-0.1c-0.2-0.1-0.5-0.2-0.9-0.3-0.4-0.2-0.8-0.3-1.1-0.6-0.2-0.2-0.3-0.3-0.3-0.5 0.1-0.1 0.1-0.2 0.2-0.3z"/>
							<radialGradient id="ax" cx="5817.9" cy="735.04" r="1.8013" gradientTransform="matrix(-2.034 6.6829 10.672 2.5766 4496.7 -40089)" gradientUnits="userSpaceOnUse">
							<stop stop-color="#F2D03C" offset="0"/>
							<stop stop-color="#DFAD38" offset=".7301"/>
							<stop stop-color="#D8A037" offset=".989"/>
							<stop stop-color="#D8A037" offset="1"/>
						</radialGradient>
						<path class="st50" d="m493.9 680.8c0.1-0.1 0.1 0 0.2 0 0.9-0.2 2-0.6 3-0.5 0.5 0 1 0.2 1.5 0.3 0 0 0.1 0 0.1 0.1 0.9 0.5 1.9 1.1 3.1 1.9 0.6 0.4 1.4 0.9 2.2 1.3 1.9 0.9 4.1 1.8 6.6 2.4 0.2 0.1 0.4 0.1 0.7 0.2 3.6 0.9 6.8 1 9.2 1.1 0.6 0 3 0 4.7 0.4h0.1c0.2 0.1 0.5 0.2 0.7 0.3 0.1 0 0.1 0.1 0.2 0.1 0.5 0.3 0.7 0.8 0.9 1.2v0.1c0.1 0.1 0.1 0.4-0.1 0.4 0 0-0.1 0-0.2-0.1h-0.1c-0.2 0.1-0.5 0.2-0.9 0.2-0.3 0-0.6 0-0.9-0.1-0.4-0.1-0.7-0.2-0.9-0.2h-0.1-0.6c-0.3 0-0.6-0.1-0.8-0.1h-0.1c-3.4 0.2-7.8-0.2-12.2-1.4-4-1.1-7.6-2.6-10-4.3 0 0-0.1 0-0.1-0.1-0.5-0.2-1.2-0.5-1.9-0.7-0.6-0.2-1.2-0.6-1.7-0.8h-0.1c-0.2-0.1-0.6-0.2-0.9-0.3-0.5-0.2-0.9-0.3-1.2-0.6-0.2-0.2-0.3-0.3-0.3-0.5-0.2-0.1-0.2-0.2-0.1-0.3z"/>
							<radialGradient id="aw" cx="5818" cy="735.05" r="1.6667" gradientTransform="matrix(-2.034 6.6829 10.672 2.5766 4496.7 -40089)" gradientUnits="userSpaceOnUse">
							<stop stop-color="#F2D13C" offset="0"/>
							<stop stop-color="#E2B339" offset=".6125"/>
							<stop stop-color="#D79E37" offset=".989"/>
							<stop stop-color="#D79E37" offset="1"/>
						</radialGradient>
						<path class="st51" d="m493.8 680.8c0.1-0.1 0.1 0 0.2 0 0.8-0.3 2-0.5 3-0.4l1.5 0.3s0.1 0 0.1 0.1c0.9 0.5 1.9 1.1 3.1 1.9 0.7 0.4 1.4 0.9 2.2 1.3 1.9 0.9 4.1 1.8 6.5 2.4 0.2 0.1 0.4 0.1 0.7 0.2 3.6 0.9 6.8 1.1 9.1 1.1 0.7 0 3 0 4.7 0.3h0.1c0.2 0.1 0.4 0.2 0.7 0.3 0.1 0 0.1 0.1 0.2 0.1 0.5 0.3 0.8 0.8 0.9 1.1v0.1c0.1 0.1 0.1 0.3 0 0.4 0 0-0.1-0.1-0.2-0.1h-0.1c-0.2 0.1-0.5 0.2-0.9 0.3-0.3 0-0.6 0-0.9-0.1-0.4-0.1-0.7-0.2-0.9-0.2h-0.1c-0.2 0-0.4 0-0.6-0.1-0.3 0-0.6-0.1-0.8-0.1h-0.1c-3.4 0.2-7.8-0.2-12.3-1.4-3.9-1-7.4-2.5-9.7-4.1 0 0-0.1 0-0.1-0.1-0.6-0.2-1.2-0.5-1.9-0.8l-1.8-0.9h-0.1c-0.2-0.1-0.6-0.2-0.9-0.3-0.5-0.2-0.9-0.3-1.3-0.6-0.2-0.2-0.3-0.3-0.4-0.5 0.1 0 0.1-0.1 0.1-0.2z"/>
							<radialGradient id="av" cx="5818.1" cy="735.07" r="1.5417" gradientTransform="matrix(-2.034 6.6829 10.672 2.5766 4496.7 -40089)" gradientUnits="userSpaceOnUse">
							<stop stop-color="#F2D13C" offset="0"/>
							<stop stop-color="#E4B639" offset=".5431"/>
							<stop stop-color="#D69D37" offset=".989"/>
							<stop stop-color="#D69C37" offset="1"/>
						</radialGradient>
						<path class="st52" d="m493.8 680.9c0.1-0.1 0.1 0 0.2 0 0.8-0.2 2-0.4 3-0.2 0.5 0.1 1 0.2 1.4 0.3 0 0 0.1 0 0.1 0.1 0.9 0.5 1.9 1.2 3.1 1.9 0.7 0.4 1.4 0.9 2.2 1.3 1.9 0.9 4.1 1.7 6.5 2.4 0.2 0.1 0.4 0.1 0.7 0.2 3.5 0.9 6.7 1.1 9.1 1.2 0.8 0 3 0 4.6 0.3h0.1c0.2 0.1 0.4 0.1 0.7 0.3 0.1 0 0.1 0.1 0.2 0.1 0.5 0.3 0.8 0.7 1 1 0.1 0.1 0.2 0.3 0.1 0.3 0 0 0-0.1-0.1-0.2h-0.1c-0.2 0.1-0.5 0.3-0.9 0.3h-0.9c-0.4-0.1-0.7-0.2-0.9-0.2h-0.1c-0.2 0-0.4 0-0.6-0.1-0.4-0.1-0.6-0.1-0.8-0.1h-0.1c-3.4 0.2-7.9-0.2-12.3-1.4-3.8-1-7.1-2.4-9.4-4h-0.1c-0.6-0.2-1.3-0.5-2-0.8s-1.3-0.6-1.8-1h-0.1c-0.2-0.1-0.6-0.2-1-0.3-0.5-0.2-1-0.3-1.3-0.6-0.2-0.2-0.4-0.3-0.4-0.5-0.1-0.1-0.1-0.2-0.1-0.3z"/>
							<radialGradient id="au" cx="5818.2" cy="735.08" r="1.425" gradientTransform="matrix(-2.034 6.6829 10.672 2.5766 4496.7 -40089)" gradientUnits="userSpaceOnUse">
							<stop stop-color="#F3D23D" offset="0"/>
							<stop stop-color="#E6BA3A" offset=".4741"/>
							<stop stop-color="#D69B36" offset=".989"/>
							<stop stop-color="#D59B36" offset="1"/>
						</radialGradient>
						<path class="st53" d="m493.8 680.9c0.1-0.1 0.1 0.1 0.2 0 0.7-0.2 2-0.2 3-0.1 0.5 0.1 1 0.2 1.4 0.3 0 0 0.1 0 0.1 0.1 0.9 0.5 1.9 1.2 3.1 1.9 0.7 0.4 1.4 0.8 2.2 1.2 1.9 0.9 4.1 1.7 6.5 2.4 0.2 0.1 0.4 0.1 0.7 0.2 3.5 0.9 6.6 1.1 9.1 1.2 0.9 0 3 0 4.6 0.2h0.1c0.2 0.1 0.4 0.1 0.7 0.3 0.1 0 0.1 0.1 0.2 0.1 0.5 0.3 0.8 0.7 1.1 1 0.1 0.1 0.2 0.3 0.2 0.3 0.1 0 0-0.1 0-0.2h-0.1c-0.2 0.1-0.5 0.3-0.9 0.4-0.3 0.1-0.6 0-0.9 0-0.4-0.1-0.7-0.1-0.9-0.2h-0.1c-0.2 0-0.4 0-0.6-0.1-0.4-0.1-0.6-0.1-0.8-0.1h-0.1c-3.4 0.2-7.9-0.2-12.4-1.4-3.6-1-6.9-2.3-9.2-3.8h-0.1c-0.6-0.3-1.3-0.6-2.1-0.9-0.7-0.3-1.3-0.7-1.9-1h-0.1c-0.2-0.1-0.6-0.2-1-0.3-0.5-0.2-1-0.3-1.4-0.6-0.2-0.2-0.4-0.3-0.4-0.5-0.2-0.2-0.2-0.3-0.2-0.4z"/>
							<radialGradient id="at" cx="5818.3" cy="735.1" r="1.3154" gradientTransform="matrix(-2.034 6.6829 10.672 2.5766 4496.7 -40089)" gradientUnits="userSpaceOnUse">
							<stop stop-color="#F3D23D" offset="0"/>
							<stop stop-color="#E7BC3A" offset=".4319"/>
							<stop stop-color="#D59A36" offset=".989"/>
							<stop stop-color="#D49936" offset="1"/>
						</radialGradient>
						<path class="st54" d="m493.8 680.9c0.1-0.1 0.1 0.1 0.2 0.1 0.7 0.1 1.9-0.1 3 0 0.5 0.1 1 0.2 1.4 0.3 0 0 0.1 0 0.1 0.1 0.9 0.5 1.9 1.2 3 1.9 0.7 0.4 1.4 0.8 2.2 1.2 1.9 0.9 4.1 1.7 6.4 2.4 0.2 0.1 0.4 0.1 0.6 0.2 3.4 0.9 6.5 1.1 9 1.2 0.9 0 3 0 4.6 0.2h0.1c0.2 0 0.4 0.1 0.7 0.3 0.1 0 0.1 0.1 0.2 0.1 0.5 0.3 0.8 0.7 1.1 0.9 0.2 0.1 0.3 0.2 0.3 0.2 0.1 0 0.1-0.1 0.1-0.2l-0.1 0.1c-0.2 0.1-0.5 0.3-0.9 0.4-0.3 0.1-0.6 0-0.9 0-0.4-0.1-0.7-0.1-1-0.2h-0.1c-0.2 0-0.4-0.1-0.6-0.1-0.4-0.1-0.6-0.1-0.8-0.1h-0.1c-3.5 0.2-8-0.2-12.5-1.4-3.5-0.9-6.7-2.2-8.9-3.7h-0.1c-0.7-0.3-1.4-0.6-2.1-1-0.7-0.3-1.4-0.7-1.9-1.1h-0.1c-0.2-0.1-0.6-0.2-1.1-0.3-0.5-0.2-1.1-0.3-1.5-0.6-0.2-0.2-0.4-0.3-0.5-0.6 0.2-0.1 0.2-0.2 0.2-0.3z"/>
							<radialGradient id="as" cx="5818.3" cy="735.12" r="1.2107" gradientTransform="matrix(-2.034 6.6829 10.672 2.5766 4496.7 -40089)" gradientUnits="userSpaceOnUse">
							<stop stop-color="#F3D33D" offset="0"/>
							<stop stop-color="#E8BF3B" offset=".3855"/>
							<stop stop-color="#D49836" offset=".989"/>
							<stop stop-color="#D39736" offset="1"/>
						</radialGradient>
						<path class="st55" d="m493.8 680.9c0.1-0.1 0.1 0.1 0.2 0.1 0.7 0.2 1.9 0 3 0.1 0.6 0.1 1.1 0.2 1.4 0.3 0 0 0.1 0 0.1 0.1 0.8 0.6 1.9 1.2 3 1.9 0.7 0.4 1.4 0.8 2.2 1.2 1.9 0.9 4.1 1.7 6.4 2.4 0.2 0.1 0.4 0.1 0.6 0.2 3.4 0.9 6.5 1.1 9 1.2 1 0 3.1 0 4.6 0.2h0.1c0.2 0 0.4 0.1 0.7 0.2 0.1 0 0.1 0.1 0.2 0.1 0.5 0.2 0.9 0.6 1.2 0.8 0.2 0.1 0.3 0.2 0.4 0.2 0.1-0.1 0.1-0.2 0.1-0.3l-0.1 0.1c-0.2 0.1-0.4 0.4-0.8 0.5-0.3 0.1-0.6 0.1-0.9 0-0.4 0-0.7-0.1-1-0.2h-0.1c-0.2 0-0.4-0.1-0.6-0.1-0.4-0.1-0.6-0.1-0.8-0.1h-0.1c-3.5 0.2-8-0.2-12.6-1.4-3.4-0.9-6.4-2.1-8.6-3.5h-0.1c-0.7-0.3-1.5-0.6-2.2-1s-1.4-0.8-2-1.2c0 0-0.1 0-0.1-0.1-0.2-0.1-0.6-0.2-1.1-0.3-0.6-0.2-1.1-0.3-1.5-0.6-0.3-0.2-0.4-0.3-0.5-0.6-0.2 0-0.1-0.1-0.1-0.2z"/>
							<radialGradient id="ar" cx="5818.4" cy="735.14" r="1.1098" gradientTransform="matrix(-2.034 6.6829 10.672 2.5766 4496.7 -40089)" gradientUnits="userSpaceOnUse">
							<stop stop-color="#F3D33D" offset="0"/>
							<stop stop-color="#E9C13B" offset=".3527"/>
							<stop stop-color="#D39636" offset=".989"/>
							<stop stop-color="#D29636" offset="1"/>
						</radialGradient>
						<path class="st56" d="m493.8 680.9c0-0.1 0.1 0.1 0.1 0.1 0.6 0.3 1.9 0.1 2.9 0.3 0.6 0.1 1.1 0.2 1.4 0.3 0 0 0.1 0 0.1 0.1 0.8 0.6 1.9 1.2 3 1.9 0.7 0.4 1.4 0.8 2.2 1.2 1.9 0.9 4 1.7 6.4 2.3 0.2 0.1 0.4 0.1 0.6 0.2 3.3 0.9 6.4 1.2 8.9 1.3 1.1 0 3.1 0 4.5 0.1h0.1c0.2 0 0.4 0.1 0.7 0.2 0.1 0 0.1 0.1 0.2 0.1 0.5 0.2 0.9 0.6 1.2 0.8h0.1c0.2 0.1 0.4 0.2 0.5 0.1s0.2-0.2 0.2-0.3l-0.1 0.1c-0.2 0.2-0.4 0.4-0.8 0.5-0.3 0.1-0.6 0.1-0.9 0.1-0.4 0-0.7-0.1-1-0.2h-0.1c-0.2 0-0.4-0.1-0.6-0.1-0.4-0.1-0.7-0.1-0.9-0.1h-0.1c-3.5 0.2-8-0.1-12.6-1.4-3.2-0.9-6.2-2-8.4-3.3h-0.1c-0.7-0.3-1.5-0.7-2.3-1.1s-1.4-0.8-2.1-1.2c0 0-0.1 0-0.1-0.1-0.2-0.1-0.7-0.2-1.1-0.3-0.6-0.2-1.2-0.3-1.6-0.6-0.3-0.2-0.5-0.3-0.6-0.6 0.2-0.2 0.2-0.3 0.3-0.4z"/>
							<radialGradient id="ap" cx="5818.5" cy="735.16" r="1.0117" gradientTransform="matrix(-2.034 6.6829 10.672 2.5766 4496.7 -40089)" gradientUnits="userSpaceOnUse">
							<stop stop-color="#F4D43D" offset="0"/>
							<stop stop-color="#EBC33B" offset=".3255"/>
							<stop stop-color="#D39636" offset=".969"/>
							<stop stop-color="#D29536" offset=".989"/>
							<stop stop-color="#D19436" offset="1"/>
						</radialGradient>
						<path class="st57" d="m493.8 680.9c0-0.1 0.1 0.1 0.1 0.1 0.6 0.4 1.9 0.2 2.9 0.4 0.6 0.1 1.1 0.2 1.4 0.4 0 0 0.1 0 0.1 0.1 0.8 0.6 1.8 1.2 3 1.9 0.7 0.4 1.4 0.8 2.2 1.2 1.9 0.9 4 1.7 6.3 2.3 0.2 0.1 0.4 0.1 0.6 0.2 3.3 0.8 6.3 1.2 8.9 1.3 1.2 0.1 3.1 0 4.5 0.1h0.1c0.2 0 0.4 0.1 0.7 0.2 0.1 0 0.1 0.1 0.2 0.1 0.4 0.2 0.9 0.5 1.3 0.7h0.1c0.2 0.1 0.4 0.1 0.5 0.1 0.2-0.1 0.2-0.2 0.3-0.4l-0.1 0.1c-0.2 0.2-0.4 0.4-0.8 0.6-0.3 0.1-0.6 0.1-0.9 0.1-0.4 0-0.7-0.1-1-0.2h-0.1c-0.2 0-0.4-0.1-0.6-0.1-0.4-0.1-0.7-0.2-0.9-0.2h-0.1c-3.5 0.2-8.1-0.1-12.7-1.4-3.1-0.8-5.9-1.9-8.1-3.2h-0.1c-0.8-0.3-1.6-0.7-2.3-1.1-0.8-0.4-1.5-0.9-2.1-1.3 0 0-0.1 0-0.1-0.1-0.2-0.1-0.7-0.2-1.2-0.3-0.6-0.2-1.2-0.3-1.7-0.6-0.3-0.2-0.5-0.3-0.6-0.6 0.1-0.1 0.1-0.3 0.2-0.4z"/>
							<radialGradient id="ao" cx="5818.5" cy="735.17" r=".9156" gradientTransform="matrix(-2.034 6.6829 10.672 2.5766 4496.7 -40089)" gradientUnits="userSpaceOnUse">
							<stop stop-color="#F4D43D" offset="0"/>
							<stop stop-color="#EBC43B" offset=".3025"/>
							<stop stop-color="#D59B37" offset=".891"/>
							<stop stop-color="#D19336" offset=".989"/>
							<stop stop-color="#D19336" offset="1"/>
						</radialGradient>
						<path class="st58" d="m493.8 680.9c0-0.1 0.1 0.1 0.1 0.2 0.5 0.4 1.9 0.3 2.9 0.5 0.6 0.1 1.1 0.2 1.4 0.4 0 0 0.1 0 0.1 0.1 0.8 0.6 1.8 1.3 3 1.9 0.7 0.4 1.4 0.8 2.2 1.2 1.9 0.9 4 1.7 6.3 2.3 0.2 0.1 0.4 0.1 0.6 0.2 3.2 0.8 6.3 1.2 8.8 1.3 1.3 0.1 3.1 0 4.5 0h0.1c0.2 0 0.4 0.1 0.7 0.2 0.1 0 0.1 0 0.2 0.1 0.4 0.2 0.9 0.5 1.4 0.6h0.1c0.3 0 0.5 0.1 0.6 0 0.2-0.1 0.3-0.3 0.3-0.4l-0.1 0.1c-0.1 0.2-0.4 0.5-0.8 0.6-0.3 0.1-0.6 0.1-0.9 0.1-0.4 0-0.7-0.1-1-0.2h-0.1c-0.2 0-0.4-0.1-0.6-0.1-0.4-0.1-0.7-0.2-0.9-0.2h-0.1c-3.5 0.2-8.1-0.1-12.8-1.3-3-0.8-5.7-1.8-7.8-3h-0.1l-2.4-1.2c-0.8-0.4-1.5-0.9-2.2-1.4 0 0-0.1 0-0.1-0.1-0.2-0.1-0.7-0.2-1.2-0.3-0.6-0.2-1.3-0.3-1.7-0.6-0.3-0.2-0.5-0.3-0.6-0.6 0-0.1 0-0.3 0.1-0.4z"/>
							<radialGradient id="an" cx="5818.6" cy="735.19" r=".8213" gradientTransform="matrix(-2.034 6.6829 10.672 2.5766 4496.7 -40089)" gradientUnits="userSpaceOnUse">
							<stop stop-color="#F4D53D" offset="0"/>
							<stop stop-color="#ECC63B" offset=".283"/>
							<stop stop-color="#D89F37" offset=".8246"/>
							<stop stop-color="#D19235" offset=".989"/>
							<stop stop-color="#D09135" offset="1"/>
						</radialGradient>
						<path class="st59" d="m493.8 680.9c0-0.1 0.1 0.1 0.1 0.2 0.5 0.5 1.8 0.4 2.9 0.6 0.6 0.1 1.1 0.2 1.4 0.4 0 0 0.1 0 0.1 0.1 0.8 0.6 1.8 1.3 2.9 1.9 0.7 0.4 1.4 0.8 2.2 1.2 1.9 0.9 4 1.7 6.3 2.3 0.2 0.1 0.4 0.1 0.6 0.2 3.2 0.8 6.2 1.2 8.8 1.4 1.4 0.1 3.1 0 4.5 0h0.1c0.2 0 0.4 0.1 0.7 0.2 0.1 0 0.1 0 0.2 0.1 0.4 0.2 0.9 0.5 1.4 0.6h0.1c0.3 0 0.5 0.1 0.7 0s0.4-0.3 0.4-0.4v0.1c-0.1 0.2-0.4 0.5-0.8 0.7-0.3 0.1-0.6 0.1-0.9 0.1-0.4 0-0.7-0.1-1-0.2h-0.1c-0.2-0.1-0.4-0.1-0.6-0.2-0.4-0.1-0.7-0.2-0.9-0.2h-0.1c-3.5 0.2-8.2-0.1-12.9-1.3-2.8-0.8-5.5-1.7-7.6-2.9h-0.1c-0.9-0.4-1.7-0.8-2.5-1.2-0.8-0.5-1.5-1-2.2-1.4 0 0-0.1 0-0.1-0.1-0.2-0.1-0.7-0.2-1.3-0.3-0.6-0.2-1.3-0.3-1.8-0.6-0.3-0.2-0.5-0.4-0.7-0.6 0.1-0.4 0.1-0.5 0.2-0.7z"/>
							<radialGradient id="am" cx="5818.7" cy="735.21" r=".7287" gradientTransform="matrix(-2.034 6.6829 10.672 2.5766 4496.7 -40089)" gradientUnits="userSpaceOnUse">
							<stop stop-color="#F4D53D" offset="0"/>
							<stop stop-color="#EDC73B" offset=".2662"/>
							<stop stop-color="#DAA237" offset=".7675"/>
							<stop stop-color="#D09035" offset=".989"/>
							<stop stop-color="#CF8F35" offset="1"/>
						</radialGradient>
						<path class="st60" d="m493.8 680.9c0-0.1 0.1 0.1 0.1 0.2 0.5 0.6 1.8 0.6 2.9 0.8 0.6 0.1 1.1 0.2 1.4 0.4 0 0 0.1 0 0.1 0.1 0.8 0.6 1.8 1.3 2.9 1.9 0.7 0.4 1.4 0.8 2.2 1.1 1.9 0.9 4 1.6 6.3 2.3 0.2 0.1 0.4 0.1 0.6 0.2 3.1 0.8 6.1 1.2 8.8 1.4 1.4 0.1 3.1 0 4.5 0h0.1c0.2 0 0.4 0.1 0.7 0.2 0.1 0 0.1 0 0.2 0.1 0.4 0.2 1 0.4 1.5 0.5h0.1c0.3 0 0.6 0 0.8-0.1 0.3-0.1 0.4-0.3 0.5-0.5v0.1c-0.1 0.2-0.3 0.5-0.8 0.7-0.3 0.1-0.6 0.2-0.9 0.2-0.4 0-0.7-0.1-1-0.2h-0.1c-0.2-0.1-0.4-0.1-0.6-0.2-0.4-0.1-0.7-0.2-0.9-0.2h-0.1c-3.5 0.2-8.2-0.1-12.9-1.3-2.7-0.7-5.2-1.6-7.3-2.7h-0.1c-0.9-0.4-1.7-0.8-2.5-1.3-0.9-0.5-1.6-1-2.3-1.5 0 0-0.1 0-0.1-0.1-0.2-0.1-0.7-0.2-1.3-0.3-0.7-0.2-1.3-0.3-1.9-0.6-0.3-0.2-0.6-0.4-0.7-0.6-0.3-0.3-0.3-0.4-0.2-0.6z"/>
							<radialGradient id="al" cx="5818.7" cy="735.23" r=".6371" gradientTransform="matrix(-2.034 6.6829 10.672 2.5766 4496.7 -40089)" gradientUnits="userSpaceOnUse">
							<stop stop-color="#F5D63D" offset="0"/>
							<stop stop-color="#EEC93C" offset=".2517"/>
							<stop stop-color="#DBA638" offset=".7181"/>
							<stop stop-color="#CF8F35" offset=".989"/>
							<stop stop-color="#CE8E35" offset="1"/>
						</radialGradient>
						<path class="st61" d="m493.8 680.9c0-0.1 0 0.2 0.1 0.2 0.4 0.6 1.8 0.7 2.9 0.9 0.6 0.1 1.1 0.3 1.4 0.4 0 0 0.1 0 0.1 0.1 0.8 0.6 1.8 1.3 2.9 1.9 0.7 0.4 1.4 0.8 2.2 1.1 1.9 0.9 4 1.6 6.2 2.3 0.2 0.1 0.4 0.1 0.6 0.2 3 0.8 6.1 1.3 8.7 1.4 1.5 0.1 3.1 0 4.4-0.1h0.1c0.2 0 0.4 0.1 0.7 0.2 0.1 0 0.1 0 0.2 0.1 0.4 0.2 1 0.4 1.5 0.4h0.1c0.3 0 0.6 0 0.9-0.1s0.5-0.3 0.6-0.5v0.1c-0.1 0.2-0.3 0.6-0.8 0.8-0.3 0.1-0.6 0.2-0.9 0.2-0.4 0-0.7-0.1-1-0.2h-0.1c-0.2-0.1-0.5-0.1-0.6-0.2-0.5-0.1-0.7-0.2-0.9-0.2h-0.1c-3.5 0.2-8.3-0.1-13-1.3-2.6-0.7-5-1.6-7-2.5h-0.1c-0.9-0.4-1.8-0.9-2.6-1.3-0.9-0.5-1.6-1.1-2.3-1.6 0 0-0.1 0-0.1-0.1-0.2-0.1-0.7-0.2-1.3-0.3-0.7-0.2-1.4-0.3-1.9-0.6-0.3-0.2-0.6-0.4-0.8-0.6-0.2-0.4-0.2-0.5-0.1-0.7z"/>
							<radialGradient id="ak" cx="5818.8" cy="735.25" r=".5461" gradientTransform="matrix(-2.034 6.6829 10.672 2.5766 4496.7 -40089)" gradientUnits="userSpaceOnUse">
							<stop stop-color="#F5D63D" offset="0"/>
							<stop stop-color="#EECA3C" offset=".2392"/>
							<stop stop-color="#DCA938" offset=".6752"/>
							<stop stop-color="#CD8C35" offset="1"/>
						</radialGradient>
						<path class="st62" d="m523.1 689.8c-3.6 0.4-8.4 0-13.2-1.3-2.5-0.7-4.8-1.5-6.8-2.4s-3.8-2-5.1-3l-0.1-0.1c-0.2-0.1-0.7-0.2-1.4-0.4-1.2-0.3-2.4-0.5-2.8-1.2-0.1-0.1-0.1-0.3 0-0.5 0-0.1 0 0.2 0.1 0.3 0.4 0.7 1.8 0.8 2.9 1 0.6 0.1 1.1 0.3 1.4 0.4 0 0 0.1 0 0.1 0.1 1.3 1.1 3 2.1 5.1 3 2 0.9 4.3 1.7 6.8 2.4 4.8 1.3 9.6 1.8 13.1 1.3h0.1c0.2 0 0.4 0.1 0.9 0.2 0.7 0.2 1.8 0.6 2.7 0.2 0.3-0.1 0.5-0.4 0.6-0.6v0.1c-0.1 0.2-0.3 0.6-0.8 0.8-0.9 0.4-2 0.1-2.7-0.2-0.4 0-0.7-0.1-0.9-0.1z"/>
						<radialGradient id="aj" cx="5817.3" cy="734.09" r=".3631" gradientTransform="matrix(-2.034 6.6829 10.672 2.5766 4496.7 -40089)" gradientUnits="userSpaceOnUse">
						<stop stop-color="#F5D63D" offset="0"/>
						<stop stop-color="#EECA3C" offset=".2392"/>
						<stop stop-color="#DCA938" offset=".6752"/>
						<stop stop-color="#CD8C35" offset="1"/>
					</radialGradient>
					<path class="st63" d="m495.2 682.3c-0.4-0.2-0.7-0.4-0.9-0.7-0.1-0.1-0.1-0.3 0-0.5 0-0.1 0.1-0.1 0.2-0.2 1.2-1 2.4-1.6 3.3-1.6 0.3 0 0.7 0.1 1.1 0.2-0.6-0.3-1.2-0.4-1.6-0.4-0.9 0-2 0.6-3.3 1.6-0.1 0.1-0.1 0.1-0.1 0.2-0.1 0.2 0 0.3 0 0.5 0.2 0.4 0.7 0.7 1.3 0.9z"/>
					<path class="st31" d="m511.4 686c-1.2-0.3-2.3-0.7-3.3-1 1.2 0.5 2.5 0.9 3.8 1.3 4.3 1.2 7.9 1.3 10.2 1.2 0 0 3.9 0 5.5 1-0.1-0.1-0.2-0.2-0.4-0.3-1.6-1.1-5.6-1-5.6-1-2.4-0.1-5.9-0.1-10.2-1.2z"/>
					<path class="st31" d="m498.6 679.6h-0.2c-0.9-0.1-2.2 0.3-3.7 1.1 0.2 0 0.4 0 0.6 0.1 1.5-0.7 2.8-1.1 3.6-1h0.2-0.1-0.1-0.1-0.1c0.1-0.2 0-0.2-0.1-0.2 0.1 0 0 0 0 0z"/>
			<path class="st64" d="m493 673.7h-0.2-0.2v0.1 0.2 0.1c0 0.1-0.1 0.2-0.3 0.3-0.1 0-0.2 0.1-0.4 0s-0.3-0.2-0.3-0.4v-0.1-0.1l0.1-0.1h-0.2-0.2v0.1c-0.1 0.2-0.3 0.3-0.5 0.3-0.1 0-0.2-0.1-0.3-0.2s-0.1-0.2-0.1-0.3c-2.5-0.1-4.6 1-4.7 2.6v0.2h-0.2c0.2 1.4 1.7 2.8 3.9 3.5 0-0.1 0.1-0.2 0.3-0.3 0.1 0 0.2-0.1 0.4 0 0.1 0 0.1 0.1 0.2 0.1 0.1-0.1 0.3-0.2 0.4-0.2s0.2 0.1 0.3 0.2 0.1 0.2 0.1 0.3v0.1l-0.1 0.2v0.1l0.2 0.1 0.6 0.2c1.9 0 3.5-0.6 4.2-1.7l-0.4-0.1c0.1-0.2 0.2-0.4 0.3-0.5 0-0.1 0.1-0.2 0.1-0.3 0.4-1.8-0.9-3.5-3-4.4z"/>
				<path class="st38" d="m491.3 675.4c-1-0.3-2.1 0-2.3 0.6-0.3 0.6 0.4 1.4 1.4 1.7s2.1 0 2.3-0.6c0.2-0.7-0.4-1.4-1.4-1.7z"/>
				<path class="st39" d="m498.5 676.7h-0.2l-2.4-0.1c0.1 0.2 0.1 0.4 0.1 0.6v0.3c-0.2 1.8-2.5 2.9-5.2 2.6l-0.6-0.1h-0.2l0.1-0.1 0.1-0.2v-0.1c0-0.2-0.1-0.4-0.3-0.4h-0.4l-0.3 0.3-0.1 0.4v0.1h-0.1l-9.2-1-6-2.4h-0.1l-0.5-0.5v-1.1-0.1h0.2l2.3 0.3h0.3l-0.1 0.1h0.1 0.1c0.2 0 0.4 0 0.5 0.1s0.2 0.2 0.1 0.3c0 0 0 0.1-0.1 0.1v0.1h0.1 0.1c0.2 0 0.4 0 0.6 0.1s0.2 0.2 0.2 0.3v0.1h0.1 0.1c0.2-0.1 0.4-0.1 0.5-0.1 0.2 0 0.3 0.2 0.4 0.3v0.1s0 0.1 0.1 0.1v-0.1-0.1c0.1-0.1 0.2-0.2 0.4-0.2s0.4 0.1 0.6 0.2l0.1 0.1s0.1 0 0.1 0.1v-0.1c0-0.1 0.1-0.2 0.2-0.3 0.2 0 0.4 0 0.6 0.1l0.1 0.1h0.1v-0.1c0-0.1-0.1-0.1-0.1-0.2s0.1-0.1 0.2-0.2h0.5 0.1 0.1l-0.1-0.2h0.3l3.4 0.4v-0.2c0.2-1.8 2.5-2.9 5.2-2.6 0.2 0 0.4 0 0.6 0.1h0.2v0.1 0.1 0.1c0 0.2 0.1 0.4 0.3 0.4h0.4c0.1-0.1 0.2-0.1 0.3-0.3v-0.1-0.2-0.1h0.2l5.8 0.6h0.2v0.1l0.1 2.4h-0.2z"/>
					<linearGradient id="ai" x1="594.78" x2="605.11" y1="445.42" y2="445.42" gradientTransform="matrix(.055797 -.5893 .9652 .1557 22.099 962.35)" gradientUnits="userSpaceOnUse">
					<stop stop-color="#BFBFBF" offset=".3791"/>
					<stop stop-color="#ACACAC" offset=".3913"/>
					<stop stop-color="#9C9C9C" offset=".4073"/>
					<stop stop-color="#909090" offset=".4273"/>
					<stop stop-color="#898989" offset=".4553"/>
					<stop stop-color="#878787" offset=".533"/>
					<stop stop-color="#939393" offset=".5638"/>
					<stop stop-color="#B2B2B2" offset=".6192"/>
					<stop stop-color="#D9D9D9" offset=".6758"/>
					<stop stop-color="#D6D6D6" offset=".799"/>
					<stop stop-color="#CECECE" offset=".8731"/>
					<stop stop-color="#C0C0C0" offset=".9342"/>
					<stop stop-color="#ABABAB" offset=".9879"/>
					<stop stop-color="#A6A6A6" offset="1"/>
				</linearGradient>
				<path class="st65" d="m498.3 674.1-5.8-0.6v0.2 0.1c-0.1 0.3-0.5 0.5-0.8 0.4-0.4-0.1-0.6-0.4-0.5-0.7v-0.1c-0.2 0-0.4-0.1-0.6-0.1-2.8-0.3-5.1 0.9-5.1 2.8v0.1l-3.6-0.4c0.1 0.1 0 0.2-0.3 0.1h-0.1c-0.4-0.1-0.6 0-0.4 0.2v0.1c0.1 0.2 0 0.3-0.3 0.1l-0.1-0.1c-0.3-0.1-0.6-0.1-0.6 0.1v0.1c0 0.2-0.2 0.2-0.4 0l-0.1-0.1c-0.2-0.2-0.5-0.2-0.7 0v0.1c-0.1 0.2-0.3 0.2-0.4 0v-0.1c-0.1-0.2-0.4-0.3-0.7-0.1h-0.1c-0.2 0.1-0.4 0.1-0.4-0.1v-0.1c0-0.2-0.3-0.3-0.6-0.2h-0.1c-0.3 0.1-0.5 0-0.3-0.2v-0.1c0.1-0.2-0.1-0.3-0.4-0.3h-0.1c-0.3 0-0.4-0.1-0.3-0.2l-2.3-0.2v1.1l0.5 0.5 6 2.4 9.2 1 0.1-0.4c0.1-0.3 0.5-0.4 0.8-0.4 0.4 0.1 0.6 0.4 0.5 0.7l-0.1 0.2 0.6 0.1c2.8 0.3 5.1-0.9 5.1-2.8 0-0.3-0.1-0.5-0.1-0.7l2.6 0.1-0.1-2.5z"/>
				<path class="st40" d="m490.8 678c-1.2-0.1-2.2-0.9-2.2-1.6 0-0.8 0.9-1.3 2.2-1.2 1.2 0.1 2.2 0.9 2.2 1.6-0.1 0.8-1 1.3-2.2 1.2z"/>
				<path class="st41" d="m490.8 677.8c-1.1-0.1-1.9-0.8-1.9-1.4 0-0.7 0.8-1.2 1.9-1 1.1 0.1 1.9 0.8 1.9 1.4 0 0.7-0.9 1.1-1.9 1z"/>
							<radialGradient id="ah" cx="702.99" cy="416.24" r="3.1469" gradientTransform="matrix(.6934 -6.9511 10.842 1.727 -4493.1 4849.2)" gradientUnits="userSpaceOnUse">
							<stop stop-color="#F0CD3C" offset="0"/>
							<stop stop-color="#DEAB38" offset=".989"/>
						</radialGradient>
						<path class="st66" d="m529.6 678.9c0 0.8-0.5 1.3-1.3 1.5-1.9 0.4-5.5-1.2-5.6-1.2-2.1-1-5.4-2.3-9.8-2.9-3.8-0.5-7.4-0.5-9.9 0.2-2.5 0.6-4.4 0.7-5.4 0.3-0.8-0.4-1.6-1.3-2.4-2.7 0-0.1-0.1-0.2-0.1-0.2 0-0.2 0.1-0.3 0.2-0.4 0.7-0.5 1.9-0.3 3 0 0.6 0.1 1.1 0.2 1.4 0.2h0.1c3.2-1 8-1.1 13-0.4 4.9 0.7 9.5 2.1 12.6 3.8h0.1c0.2 0.1 0.4 0.1 0.9 0.1 0.7 0 1.9 0.1 2.6 0.9 0.5 0.1 0.6 0.5 0.6 0.8z"/>
							<radialGradient id="ag" cx="703.14" cy="416.25" r="2.8995" gradientTransform="matrix(.6934 -6.9511 10.842 1.727 -4493.1 4849.2)" gradientUnits="userSpaceOnUse">
							<stop stop-color="#F0CD3C" offset="0"/>
							<stop stop-color="#DDA938" offset=".989"/>
							<stop stop-color="#DDA938" offset="1"/>
						</radialGradient>
						<path class="st67" d="m495.4 673.3c0.7-0.5 1.9-0.3 3 0 0.6 0.1 1.1 0.2 1.4 0.2h0.1c3.2-1 8-1.1 13-0.4 4.9 0.7 9.4 2.1 12.5 3.8h0.1c0.2 0.1 0.4 0.1 0.9 0.1 0.4 0 1 0.1 1.5 0.3h0.1c0.3 0.1 0.7 0.3 0.9 0.6 0.3 0.4 0.4 0.8 0.4 1v0.1c0 0.3-0.1 0.6-0.3 0.9-0.2 0.2-0.4 0.4-0.7 0.5h-0.1-0.8c-0.8-0.1-1.9-0.3-2.7-0.5-0.3-0.1-0.6-0.2-0.9-0.3h-0.1c-0.6-0.2-1-0.4-1.1-0.4-2.1-1-5.4-2.3-9.8-2.9-0.5-0.1-1-0.1-1.5-0.2-3.2-0.3-6.2-0.2-8.3 0.3-1.9 0.5-3.4 0.6-4.5 0.5h-0.1c-0.3 0-0.6-0.1-0.8-0.2s-0.3-0.2-0.5-0.3c-0.7-0.5-1.4-1.3-2-2.3 0-0.1-0.1-0.1-0.1-0.2 0.2-0.4 0.3-0.5 0.4-0.6z"/>
							<radialGradient id="ae" cx="703.29" cy="416.27" r="2.6737" gradientTransform="matrix(.6934 -6.9511 10.842 1.727 -4493.1 4849.2)" gradientUnits="userSpaceOnUse">
							<stop stop-color="#F1CE3C" offset="0"/>
							<stop stop-color="#DCA838" offset=".989"/>
							<stop stop-color="#DCA838" offset="1"/>
						</radialGradient>
						<path class="st68" d="m495.4 673.3c0.7-0.5 1.9-0.3 3 0 0.6 0.1 1.1 0.2 1.4 0.2h0.1c3.2-1 8-1.1 13-0.4 4.8 0.7 9.3 2 12.4 3.7h0.1c0.2 0.1 0.4 0.1 0.9 0.1 0.4 0 1 0.1 1.5 0.3h0.1c0.3 0.1 0.7 0.3 0.9 0.6 0.3 0.3 0.4 0.7 0.5 0.9v0.1c0 0.3 0 0.6-0.2 0.8-0.1 0.2-0.4 0.4-0.7 0.5h-0.1-0.8c-0.8-0.1-1.9-0.3-2.7-0.6-0.3-0.1-0.6-0.2-0.9-0.3h-0.1c-0.6-0.2-1-0.4-1.1-0.4-2.1-1-5.5-2.3-9.8-2.9-0.5-0.1-1-0.1-1.5-0.2-3.2-0.3-6.2-0.2-8.4 0.3-1.9 0.4-3.4 0.6-4.5 0.5h-0.1c-0.3 0-0.6-0.1-0.8-0.2s-0.3-0.2-0.5-0.3c-0.7-0.5-1.4-1.2-2-2.2 0-0.1-0.1-0.1-0.1-0.2 0.2-0.1 0.3-0.2 0.4-0.3z"/>
							<radialGradient id="ad" cx="703.42" cy="416.28" r="2.4675" gradientTransform="matrix(.6934 -6.9511 10.842 1.727 -4493.1 4849.2)" gradientUnits="userSpaceOnUse">
							<stop stop-color="#F1CE3C" offset="0"/>
							<stop stop-color="#DBA638" offset=".989"/>
							<stop stop-color="#DBA638" offset="1"/>
						</radialGradient>
						<path class="st69" d="m495.4 673.3c0.7-0.5 1.9-0.3 3 0 0.6 0.1 1.1 0.2 1.4 0.2h0.1c3.2-1 8-1.1 13-0.4 4.8 0.6 9.2 2 12.3 3.7h0.1c0.2 0.1 0.4 0.1 0.9 0.1 0.4 0 1 0.1 1.5 0.3h0.1c0.3 0.1 0.6 0.3 0.9 0.5 0.3 0.3 0.5 0.7 0.6 0.9v0.1c0 0.3 0 0.6-0.1 0.8s-0.3 0.4-0.6 0.5h-0.1c-0.2 0-0.5 0-0.8-0.1-0.8-0.1-1.9-0.4-2.7-0.6-0.3-0.1-0.6-0.2-0.9-0.3h-0.1c-0.6-0.2-1-0.4-1.1-0.4-2.2-1-5.5-2.3-9.9-2.9-0.5-0.1-1-0.1-1.5-0.2-3.2-0.3-6.2-0.2-8.4 0.3-1.8 0.4-3.4 0.6-4.5 0.5h-0.1c-0.3 0-0.5-0.1-0.8-0.2-0.2-0.1-0.3-0.2-0.5-0.3-0.7-0.4-1.5-1.2-2.1-2.1 0-0.1-0.1-0.1-0.1-0.2 0.2 0 0.3-0.1 0.4-0.2z"/>
							<radialGradient id="ac" cx="703.55" cy="416.3" r="2.2793" gradientTransform="matrix(.6934 -6.9511 10.842 1.727 -4493.1 4849.2)" gradientUnits="userSpaceOnUse">
							<stop stop-color="#F1CF3C" offset="0"/>
							<stop stop-color="#DBA537" offset=".989"/>
							<stop stop-color="#DAA437" offset="1"/>
						</radialGradient>
						<path class="st70" d="m495.4 673.3c0.7-0.5 1.9-0.3 3 0 0.6 0.1 1.1 0.2 1.4 0.2h0.1c3.2-1 8-1.1 13-0.4 4.7 0.6 9.1 2 12.2 3.6h0.1c0.2 0.1 0.4 0.1 0.9 0.2 0.4 0.1 0.9 0.1 1.5 0.3h0.1c0.3 0.1 0.6 0.3 0.9 0.5 0.4 0.3 0.5 0.6 0.6 0.9v0.1c0.1 0.3 0 0.6-0.1 0.8s-0.3 0.4-0.5 0.6h-0.1c-0.2 0-0.5 0-0.7-0.1-0.8-0.2-1.9-0.4-2.7-0.6-0.4-0.1-0.6-0.2-0.9-0.3h-0.1c-0.6-0.2-1-0.4-1.1-0.4-2.2-1-5.6-2.3-9.9-2.9-0.5-0.1-1-0.1-1.5-0.2-3.2-0.3-6.2-0.3-8.4 0.2-1.8 0.4-3.4 0.6-4.5 0.6h-0.1c-0.3 0-0.5-0.1-0.8-0.2-0.2-0.1-0.3-0.1-0.5-0.2-0.8-0.4-1.5-1.2-2.2-2 0-0.1-0.1-0.1-0.1-0.1 0.2-0.4 0.3-0.5 0.4-0.6z"/>
							<radialGradient id="ab" cx="703.67" cy="416.31" r="2.1073" gradientTransform="matrix(.6934 -6.9511 10.842 1.727 -4493.1 4849.2)" gradientUnits="userSpaceOnUse">
							<stop stop-color="#F1CF3C" offset="0"/>
							<stop stop-color="#DAA337" offset=".989"/>
							<stop stop-color="#DAA337" offset="1"/>
						</radialGradient>
						<path class="st71" d="m495.4 673.3c0.7-0.5 1.9-0.3 3 0 0.6 0.1 1.1 0.2 1.4 0.2h0.1c3.2-1 8-1.1 13-0.4 4.7 0.6 9 1.9 12.1 3.6h0.1c0.2 0.1 0.4 0.1 0.8 0.2s0.9 0.2 1.4 0.3h0.1c0.3 0.1 0.6 0.2 0.9 0.5 0.4 0.3 0.5 0.6 0.7 0.8v0.1c0.1 0.3 0.1 0.6 0 0.8s-0.2 0.5-0.5 0.6h-0.1c-0.2 0-0.4-0.1-0.7-0.2-0.8-0.2-1.8-0.4-2.7-0.6-0.4-0.1-0.6-0.2-0.9-0.2h-0.1c-0.5-0.2-0.9-0.4-1-0.5-2.2-1.1-5.6-2.3-9.9-2.9-0.5-0.1-1-0.1-1.6-0.2-3.2-0.3-6.2-0.3-8.4 0.2-1.8 0.4-3.3 0.6-4.5 0.6h-0.1c-0.3 0-0.5-0.1-0.8-0.2-0.2-0.1-0.3-0.1-0.5-0.2-0.8-0.4-1.6-1.2-2.2-1.8l-0.1-0.1c0.3-0.4 0.4-0.5 0.5-0.6z"/>
							<radialGradient id="aa" cx="703.79" cy="416.33" r="1.95" gradientTransform="matrix(.6934 -6.9511 10.842 1.727 -4493.1 4849.2)" gradientUnits="userSpaceOnUse">
							<stop stop-color="#F2D03C" offset="0"/>
							<stop stop-color="#DCA838" offset=".8762"/>
							<stop stop-color="#D9A237" offset=".989"/>
							<stop stop-color="#D9A137" offset="1"/>
						</radialGradient>
						<path class="st72" d="m495.4 673.3c0.7-0.5 1.9-0.3 3 0 0.6 0.1 1.1 0.2 1.4 0.2h0.1c3.2-1 8-1.1 13-0.4 4.6 0.6 8.9 1.9 12 3.5h0.1c0.2 0.1 0.4 0.1 0.8 0.2s0.9 0.2 1.4 0.4h0.1c0.3 0.1 0.6 0.2 0.9 0.4 0.4 0.2 0.5 0.6 0.7 0.8v0.1c0.1 0.3 0.1 0.5 0.1 0.8s-0.2 0.5-0.4 0.6h-0.1c-0.2 0-0.4-0.1-0.7-0.2-0.8-0.3-1.8-0.5-2.7-0.6-0.4-0.1-0.7-0.2-0.9-0.2h-0.1c-0.5-0.2-0.9-0.4-1-0.5-2.3-1.1-5.6-2.3-9.9-2.9-0.5-0.1-1-0.1-1.6-0.2-3.2-0.3-6.2-0.3-8.4 0.2-1.8 0.4-3.3 0.6-4.5 0.6h-0.1c-0.3 0-0.5-0.1-0.8-0.2-0.2-0.1-0.3-0.1-0.5-0.2-0.8-0.4-1.6-1.1-2.3-1.7 0 0-0.1 0-0.1-0.1 0.3-0.4 0.4-0.5 0.5-0.6z"/>
							<radialGradient id="z" cx="703.9" cy="416.34" r="1.8055" gradientTransform="matrix(.6934 -6.9511 10.842 1.727 -4493.1 4849.2)" gradientUnits="userSpaceOnUse">
							<stop stop-color="#F2D03C" offset="0"/>
							<stop stop-color="#DFAD38" offset=".7301"/>
							<stop stop-color="#D8A037" offset=".989"/>
							<stop stop-color="#D8A037" offset="1"/>
						</radialGradient>
						<path class="st73" d="m495.4 673.3c0.7-0.5 1.9-0.3 3 0 0.6 0.1 1.1 0.2 1.4 0.2h0.1c3.2-1 8-1.1 13-0.4 4.6 0.6 8.8 1.9 11.9 3.5h0.1c0.2 0.1 0.4 0.1 0.8 0.2s0.9 0.2 1.4 0.4h0.1c0.3 0.1 0.6 0.2 0.9 0.4 0.4 0.2 0.6 0.5 0.8 0.7v0.1c0.1 0.3 0.2 0.5 0.2 0.8s-0.2 0.5-0.4 0.7l-0.1 0.1c-0.2 0-0.4-0.1-0.7-0.2-0.8-0.3-1.8-0.5-2.7-0.7-0.4-0.1-0.7-0.1-0.9-0.2h-0.1c-0.5-0.2-0.9-0.4-1-0.5-2.3-1.1-5.7-2.3-9.9-2.9-0.5-0.1-1-0.1-1.6-0.2-3.2-0.4-6.1-0.3-8.4 0.1-1.8 0.3-3.3 0.6-4.5 0.6h-0.1c-0.3 0-0.5-0.1-0.8-0.2-0.2-0.1-0.3-0.1-0.5-0.2-0.8-0.4-1.7-1.1-2.4-1.6 0 0-0.1 0-0.1-0.1 0.3-0.4 0.4-0.5 0.5-0.6z"/>
							<radialGradient id="y" cx="704.01" cy="416.36" r="1.672" gradientTransform="matrix(.6934 -6.9511 10.842 1.727 -4493.1 4849.2)" gradientUnits="userSpaceOnUse">
							<stop stop-color="#F2D13C" offset="0"/>
							<stop stop-color="#E2B339" offset=".6125"/>
							<stop stop-color="#D79E37" offset=".989"/>
							<stop stop-color="#D79E37" offset="1"/>
						</radialGradient>
						<path class="st74" d="m495.4 673.3c0.7-0.5 1.9-0.3 3 0 0.6 0.1 1.1 0.2 1.4 0.2h0.1c3.2-1 8-1.1 13-0.4 4.5 0.6 8.8 1.9 11.8 3.4h0.1c0.2 0.1 0.4 0.1 0.8 0.2s0.9 0.2 1.4 0.4h0.1c0.3 0.1 0.6 0.2 0.9 0.4 0.4 0.2 0.6 0.5 0.8 0.7v0.1c0.2 0.3 0.2 0.5 0.2 0.8s-0.1 0.5-0.3 0.7v0.1l-0.6-0.3c-0.8-0.3-1.8-0.5-2.6-0.7-0.4-0.1-0.7-0.1-0.9-0.2h-0.1c-0.5-0.2-0.9-0.4-1-0.5-2.3-1.1-5.7-2.3-9.9-3-0.5-0.1-1-0.1-1.6-0.2-3.2-0.4-6.1-0.3-8.4 0.1-1.8 0.3-3.3 0.6-4.5 0.6h-0.1c-0.3 0-0.5-0.1-0.8-0.2-0.2-0.1-0.3-0.1-0.5-0.2-0.9-0.4-1.8-1.1-2.4-1.5h-0.1c0-0.3 0.1-0.4 0.2-0.5z"/>
							<radialGradient id="x" cx="704.1" cy="416.38" r="1.5476" gradientTransform="matrix(.6934 -6.9511 10.842 1.727 -4493.1 4849.2)" gradientUnits="userSpaceOnUse">
							<stop stop-color="#F2D13C" offset="0"/>
							<stop stop-color="#E4B639" offset=".5431"/>
							<stop stop-color="#D69D37" offset=".989"/>
							<stop stop-color="#D69C37" offset="1"/>
						</radialGradient>
						<path class="st75" d="m495.4 673.3c0.7-0.5 1.9-0.3 3 0 0.6 0.1 1.1 0.2 1.4 0.2h0.1c3.2-1 8-1.1 13-0.4 4.5 0.6 8.7 1.8 11.7 3.4h0.1c0.2 0.1 0.4 0.1 0.8 0.2s0.9 0.2 1.3 0.4h0.1c0.3 0.1 0.6 0.2 0.9 0.4 0.4 0.2 0.6 0.5 0.9 0.6v0.1c0.2 0.2 0.3 0.5 0.3 0.8s-0.1 0.5-0.2 0.7v0.1c-0.2-0.1-0.3-0.2-0.6-0.3-0.8-0.4-1.8-0.5-2.6-0.7-0.4-0.1-0.7-0.1-0.9-0.2h-0.1c-0.5-0.2-0.9-0.4-1-0.5-2.4-1.1-5.8-2.3-9.9-3-0.5-0.1-1-0.1-1.6-0.2-3.2-0.4-6.1-0.4-8.4 0-1.8 0.3-3.3 0.6-4.5 0.6h-0.1c-0.2 0-0.5-0.1-0.8-0.2-0.2-0.1-0.3-0.1-0.5-0.2-0.9-0.4-1.8-1.1-2.5-1.4h-0.1c0-0.2 0.1-0.3 0.2-0.4z"/>
							<radialGradient id="w" cx="704.2" cy="416.39" r="1.4309" gradientTransform="matrix(.6934 -6.9511 10.842 1.727 -4493.1 4849.2)" gradientUnits="userSpaceOnUse">
							<stop stop-color="#F3D23D" offset="0"/>
							<stop stop-color="#E6BA3A" offset=".4741"/>
							<stop stop-color="#D69B36" offset=".989"/>
							<stop stop-color="#D59B36" offset="1"/>
						</radialGradient>
						<path class="st76" d="m495.4 673.3c0.7-0.5 1.9-0.3 3 0 0.6 0.1 1.1 0.2 1.4 0.2h0.1c3.2-1 8-1.1 13-0.4 4.4 0.6 8.6 1.8 11.6 3.3h0.1c0.2 0.1 0.4 0.1 0.8 0.2s0.9 0.2 1.3 0.4h0.1c0.3 0.1 0.6 0.2 0.9 0.3 0.4 0.2 0.7 0.4 0.9 0.6l0.1 0.1c0.2 0.2 0.3 0.5 0.4 0.8s0 0.6-0.2 0.8v0.1c-0.1-0.1-0.3-0.2-0.6-0.4-0.8-0.4-1.8-0.6-2.6-0.7-0.4-0.1-0.7-0.1-0.9-0.2h-0.1c-0.5-0.2-0.8-0.4-1-0.5-2.4-1.2-5.8-2.3-9.9-3-0.5-0.1-1-0.2-1.6-0.2-3.1-0.4-6.1-0.4-8.4 0-1.8 0.3-3.3 0.6-4.5 0.6h-0.1c-0.2 0-0.5-0.1-0.8-0.2-0.2 0-0.4-0.1-0.5-0.2-0.9-0.4-1.9-1-2.5-1.2h-0.1c-0.1-0.2 0-0.3 0.1-0.4z"/>
							<radialGradient id="v" cx="704.28" cy="416.41" r="1.3203" gradientTransform="matrix(.6934 -6.9511 10.842 1.727 -4493.1 4849.2)" gradientUnits="userSpaceOnUse">
							<stop stop-color="#F3D23D" offset="0"/>
							<stop stop-color="#E7BC3A" offset=".4319"/>
							<stop stop-color="#D59A36" offset=".989"/>
							<stop stop-color="#D49936" offset="1"/>
						</radialGradient>
						<path class="st77" d="m495.4 673.3c0.7-0.5 1.9-0.3 3 0 0.6 0.1 1.1 0.2 1.4 0.2h0.1c3.2-1 8-1.1 13-0.4 4.4 0.6 8.5 1.8 11.5 3.3h0.1c0.2 0.1 0.5 0.2 0.8 0.2 0.4 0.1 0.9 0.3 1.3 0.4h0.1c0.2 0.1 0.5 0.2 0.9 0.3 0.4 0.2 0.7 0.4 1 0.6l0.1 0.1c0.2 0.2 0.4 0.5 0.5 0.7 0.1 0.3 0 0.6-0.1 0.8v0.1c-0.1-0.1-0.3-0.3-0.6-0.4-0.8-0.4-1.8-0.6-2.6-0.7-0.4-0.1-0.7-0.1-0.9-0.2h-0.1l-1-0.5c-2.4-1.2-5.9-2.4-9.9-3-0.5-0.1-1-0.2-1.6-0.2-3.1-0.4-6.1-0.4-8.5 0-1.8 0.3-3.3 0.6-4.5 0.7h-0.1c-0.2 0-0.5-0.1-0.8-0.2-0.2 0-0.4-0.1-0.5-0.2-0.9-0.3-1.9-1-2.6-1.1-0.1 0-0.1 0.1-0.1 0-0.1-0.3 0-0.4 0.1-0.5z"/>
							<radialGradient id="t" cx="704.36" cy="416.43" r="1.2147" gradientTransform="matrix(.6934 -6.9511 10.842 1.727 -4493.1 4849.2)" gradientUnits="userSpaceOnUse">
							<stop stop-color="#F3D33D" offset="0"/>
							<stop stop-color="#E8BF3B" offset=".3855"/>
							<stop stop-color="#D49836" offset=".989"/>
							<stop stop-color="#D39736" offset="1"/>
						</radialGradient>
						<path class="st78" d="m495.4 673.3c0.7-0.5 1.9-0.3 3 0 0.6 0.1 1.1 0.2 1.4 0.2h0.1c3.2-1 8-1.1 13-0.4 4.3 0.6 8.4 1.8 11.4 3.2h0.1c0.2 0.1 0.5 0.2 0.8 0.2 0.4 0.1 0.9 0.3 1.3 0.5h0.1c0.2 0.1 0.5 0.1 0.9 0.3 0.4 0.1 0.7 0.3 1 0.5l0.1 0.1c0.2 0.2 0.4 0.4 0.5 0.7s0 0.6 0 0.8v0.1l-0.5-0.5c-0.7-0.5-1.8-0.6-2.6-0.7-0.4-0.1-0.7-0.1-0.9-0.2h-0.1l-1-0.5c-2.5-1.2-5.9-2.4-9.9-3-0.5-0.1-1-0.2-1.6-0.2-3.1-0.4-6.1-0.4-8.5-0.1-1.8 0.2-3.3 0.6-4.5 0.7h-0.1c-0.2 0-0.5-0.1-0.8-0.1-0.2 0-0.4-0.1-0.6-0.2-1-0.3-2-1-2.7-1-0.1 0-0.1 0.1-0.1 0.1 0-0.3 0.1-0.4 0.2-0.5z"/>
							<radialGradient id="s" cx="704.43" cy="416.45" r="1.1129" gradientTransform="matrix(.6934 -6.9511 10.842 1.727 -4493.1 4849.2)" gradientUnits="userSpaceOnUse">
							<stop stop-color="#F3D33D" offset="0"/>
							<stop stop-color="#E9C13B" offset=".3527"/>
							<stop stop-color="#D39636" offset=".989"/>
							<stop stop-color="#D29636" offset="1"/>
						</radialGradient>
						<path class="st79" d="m495.4 673.3c0.7-0.5 1.9-0.3 3 0 0.6 0.1 1.1 0.2 1.4 0.2h0.1c3.2-1 8-1.1 13-0.4 4.3 0.6 8.3 1.7 11.3 3.2h0.1c0.2 0.1 0.5 0.2 0.8 0.3 0.4 0.1 0.8 0.3 1.3 0.5h0.1c0.2 0.1 0.5 0.1 0.9 0.3 0.4 0.1 0.7 0.3 1.1 0.5 0 0 0.1 0 0.1 0.1 0.3 0.2 0.5 0.4 0.6 0.7 0.2 0.3 0.1 0.7 0 0.8v0.1l-0.5-0.5c-0.7-0.5-1.8-0.7-2.6-0.8-0.4-0.1-0.7-0.1-0.9-0.2h-0.1l-1-0.5c-2.5-1.2-5.9-2.4-10-3-0.5-0.1-1-0.2-1.6-0.2-3.1-0.4-6.1-0.4-8.5-0.1-1.8 0.2-3.3 0.5-4.5 0.7h-0.1c-0.2 0-0.5-0.1-0.8-0.1-0.2 0-0.4-0.1-0.6-0.2-1-0.3-2.1-0.9-2.7-0.9-0.1 0-0.1 0.1-0.1 0.1 0-0.4 0.1-0.5 0.2-0.6z"/>
							<radialGradient id="r" cx="704.5" cy="416.46" r="1.0139" gradientTransform="matrix(.6934 -6.9511 10.842 1.727 -4493.1 4849.2)" gradientUnits="userSpaceOnUse">
							<stop stop-color="#F4D43D" offset="0"/>
							<stop stop-color="#EBC33B" offset=".3255"/>
							<stop stop-color="#D39636" offset=".969"/>
							<stop stop-color="#D29536" offset=".989"/>
							<stop stop-color="#D19436" offset="1"/>
						</radialGradient>
						<path class="st80" d="m495.4 673.3c0.7-0.5 1.9-0.3 3 0 0.6 0.1 1.1 0.2 1.4 0.2h0.1c3.2-1 8-1.1 13-0.4 4.2 0.6 8.2 1.7 11.2 3.1h0.1c0.2 0.1 0.5 0.2 0.7 0.3 0.4 0.1 0.8 0.3 1.2 0.5h0.1c0.2 0.1 0.5 0.1 0.9 0.2s0.8 0.3 1.1 0.4c0 0 0.1 0 0.1 0.1 0.3 0.2 0.5 0.4 0.7 0.7s0.1 0.7 0.1 0.9v0.1c-0.1-0.2-0.2-0.4-0.5-0.5-0.7-0.6-1.8-0.7-2.6-0.8-0.4-0.1-0.7-0.1-0.9-0.2h-0.1l-1-0.5c-2.5-1.2-6-2.4-10-3-0.5-0.1-1-0.2-1.6-0.2-3.1-0.4-6.1-0.4-8.5-0.1-1.7 0.2-3.3 0.5-4.5 0.7h-0.1c-0.2 0-0.5-0.1-0.8-0.1-0.2 0-0.4-0.1-0.6-0.2-1-0.3-2.1-0.9-2.8-0.8-0.1 0-0.1 0.1-0.2 0.1l0.5-0.5z"/>
							<radialGradient id="q" cx="704.56" cy="416.48" r=".9171" gradientTransform="matrix(.6934 -6.9511 10.842 1.727 -4493.1 4849.2)" gradientUnits="userSpaceOnUse">
							<stop stop-color="#F4D43D" offset="0"/>
							<stop stop-color="#EBC43B" offset=".3025"/>
							<stop stop-color="#D59B37" offset=".891"/>
							<stop stop-color="#D19336" offset=".989"/>
							<stop stop-color="#D19336" offset="1"/>
						</radialGradient>
						<path class="st81" d="m495.4 673.3c0.7-0.5 1.9-0.3 3 0 0.6 0.1 1.1 0.2 1.4 0.2h0.1c3.2-1 8-1.1 13-0.4 4.2 0.6 8.1 1.7 11.1 3.1h0.1c0.2 0.1 0.5 0.2 0.7 0.3 0.4 0.1 0.8 0.3 1.2 0.5h0.1c0.2 0.1 0.5 0.1 0.9 0.2s0.8 0.2 1.2 0.4h0.1c0.3 0.2 0.6 0.4 0.8 0.7s0.2 0.7 0.1 0.9v0.1c-0.1-0.2-0.2-0.4-0.5-0.6-0.7-0.6-1.8-0.7-2.6-0.8-0.4 0-0.7-0.1-0.9-0.2h-0.1c-0.4-0.2-0.7-0.4-1-0.5-2.6-1.3-6-2.4-10-3-0.5-0.1-1-0.2-1.6-0.2-3.1-0.4-6-0.5-8.5-0.2-1.7 0.2-3.2 0.5-4.5 0.7h-0.1c-0.2 0-0.5-0.1-0.8-0.1-0.2 0-0.4-0.1-0.6-0.1-1.1-0.3-2.2-0.8-2.9-0.6-0.1 0-0.1 0.1-0.2 0.1l0.5-0.5z"/>
							<radialGradient id="p" cx="704.62" cy="416.5" r=".8223" gradientTransform="matrix(.6934 -6.9511 10.842 1.727 -4493.1 4849.2)" gradientUnits="userSpaceOnUse">
							<stop stop-color="#F4D53D" offset="0"/>
							<stop stop-color="#ECC63B" offset=".283"/>
							<stop stop-color="#D89F37" offset=".8246"/>
							<stop stop-color="#D19235" offset=".989"/>
							<stop stop-color="#D09135" offset="1"/>
						</radialGradient>
						<path class="st82" d="m495.4 673.3c0.7-0.5 1.9-0.3 3 0 0.6 0.1 1.2 0.2 1.4 0.2h0.1c3.2-1 8-1.1 13-0.4 4.1 0.6 8 1.6 11 3h0.1c0.2 0.1 0.5 0.2 0.7 0.3 0.4 0.2 0.8 0.4 1.2 0.5h0.1c0.2 0.1 0.5 0.1 0.9 0.2l1.2 0.3h0.1c0.3 0.2 0.6 0.4 0.8 0.7s0.2 0.7 0.2 0.9v0.1c-0.1-0.2-0.2-0.4-0.4-0.6-0.7-0.6-1.8-0.7-2.6-0.8-0.5 0-0.7-0.1-0.9-0.1h-0.1c-0.4-0.2-0.7-0.4-1-0.5-2.6-1.3-6.1-2.4-10-3-0.5-0.1-1-0.2-1.6-0.2-3.1-0.4-6-0.5-8.5-0.2-1.7 0.2-3.2 0.5-4.5 0.7h-0.1c-0.2 0-0.5-0.1-0.8-0.1-0.2 0-0.4-0.1-0.6-0.1-1.1-0.3-2.3-0.8-2.9-0.5-0.1 0-0.1 0.2-0.2 0.2 0.2-0.4 0.3-0.5 0.4-0.6z"/>
							<radialGradient id="o" cx="704.69" cy="416.52" r=".729" gradientTransform="matrix(.6934 -6.9511 10.842 1.727 -4493.1 4849.2)" gradientUnits="userSpaceOnUse">
							<stop stop-color="#F4D53D" offset="0"/>
							<stop stop-color="#EDC73B" offset=".2662"/>
							<stop stop-color="#DAA237" offset=".7675"/>
							<stop stop-color="#D09035" offset=".989"/>
							<stop stop-color="#CF8F35" offset="1"/>
						</radialGradient>
						<path class="st83" d="m495.4 673.3c0.7-0.5 1.9-0.3 3 0 0.6 0.1 1.2 0.2 1.4 0.2h0.1c3.2-1 8-1.1 13-0.4 4.1 0.6 7.9 1.6 10.9 3h0.1c0.2 0.1 0.5 0.2 0.7 0.3l1.2 0.6h0.1c0.2 0.1 0.4 0.1 0.9 0.2 0.4 0.1 0.8 0.1 1.3 0.3h0.1c0.3 0.1 0.7 0.4 0.9 0.7 0.3 0.4 0.3 0.8 0.3 1v0.1c-0.1-0.2-0.2-0.4-0.4-0.7-0.7-0.7-1.8-0.8-2.6-0.8-0.5 0-0.7-0.1-0.9-0.1h-0.1c-0.4-0.2-0.7-0.4-1-0.5-2.6-1.3-6.1-2.4-10-3-0.5-0.1-1-0.2-1.6-0.2-3.1-0.4-6-0.5-8.5-0.3-1.7 0.2-3.2 0.5-4.5 0.7h-0.1c-0.2 0-0.5-0.1-0.8-0.1-0.2 0-0.4-0.1-0.6-0.1-1.1-0.2-2.3-0.7-3-0.4-0.1 0-0.2 0.2-0.2 0.2 0.1-0.5 0.2-0.6 0.3-0.7z"/>
							<radialGradient id="n" cx="704.75" cy="416.54" r=".6373" gradientTransform="matrix(.6934 -6.9511 10.842 1.727 -4493.1 4849.2)" gradientUnits="userSpaceOnUse">
							<stop stop-color="#F5D63D" offset="0"/>
							<stop stop-color="#EEC93C" offset=".2517"/>
							<stop stop-color="#DBA638" offset=".7181"/>
							<stop stop-color="#CF8F35" offset=".989"/>
							<stop stop-color="#CE8E35" offset="1"/>
						</radialGradient>
						<path class="st84" d="m495.4 673.3c0.7-0.5 1.9-0.3 3 0 0.6 0.1 1.2 0.2 1.4 0.2h0.1c3.2-1 8-1.1 13-0.4 4 0.5 7.9 1.6 10.8 2.9h0.1c0.2 0.1 0.5 0.2 0.7 0.3l1.2 0.6h0.1c0.2 0.1 0.4 0.1 0.9 0.1 0.4 0 0.9 0.1 1.3 0.2h0.1c0.4 0.1 0.7 0.3 1 0.7s0.3 0.8 0.3 1v0.1c-0.1-0.2-0.2-0.5-0.4-0.7-0.7-0.7-1.8-0.8-2.6-0.9-0.5 0-0.7-0.1-0.9-0.1h-0.1c-0.3-0.2-0.7-0.4-1-0.5-2.6-1.3-6.2-2.4-10-3-0.5-0.1-1-0.2-1.6-0.2-3.1-0.4-6-0.5-8.5-0.3-1.7 0.1-3.2 0.5-4.5 0.8h-0.1c-0.2 0-0.5 0-0.8-0.1-0.2 0-0.4-0.1-0.6-0.1-1.1-0.2-2.4-0.7-3-0.3-0.1 0-0.2 0.2-0.2 0.2 0.1-0.3 0.2-0.4 0.3-0.5z"/>
							<radialGradient id="m" cx="704.82" cy="416.56" r=".5462" gradientTransform="matrix(.6934 -6.9511 10.842 1.727 -4493.1 4849.2)" gradientUnits="userSpaceOnUse">
							<stop stop-color="#F5D63D" offset="0"/>
							<stop stop-color="#EECA3C" offset=".2392"/>
							<stop stop-color="#DCA938" offset=".6752"/>
							<stop stop-color="#CD8C35" offset="1"/>
						</radialGradient>
						<path class="st85" d="m525.7 676.9v0c-3.2-1.8-7.7-3.2-12.7-3.8-5.1-0.7-9.8-0.5-13 0.4h-0.1c-0.3 0-0.8-0.1-1.4-0.2-1.2-0.2-2.4-0.4-3 0-0.1 0.1-0.2 0.2-0.2 0.4 0 0.1 0.1-0.2 0.2-0.2 0.7-0.5 1.9 0 3.1 0.2 0.6 0.1 1.1 0.2 1.4 0.2h0.1c3.2-1 8-1.1 13.1-0.5 4.9 0.7 9.5 2.1 12.6 3.8h0.1c0.2 0.1 0.4 0.1 0.9 0.1 0.7 0 1.9 0.1 2.6 0.9 0.2 0.3 0.3 0.5 0.4 0.8v-0.1c0-0.2-0.1-0.7-0.4-1-0.7-0.8-1.9-0.8-2.6-0.9s-0.9-0.1-1.1-0.1z"/>
						<radialGradient id="l" cx="703.37" cy="415.4" r=".3632" gradientTransform="matrix(.6934 -6.9511 10.842 1.727 -4493.1 4849.2)" gradientUnits="userSpaceOnUse">
						<stop stop-color="#F5D63D" offset="0"/>
						<stop stop-color="#EECA3C" offset=".2392"/>
						<stop stop-color="#DCA938" offset=".6752"/>
						<stop stop-color="#CD8C35" offset="1"/>
					</radialGradient>
					<path class="st86" d="m495.4 673.3c-0.1 0.1-0.2 0.2-0.2 0.4 0 0.1 0 0.2 0.1 0.2 0.8 1.4 1.6 2.4 2.4 2.7 0.4 0.2 1 0.3 1.6 0.3-0.4 0-0.8-0.1-1.1-0.3-0.8-0.4-1.6-1.3-2.4-2.7 0-0.1-0.1-0.2-0.1-0.2 0-0.2 0.1-0.3 0.2-0.4 0.3-0.2 0.7-0.3 1.1-0.3-0.6 0-1.2 0-1.6 0.3z"/>
					<path class="st31" d="m499.9 673.9c-0.3 0-0.8-0.1-1.4-0.2-1.2-0.2-2.4-0.4-3 0l-0.2 0.2s0.1 0.1 0.1 0.2l0.1-0.1c0.7-0.5 1.9-0.3 3 0 0.6 0.1 1.1 0.2 1.4 0.2h0.1c3.2-1 8-1.1 13.1-0.4 4.9 0.7 9.5 2.1 12.6 3.8h0.1c0.2 0.1 0.4 0.1 0.9 0.1 0.7 0 1.9 0.1 2.6 0.9 0.2 0.2 0.3 0.5 0.3 0.7v-0.1c0-0.2-0.1-0.5-0.4-0.8-0.7-0.8-1.9-0.8-2.6-0.9-0.5 0-0.7-0.1-0.9-0.1h-0.1c-3.1-1.8-7.7-3.1-12.6-3.8-5.1-0.7-9.8-0.5-13 0.4 0-0.1-0.1-0.1-0.1-0.1z"/>
			<path class="st87" d="m604.6 676.2-1 1-23.7 5.9s-0.3-0.5-2.2 0c0 0-4.8-1-10-0.5h-1.3l-5.8-4.3h-5.4s-3.2 0.8-3.2 2c0 0-0.2 6.8 0.7 7.7 0 0 9 3.6 9.6 5.1 0 0 1.6 3.8 7.4 3.8l30.2 10.5v-14.7s-0.2-0.1-1-1l-0.4-0.1-18.5-3.6 1.1-0.2 24.5-4.9s0 0.1 0.1 0.3c0.2 0.4 1.1 1 3.9-0.2l37.9-9.6s4.8-1.7 0.7-7.1c0 0-3.2-3.5-10.4 0l-33.2 9.9"/>
			<path class="st88" d="m605.9 683.2c-0.1-0.1-0.1-0.3-0.1-0.3l-24.5 4.9s-2.2-4.5-3.6-4.7c1.9-0.5 2.2 0 2.2 0l23.7-5.9s8.5 2 2.3 6z"/>
			<path class="st89" d="m647.7 673.4-37.9 9.6c-2.8 1.2-3.6 0.6-3.9 0.2 6.2-4-2.3-6-2.3-6l1-1 33.3-9.9c7.2-3.5 10.4 0 10.4 0 4.1 5.5-0.6 7.1-0.6 7.1z"/>
			<path class="st90" d="m552.1 680.4 8.3 5.2s5.8-2.1 9.3 3.5l28.9 2.8v-0.1l0.4 0.1 1 1v14.7l-30.1-10.6c-5.9 0-7.4-3.8-7.4-3.8-0.6-1.5-9.6-5.1-9.6-5.1-1-0.9-0.8-7.7-0.8-7.7z"/>
	</g>
</svg>